/* XPM */
static char *_3e7174067de4a83aa611b2d896db3a6cUYY1T4qiUpWnsPH[] = {
/* columns rows colors chars-per-pixel */
"31 23 10 1 ",
"  c None",
". c #302842",
"X c #4E2E59",
"o c #78386D",
"O c #5E6272",
"+ c #D43F58",
"@ c #625A9C",
"# c #8285B5",
"$ c #A9B6CC",
"% c #D5E1EB",
/* pixels */
"            ooooooo            ",
"           oXXXXXXXo           ",
"           XXXXXXXXX           ",
"           $.......$           ",
"      $$$  $$OOOOO$$  $$$      ",
"     $@@@$ ##OOOOO## $@@@$     ",
"    %%###%%%%%%%%%%%%%###%%    ",
"   %%%###%%%%%%%%%%%%%###%%%   ",
"   %%%@@@%%%%%%%%%%%%%@@@%%%   ",
"   %%$%%%$%%%%%%%%%%%$%%%$%%   ",
"   %%$%%%$%%%%+++%%%%$%%%$%%   ",
"   %%$%%%$%%%%+++%%%%$%%%$%%   ",
"   %%%@@@%%%+++++++%%%@@@%%%   ",
"   %%%###%%%+++++++%%%###%%%   ",
"   %%%###%%%+++++++%%%###%%%   ",
"   %%%@@@%%%%%+++%%%%%@@@%%%   ",
"   %%$%%%$%%%%+++%%%%$%%%$%%   ",
"   %%$%%%$%%%%%%%%%%%$%%%$%%   ",
"   $%$%%%$%%%%%%%%%%%$%%%$%$   ",
"   $%%@@@%%%%%%%%%%%%%@@@%%$   ",
"   #$$###%%%%%%%%%%%%%###$$#   ",
"    ##@@@#$$$$$$$$$$$#@@@##    ",
"                               "
};
