/* XPM */
static char *picture[] = {
"64 64 19 1 ",
"  c #67625C",
"X c #5B5952",
"+ c #4F4C48",
". c #666A62",
"| c #383F40",
"/ c #3B2921",
"6 c #28221F",
"7 c #2E221C",
"8 c #807B6A",
"9 c #79735E",
"a c #463124",
"b c #756F64",
"c c #000000",
"d c #93968B",
"e c #9F9F8B",
"f c #A1A9A3",
"g c #170606",
"h c #89928C",
"i c #3B1D1D",
"777777//aa//a/a/////7//aa/a////7777/7//aaaaa/a/77777/7/aaa/a////",
"99999 X /aaaa///X889 X+7adfh889999999 XXXX 888888889 X+/adfh8899",
".   .. X998889988.  X X6/e.    999.    +  .    98   X X6/e.   9.",
"   ..     .   9..    X |/8    ....       .   .9      X |78   9. ",
" ...   +     9.        6/8   88 .        9  88         678  8  .",
"..     +    8         X678 .9  . .   X   9 9          X6/8 .8 . ",
"      +    .8 .     b+|6/8 9. . ..  X     9.        b+|678 9   .",
"   X X    9. . .    ++||789    .   X X  99.. . .    ++||/89   . ",
"   +      9.. .    b++|67X8       X X    . .. .    b++|67X8     ",
"  ++      9. ..   b+X+||7X         X +X . .. ..   b+X+||/X      ",
" b+X X    .     X +X X+|/+       b+X+cc8 .      X +X X+|/+      ",
"b+X X          X XX   +|7++     b+X |66d.      X XX   +|/|+     ",
"X X          X X       6/+X   b++X   8d      X X       6/+X   b+",
"       X X            X6/X    ++++X      X            X6/X  b+++",
"  ++X  + X+++     ++  +6/X++ X||||++  X+ X+++     ++  +c/X+++++X",
"||||6|6cc6666|6||||||66/a766666|6||||666cc666|6||||||6c/ac666|6|",
"a/7777/7/7777//7//77/7/aaa7/77/7//7/777777/7//7/7777/aaaa7/7/7/a",
"99 X+aa/8.99...+|7/7 8.8.dd8d888X+++XX/aad8888+|++XXX+++   .9999",
". . X6ad.  8. . .|i+8.    .    98 +XX 6/8.     +| +X  X+      9.",
"     |78  8. . .. 8d         .9    X X6a8  9   X++c68X X     9. ",
"... +6/8 8  .               88      XX6/8 9     +|6cd X     8  .",
".   +|78               +   9       X X|789.    X X|8X  X    8 ..",
" . + |7+      X        X| 9.        X+6/d. .    X+             .",
"  X  |7|+X X X    X   +cc8.        b++|78 .      + X          . ",
"     |76|++ ||X XX X  X668.  . .   b+ |79..     XX+             ",
"    X|7+X X|ccb+X      8d   ...    +X+|/        X  X            ",
"   XX|7| XX|c6d +           ..     ++ |7+      X         +      ",
"  +++|7|6|66|8 X X  b      .. .    + +|/+  8    X   bbX+ ++     ",
"++X X676|6||6e     bX     . .  X  +X X|/8.          X X   XX X +",
"+  XX6/6+|+|+68   bX XX  X    +  X+ X 6/X             X   X X XX",
" +X +6766+|+||b  b++XX|  +X ++   X+XX+6/+X +++      X    X XXX++",
"|||667/7/6/6666|||||6|66c66|6||||||66c7a/6|6|||||||66c6cc6666|6|",
"777777//77//7/7/7/////7/7777/////77/7/7aaaaa/a/7777/7/77a/a/////",
"889.  9 999aaa/a//X889 X+7/7fhdd99999 X 888.9999999 X+7a//fe8888",
"99.    +  .88998888.  X X67e.   9.  .. X      b.   . X6/ad.   99",
"..       ..   9....    X |/8   9.  ..        b.   .   |a/8   ...",
".       . .  9. .        678  8  ...   +    b   .... +6//8  88  ",
" .   X      8  .        X678 .8 . .        8bb....   +|/79 9  ..",
"..  X      .8 .       b+|678 9   .    +   8XXX  . . + |//99. .  ",
"   X X     . . .      ++||789   .  X X  8bX X X.   X  |/78.   ..",
"  X X      .. .      b++|67X8      +   .XX X X        |7X8.     ",
"   X       . ..  X  b+X+||/X      ++  .   X          X|/8.      ",
" b+X   +        XXX +X X+|7+     b+X X   + X        XX|78       ",
"b+X            X X XX   +|/++    +X X   X          +++|/9       ",
"+X           XX X X      67+X   + X      +XX X b+++X X67 X   b++",
"++X      X     X        X6/X  b++        XX X X+X+  XX67X X  +++",
"||++  X+ X+++       ++  +6/X++++X ++X  + X XXX+ + +X +67+X  X|||",
"6||||666ccc666c66|cc6||667a/666|||||6|66c6666|6|||||667766|666||",
"/77777/7//77/7////7/77/7//aa//a/a/////7//////////7777/7/7aaaaa/a",
"999999 X+//7fee888XX+777d8888888X7XX+++XXaaa///////7/888X+6d8.99",
"9..   . X67d999  98  +8dXXX .  X|98  +X +6a/fd8888888 .. X  .   ",
".    .   |/9 9 .9    XXX X     |e       +6/d  8. ..            9",
"   .... +67 9 88        XX   X8|9      b+6a8 8  .        +    8 ",
"  ...   +|79 9         X X+  9X6.      +||/8             +   .8 ",
"   . . + |7 9.        X X+   X|e .    b|+6/+                 9  ",
"  .   X  |79.          b  +X  |8      ++X|/|+X X    X       9   ",
"         |79.  . .       X + X|8     X   |7+|++ X XX X      8   ",
"        X|/9  ...     b XXX+ |69    b    |/+X  +++X             ",
"       XX|79  ..      bX+XX |gg.   ++XX +|7X      +             ",
"      +++|/9 .. .     X+   X6gg6 X++X   +|7X     X X  b     +   ",
" bb+++X X6/9.. .     X+ +  |e. |     X  X67+ X       bX    +XX X",
"X++X+  XX6a . .  X   + X ||8.   |X  X    |7+X X     bX X   XX X ",
"++ + +X +6/X    +   X+X|669X    +|       67++X X   b++XX   X XXX",
"6||||||66/a/6|6||6|666c666c66|6||||g||66c777666|6|||||6|66c6666|"
};