/* XPM */
static char *picture[] = {
"64 64 9 1 ",
"  c #1C1C1B",
"X c #28221F",
"+ c #181817",
". c #141413",
"| c #211F1D",
"/ c #000000",
"6 c #303029",
"7 c #424337",
"8 c #382B2F",
".   | .     |   X    |  +.    | .   | .     |   X    |  +.    | ",
"+  X   + X X  XX ++   X       +.+  X   + X X  XX ++   X       +.",
" | X.   X X.     | . X X.X   |X  | X.   X X.     | . X X.X   |X ",
"  X+  X. X          X X+X| +.     X+  X. X          X X+X| +.   ",
"      X   .  X   X +     .  X .       X   .  X   X +     .  X . ",
"   .|X   X     .|    X. X    X     .|X   X     .|    X. X    X  ",
"  ++X   X |   X  |    X+    X |+  ++X   X |   X  |    X+    X |+",
".  X |.X X  .X X   + X     X    .  X |.X X  .X X   + X     X    ",
"  | X   +  |X +     XX|  .X+|     | X   +  |X +     XX|  .X+|   ",
"   |   | X  X//.    +      X   +   |   |   XXX .+  X.X     X   +",
"+ X.|   +  +/.++.  X X  + X| .X + X.|   +   X     | XX  + X| .X ",
" X.X    .  ..++++.|+ |   X |  +  X.X    .  X.X+  + X     X |  + ",
"X         X/+    +.   |. X      X         X|X|     X  |. X      ",
"  .   +  X/.  ++  +++X         X  .   +  X+XX .X               X",
" X+   . X/.  +++ +   6   +   |X  X+   . X .    | X   +   +   |X ",
"    X| X .++ + +++   6X  X.X  .     X| X        X  .  X  X.X  . ",
".  .     .+ + +++++  7.|  X | X .  .      +    + | + X.|  X | X ",
"  X +    . +++ +    78   XX       X +  X./// X  |.  X    XX     ",
" + .+   +++ + + +8778+X   XXX    + .+ X./++.. X  X.X  X   XXX   ",
"X X .X .X. 66676778     +  X .  X X .X./++  .6    XXX   +  X .  ",
"+ |    X|  X  | |X X X   +X  + |+ |   /++ +++7.+ X X X   +X  + |",
"   .  X X |     X X.     X+.X      .  /.++ +78    X.     X+.X   ",
"+ X +X XXX  .  . +   | .    X|  + X +X X  778+  ++   | .    X|  ",
"    | X|.  X +XX        X  X   |    |   668X| /.        X  X   |",
"   XX. XX       |  .    X X X.X    XX.  X+XX /+ 6  .    X X X.X ",
" X  X    |   X    X  | X+| XXX+  X  X  X .   .  7 X  | X+| XXX+ ",
" . X   |   |      .X  X X|X.X    . X  X       67  .X  X X|X.X   ",
"  +.X   .  +  X.     .+X X X   |  +.X   .  +  X.     .+X X X   |",
"     X X  .X |        .   +  .       X X  .X |        .   +  .  ",
"  . X X  XX X  X.   |X X X  X |   . X X  XX X  X.   |X X X  X | ",
" |   .     |      X. |  +|       |   .     |      X. |  +|      ",
"  | X     +  . + X    | .     X   | X     +  . + X    | .     X ",
".   | .     |   X    |  +.    | .   | .     |   X    |  +.    | ",
"+  X   + X X  XX ++   X       +.+  X   + X X  XX ++   X       +.",
" | X.   X X.     | . X X.X   |X  | X.   X X.     | . X X.X   |X ",
"  X+  X. X          X X+X| +.     X+  X. X          X X+X| +.   ",
"      X   .  X   X +     .  X .       X   .  X   X +     .  X . ",
"   .|X   X     .|    X. X    X     .|X   X     .|    X. X    X  ",
"  ++X   X |   X  |    X+    X |+  ++X   X |   X.///   X+    X |+",
".  X |.X X  .X X   + X     X    .  X |.X X  .X./   .|X     X    ",
"  | X   +  |X +     XX|  .X+|     | X   +  |X./     ///...++|   ",
"   |   |   XXX .+ X.//.    X   +   |   |   XX/ .+  +.+    ++   +",
"+ X.|   +   X      /.++6+ X| .X + X.|   +    /    + ++  + +.X.X ",
" X.X    .  X.X+  +/++| 6 X |  +  X.X    .   ..+  + +     + +6 + ",
"X         X|X|    .+  7  X      X        .//||     +  +. +  6   ",
"  .   +  X+XX .X   667 X       X  .   + ./+++ .+            6  X",
" X+   . X .    | X   +   +   |X  X+   ../  /.  | +   +   +  6|X ",
"    X| X        X  .  X  X.X  .     X| /  /+ 6  +  .  +  +.68 . ",
".  .      +    + | + X.|  X | X .  .   /  .  7 + | + +.+  +7| X ",
"  X +     .   X  .  X    XX       X +  .   67 +  .  +  + +78    ",
" + .+   +X   | . X.X  X   XXX    + .+  .++   + . +.+  6668XXX   ",
"X X .X .X   X     XXX   +  X .  X X .X |.   +     ++878 +  X .  ",
"+ |    X|  X  | |X X X   +X  + |+ |    X|. +  + |+ +78   +X  + |",
"   .  X X |     X X.     X+.X      .  X X.|     + +68    X+.X   ",
"+ X +X XXX  .  . +   | .    X|  + X +X XX.  .  . + 6 | .    X|  ",
"    | X|.  X +XX        X  X   |    | X|. .+ +++ 878    X  X   |",
"   XX. XX       |  .    X X X.X    XX. XX +     |78.    X X X.X ",
" X  X    |   X    X  | X+| XXX+  X  X    | + +876 X  | X+| XXX+ ",
" . X   |   |      .X  X X|X.X    . X   |   |866   .X  X X|X.X   ",
"  +.X   .  +  X.     .+X X X   |  +.X   .  +  X.     .+X X X   |",
"     X X  .X |        .   +  .       X X  .X |        .   +  .  ",
"  . X X  XX X  X.   |X X X  X |   . X X  XX X  X.   |X X X  X | ",
" |   .     |      X. |  +|       |   .     |      X. |  +|      ",
"  | X     +  . + X    | .     X   | X     +  . + X    | .     X "
};