/* XPM */
static char *picture[] = {
"64 64 18 1 ",
"  c #1C1C1B",
"X c #28221F",
"+ c #2B2A27",
". c #181817",
"| c #141413",
"/ c #211F1D",
"6 c #090909",
"7 c #3C322C",
"8 c #382B2F",
"9 c #1D1E1B",
"a c #242320",
"b c #332E28",
"c c #0D0D0D",
"d c #232320",
"e c #564144",
"f c #332A26",
"g c #1D1E1D",
"h c #292623",
".XX.......X.|.....6...X..6..X....XX.......X.|.....|...X..6..X...",
"XX888XXXX/X//XXX/8XXX8X/X8/88X8XXX888XXXX/X//XXX/8XXX8X/X8|8XX8X",
" / X|   X X|     / | X X|X   /X  / X|   X X|     / | X X|X   /X ",
"  X.  X| X          X X.X/ .|     X.  X| X          X X.X/ .|   ",
"      X   |  X   X .     |  X |       X   |  X   X .     |  X | ",
"   |/X   X     |/    X| X    X     |/X   X     |/    X| X    X  ",
"  ..X   X /   X  /    X.    X /.  ..X   X /   X  /    X.    X /.",
"|  X /|X X  |X X   . X     X    |  X /|X X  |X X   . X     X    ",
"  / X   .  /X .     XX/  |X./     / X   .  /X .     XX/  |X./   ",
"   /   /   XXX |.  X|X     X   .   /   /   XXX |.  X|X     X   .",
". X|/   .   X     / XX  . X/ |X . X|/   .   X     / XX  . X/ |X ",
" X|X    |  X|X.  . X     X /  .  X|X    |  X|X.  . X     X /  . ",
"X         X/X/     X  /| X      X         X/X/     X  /| X      ",
"  |   .  X.XX |X           ++d X  |d++.  X.XX |X               X",
" X.   | X |    / X   .   .+++bX  X.+++9 X |    / X   .   .   /X ",
"66|6|6|6666666|66666|66||c9ccc666||c9c9c6666|6|6|666|66666666|66",
"..X.|.....6...X..6..X...a77aaa....Xa9aaaa.|...X..6..X....XX.....",
"X/X//XXX/8XXX8X/X8/88X8777eee7XXX/Xbb777beXXX8X/X8|8XX8XXX888XXX",
" . |.   .X   / | X|X  7+++777+   . 9a+++a7+  / | X|X  X   XXX   ",
"X X |X |X   X     XXX+++a++7+9  X X+97+97+++X     XXX   .  X |  ",
". /    X/  X  / /X X+7+++a7++a /. /++++7b++7+ / /X X X   .X  . /",
"   |  X X /     X X9+++++7a97+     9++7+7+b+++  X X|     X.|X   ",
". X .X XXX  |  | .+++b+9++++7b  . X+a7+777++9++| .   / |    X/  ",
"    / X/|  X .XX +++++++7++7+d /   db+7b9++7+a77        X  X   /",
"   XX| XX       b++9++++7+7+7|X    X79+77+++++++b  |    X X X|X ",
" X  X    /   X +++7++b+7ab+7XX.  X  X++++b+++7++++X  / X./ XXX. ",
" | X   /   /  ++++97++7+7b7|X    | X  +b+++b++++++9X  X X/X|X   ",
"  .|X   |  . +79+++++9a7+7 X   /  .|X  +9++a++79++++ |.X X X   /",
"     X X  |X b++++++++9++ .  |+++++  X X++97+b++++++  |   .  |  ",
"  | X X  XX Xd+79+++b7+f X  X+b+++9+X X  f7+7++79++d/X X X  X / ",
" /   |     /      X| /  ./  +++++b+++|     /      X| /  ./      ",
"6666|6|6|666|66666666|6666|69c9cccccc6|66666|66||6|666666||6|6|6",
"..|...X..6..X....XX.......X.9aaaaacaa.X..6..X....XX.......X.|...",
"/8XXX8X/X8|8XX8XXX888XXXX/X/b777be7778X/X8/88X8XXX888XXXX/X//XXX",
" / X|   X X|     / | X X|X  +b7++b+79   X X|     / | X X|X   /X ",
"  X.  X| X   d++++++7+7gX/ .|+++++7a  X| f+++++++++dX X.X/ .|   ",
"      X   |  7+++7+a+++++|  X 9++++   X ++9++7+++7+a     |  X | ",
"   |/X   X   ++9b++++79+7+   X     |/X ++7+++++9b+++ X| X    X  ",
"  ..X   X /   7++b++++7a+++ X /.  ..X ++7+b+++7++b+   X.    X /.",
"|  X /|X X  |X 7+++a+7+++++7    |  X b97+7++97+7++ . X     X    ",
"  / X   .  /X . ++++77b++97ab     / 7+++a++b7+a++   XX/  |X./   ",
"   /   /   XXX |.++797+++++7+d .   h+++b+++777+9.  X|X     X   .",
". X|/   .   X     b+77++a+7b+9X . X9b+++a+++7++   / XX  . X/ |X ",
" X|X    |  X|X.  . 7+++++7+b++.  X|7++++9++797.  . X     X /  . ",
"X         X/X/     X++b9+7++++  X  +++++++7b7/     X  /| X      ",
"  |   .  X.XX |X     +++++++++ X  |+++a++7a7X |X               X",
" X.   | X |    / X   .+++a+++bX  X.+++9+7+9    / X   .   .   /X ",
"6666|66||6|666666||6|6|ccccc9c|6|66c9ccccc666|6666|6|6|6666666|6",
".6..X....XX.......X.|...aa9aaaX..6.a7aaaaXX.......X.|.....6...X.",
"X8/88X8XXX888XXXX/X//XXX/e777eX/X8|e77e7XX888XXXX/X//XXX/8XXX8X/",
" . |.   .X   / | X|X  X   777+   . 9a++ .X   / | X|X  X   XXX   ",
"X X |X |X   X     XXX   .  7+.  X Xd97 |X   X     XXX   .  X |  ",
". /    X/  X  / /X X X   .X  . /. /    X/  X  / /X X X   .X  . /",
"   |  X X /     X X|     X.|X      |  X X /     X X|     X.|X   ",
". X .X XXX  |  | .   / |    X/  . X .X XXX  |  | .   / |    X/  ",
"    / X/|  X .XX        X  X   /    / X/|  X .XX        X  X   /",
"   XX| XX       /  |    X X X|X    XX| XX       /  |    X X X|X ",
" X  X    /   X    X  / X./ XXX.  X  X    /   X    X  / X./ XXX. ",
" | X   /   /      |X  X X/X|X    | X   /   /      |X  X X/X|X   ",
"  .|X   |  .  X|     |.X X X   /  .|X   |  .  X|     |.X X X   /",
"     X X  |X /        |   .  |       X X  |X /        |   .  |  ",
"  | X X  XX X  X|   /X X X  X /   | X X  XX X  X|   /X X X  X / ",
" /   |     /      X| /  ./       /   |     /      X| /  ./      ",
"6||6|6|66666|6|6|666|66666666|6666|6|6|6666666|66666|66||6|66666"
};