/* XPM */
static char *picture[] = {
"64 64 10 1 ",
"  c #464D4F",
"X c #383F40",
"+ c #9F7315",
". c #62797E",
"| c #382B2F",
"/ c #536265",
"6 c #2F1C17",
"7 c #889C9E",
"8 c #241B17",
"9 c #1C1C1B",
"777....../..../././././/////./././......................./..../.",
".                                                               ",
".                                                              X",
"/ |.X                                                     |.X   ",
". |XX                                                     |XX  X",
"/ ||                                                      ||    ",
"/                                                              X",
"/                                                              X",
"        88|||||||X|X|||||||||||||||||||||||||||||X|X|XXX       X",
"/       |X                                                     X",
"        X XXXXXXXXXXXXXXXXXXXXXXXXXXXXXXXXXXXXXXXXXXXX /       X",
"/       | XXXXXXXXXXXXXXXXXXXXXXXXXXXXXXXXXXXXXXXXXXXX         X",
"/       X                                              /       |",
"/       | XXXXXXXXXXXXXXXXXXXXXXXXXXXXXXXXXXXXXXXXXXXX /       X",
"/       X                                              /       |",
"/       X                                              /       |",
"        X                                              /       |",
"/       X                                              .       |",
"/       X                                              /       |",
"/       X  ++++++++++++++++++++++++++++++++++++++ +++  .       |",
"/       X  ++++++++++++++++++++++++++++++++++++++ +++  /       6",
"/       X  ++++++++++++++++++++++++++++++++++++++ +++  .       |",
"/       X                                              .       6",
"/       X                                              .       6",
"/        ////...........././..................././..7777       6",
"/                                                              6",
"                                                               6",
"/ |.X                                                     |.X  6",
"  |XX                                                     |XX  6",
"/ ||                                                      ||   6",
"                                                               6",
"|666666|6|6|||||||6|666|6|6666|6||||||||6|6||6|6|666666666666666",
"777....../..../././././/////./././......................./..../.",
".                                                               ",
".                                                              X",
"/ |.X                                                     |.X   ",
". |XX                                                     |XX  X",
"/ ||                                                      ||    ",
"/                                                              X",
"/                                                              X",
"        88|||||||X|X|||||||||||||||||||||||||||||X|X|XXX       X",
"/       |X                                                     X",
"        X XXXXXXXXXXXXXXXXXXXXXXXXXXXXXXXXXXXXX X      /       X",
"/       | XXXXXXXXXXXXXXXXXXXXXXXXXXXXXXXXXXXXXX X X           X",
"/       X                                           X  /       |",
"/       | XXXXXXXXXXXXXXXXXXXXXXXXXXXXXXXXXXXXXXX X /XX/       X",
"/       X                                            /X|X      |",
"/       X                                              /X|XX   6",
"        X                                              / /.X|XX9",
"/       X                                              .    /.X9",
"/       X                                              /       6",
"/       X  ++++++++++++++++++++++++++++++++++++++ +++  .       |",
"/       X  ++++++++++++++++++++++++++++++++++++++ +++  /       6",
"/       X  ++++++++++++++++++++++++++++++++++++++ +++  .       |",
"/       X                                              .       6",
"/       X                                              .       6",
"/        ////...........././..................././..7777       6",
"/                                                              6",
"                                                               6",
"/ |.X                                                     |.X  6",
"  |XX                                                     |XX  6",
"/ ||                                                      ||   6",
"                                                               6",
"|666666|6|6|||||||6|666|6|6666|6||||||||6|6||6|6|666666666666666"
};