/* XPM */
static char *picture[] = {
"64 64 9 1 ",
"  c #4F4C48",
"X c #3E3936",
"+ c #807B6A",
". c #67625C",
"| c #322320",
"/ c #4B3F38",
"6 c #382B2F",
"7 c #28221F",
"8 c #979578",
"888++++++.++++.+.+.+.+......+.+.+.+++++++++++++++++++++++.++++.+",
"+                                                               ",
"+                                                              |",
". X+|                                                     X+|   ",
"+ X||                                                     X||6 |",
". XX6                                                     XX66  ",
".  66                                                     /66  |",
".  6                                                       /6  |",
"        77||||XXX|X|XXXXXXXXXXXX|||||X|XXXXXXXXXX|X|X|||   6/  |",
".       7X                      / /// / /                  /6  |",
"        |                        / ///                 .   //  |",
".       |                         / / /     X               /  |",
".       X                          ///   X X           .   /   X",
".       X                           / / X X            .    /  |",
".       |              X           / / X X             .   /   X",
".       X             X             / X                .    /  X",
".       X            X.            /                   +       X",
".       X           X             /                    +    /  |",
".       X                                              +       X",
".       X         X                  X                 +       |",
".       X        X.               X X                  +       |",
".       X       X+               X X                   +       |",
".       X      X+               XXX                    +       |",
".       |     X+               X /                     +       |",
".       X    X.                 ///                    +       |",
".       |                      / /                     +       |",
".       |                       /                      +       |",
".       |                                              +       X",
".       |                                              +       |",
"        |                                              .       X",
".       |/                                             +       |",
"        X                                              .       X",
".       |/                                             .       X",
"        X                                              .       X",
".       |/ /  X X                                      .       X",
".       X /  X X                                       .       X",
".       X// X X                                        .       X",
".     / X/ X                                           .       X",
".    / /X//                                            .       X",
".   / //X/ /                                           .       X",
"   / /  X//                                            .       X",
".       |/                   X.                        .       X",
"        X           X.      X+                         .       X",
"        |          X.       .                          .       X",
"        X          .      X                            .       X",
"        |         .    X X                             .       X",
"        |             X.X X.                           .       X",
".       |            X+X X+                            .       X",
"        |           X+  X.                             .       X",
".       |          X+  X                               +       |",
".       |         X.          X                        .       X",
".       |        X.          X.                        +       |",
".       |                   X.                         .       X",
".       |                                              +       |",
".       |                                              +       |",
".       |                                              +       |",
".        ....++++++++++++.+.+++++++++++++++++++.+.++++++       |",
".                                                              |",
"                                                               |",
". X+|                                                     X+|  |",
"  X||                                                     X||  |",
". XX                                                      XX6  |",
"                                                           66  |",
"XXXXXXXXXXXXXXXXXXXXXXXXXXXXXXXXXXXXXXXXXXXXXXXXXXXXX|X|X||77|||"
};