/* XPM */
static char *picture[] = {
"64 64 8 1 ",
"  c #4F4C48",
"X c #322320",
"+ c #3E3936",
". c #807B6A",
"| c #28221F",
"/ c #67625C",
"6 c #979578",
"7 c #9F7315",
"666....../..../.666....../..../.666....../..../.666....../..../.",
".               .               .               .               ",
".+.X       +.X +.+.X       +.X +.+.X       +.X +.+.X       +.X +",
"/+XX       +XX  /+XX       +XX  /+XX       +XX  /+XX       +XX  ",
".++ |XX+X+X|+  +.++ |XX+X+X|+  +.++ |XX+X+X|+  +.++ |XX+X+X|+  +",
"/   X+     +   +/   X+     +   +/   X+     +   +/   X+     +   +",
"/   X      /   X/   X      /   X/   X      /   X/   X      /   X",
"/   X    7 /   +/   X    7 /   +/   X    7 /   +/   X    7 /   +",
"/   +      /   X/   +      /   X/   +      /   X/   +      /   X",
"/   X 7777 .   X/   X 7777 .   X/   X 7777 .   X/   X 7777 .   X",
"    +      .   X    +      .   X    +      .   X    +      .   X",
"/    //./...   X/    //./...   X/    //./...   X/    //./...   X",
" +.X       +.X | +.X       +.X | +.X       +.X | +.X       +.X |",
"/+XX       +XX X/+XX       +XX X/+XX       +XX X/+XX       +XX X",
" ++        ++  | ++        ++  | ++        ++  | ++        ++  |",
"X||||||X||||||||X||||||X||||||||X||||||X||||||||X||||||X||||||||",
"666....../..../.666....../..../.666....../..../.666....../..../.",
".               .               .               .               ",
".+.X       +.X +.+.X       +.X +.+.X       +.X +.+.X       +.X +",
"/+XX       +XX  /+XX       +XX  /+XX       +XX  /+XX       +XX  ",
".++ |XX+X+X|+  +.++ |XX+X+X|+  +.++ |XX+X+X|+  +.++ |XX+X+X|+  +",
"/   X+     +   +/   X+     +   +/   X+     +   +/   X+     +   +",
"/   X      /   X/   X      /   X/   X      /   X/   X      /   X",
"/   X    7 /   +/   X    7 /   +/   X    7 /   +/   X    7 /   +",
"/   +      /   X/   +      /   X/   +      /   X/   +      /   X",
"/   X 7777 .   X/   X 7777 .   X/   X 7777 .   X/   X 7777 .   X",
"    +      .   X    +      .   X    +      .   X    +      .   X",
"/    //./...   X/    //./...   X/    //./...   X/    //./...   X",
" +.X       +.X | +.X       +.X | +.X       +.X | +.X       +.X |",
"/+XX       +XX X/+XX       +XX X/+XX       +XX X/+XX       +XX X",
" ++        ++  | ++        ++  | ++        ++  | ++        ++  |",
"X||||||X||||||||X||||||X||||||||X||||||X||||||||X||||||X||||||||",
"666....../..../.666....../..../.666....../..../.666....../..../.",
".               .               .               .               ",
".+.X       +.X +.+.X       +.X +.+.X       +.X +.+.X       +.X +",
"/+XX       +XX  /+XX       +XX  /+XX       +XX  /+XX       +XX  ",
".++ |XX+X+X|+  +.++ |XX+X+X|+  +.++ |XX+X+X|+  +.++ |XX+X+X|+  +",
"/   X+     +   +/   X+     +   +/   X+     +   +/   X+     +   +",
"/   X      /   X/   X      /   X/   X      /   X/   X      /   X",
"/   X      /   +/   X      /   +/   X      /   +/   X      /   +",
"/   +      /   X/   +      /   X/   +      /   X/   +      /   X",
"/   X      .   X/   X      .   X/   X      .   X/   X      .   X",
"    +      .   X    +      .   X    +      .   X    +      .   X",
"/    //./...   X/    //./...   X/    //./...   X/    //./...   X",
" +.X       +.X | +.X       +.X | +.X       +.X | +.X       +.X |",
"/+XX       +XX X/+XX       +XX X/+XX       +XX X/+XX       +XX X",
" ++        ++  | ++        ++  | ++        ++  | ++        ++  |",
"X||||||X||||||||X||||||X||||||||X||||||X||||||||X||||||X||||||||",
"666....../..../.666....../..../.666....../..../.666....../..../.",
".               .               .               .               ",
".+.X       +.X +.+.X       +.X +.+.X       +.X +.+.X       +.X +",
"/+XX       +XX  /+XX       +XX  /+XX       +XX  /+XX       +XX  ",
".++ |XX+X+X|+  +.++ |XX+X+X|+  +.++ |XX+X+X|+  +.++ |XX+X+X|+  +",
"/   X+     +   +/   X+     +   +/   X+     +   +/   X+     +   +",
"/   X      /   X/   X      /   X/   X      /   X/   X      /   X",
"/   X      /   +/   X      /   +/   X      /   +/   X      /   +",
"/   +      /   X/   +      /   X/   +      /   X/   +      /   X",
"/   X      .   X/   X      .   X/   X      .   X/   X      .   X",
"    +      .   X    +      .   X    +      .   X    +      .   X",
"/    //./...   X/    //./...   X/    //./...   X/    //./...   X",
" +.X       +.X | +.X       +.X | +.X       +.X | +.X       +.X |",
"/+XX       +XX X/+XX       +XX X/+XX       +XX X/+XX       +XX X",
" ++        ++  | ++        ++  | ++        ++  | ++        ++  |",
"X||||||X||||||||X||||||X||||||||X||||||X||||||||X||||||X||||||||"
};