/* XPM */
static char *picture[] = {
"64 64 7 1 ",
"  c #4F4C48",
"X c #807B6A",
"+ c #3E3936",
". c #322320",
"| c #67625C",
"/ c #28221F",
"6 c #241B17",
"XXXXXXXXX|XXXX|XXXXXXXXXX|XXXX|XXXXXXXXXX|XXXX|XXXXXXXXXX|XXXX|X",
"X                               X                               ",
"X                              +X                              +",
"| +X.                     +X.   | +X.                     +X.   ",
"X +..                     +..  +X +..                     +..  +",
"| ++                      ++    | ++                      ++    ",
"|                              +|                              +",
"|      66.........+.+.+++      +|      66.........+.+.+++      +",
"       .+                      +       .+                      +",
"|      +                |      +|      +                |      +",
"       .                       +       .                       +",
"|      +                |      +|      +                |      +",
"|      .                |      .|      .                |      .",
"|      +                |      +|      +                |      +",
"|      +                |      .|      +                |      .",
"|      +                |      .|      +                |      .",
"       +                |      .       +                |      .",
"|      +                |      .|      +                |      .",
"|      +                X      .|      +                X      .",
"|      +                |      .|      +                |      .",
"|      +                X      /|      +                X      /",
"|      +                |      .|      +                |      .",
"|      +                X      /|      +                X      /",
"|      +                X      /|      +                X      /",
"|      +                X      /|      +                X      /",
"|       ||||XXXXX|XXXXXXX      /|       ||||XXXXX|XXXXXXX      /",
"                               /                               /",
"| +X.                     +X.  /| +X.                     +X.  /",
"  +..                     +..  /  +..                     +..  /",
"| ++                      ++   /| ++                      ++   /",
"                               /                               /",
".//////././......///////////////.//////././......///////////////",
"XXXXXXXXX|XXXXXXXXXXXXXXX|XXXX|XXXXXXXXXX|XXXXXXXXXXXXXXX|XXXX|X",
"X                               X                               ",
"X+X.                       +X. +X+X.                       +X. +",
"|+..                       +..  |+..                       +..  ",
"X++ /..+.+.......+.+.+++++./+  +X++ /..+.+.......+.+.+++++./+  +",
"|   .+                     +   +|   .+                     +   +",
"|   +                          .|   +                          .",
"|   .                      |   +|   .                      |   +",
"|   +                          .|   +                          .",
"|   .                      |   .|   .                      |   .",
"    .                      |   +|   .                      |   +",
"|   .                      |   +|   .                      |   +",
"    .                      |   +|   .                      |   +",
"|   .                      |   +|   .                      |   +",
"|   .                      |   +|   .                      |   +",
"|   .                      |   +    .                      |   +",
"|   +                      |   +|   +                      |   +",
"|   .                      |   +    .                      |   +",
"|   +                      X   +|   +                      X   +",
"|   .                      |   +|   .                      |   +",
"|   +                      X   +|   +                      X   +",
"|   .                      |   +|   .                      |   +",
"|   +                      X   .|   +                      X   .",
"|   +                      X   +|   +                      X   +",
"|   +                      X   .|   +                      X   .",
"|   +                      X   .|   +                      X   .",
"    +                      X   .    +                      X   .",
"|    ||X|X|X||||||X|X|XXXXXX   .|    ||X|X|X||||||X|X|XXXXXX   .",
" +X.                       +X. / +X.                       +X. /",
"|+..                       +.. .|+..                       +.. .",
" ++                        ++  / ++                        ++  /",
".//////.////////.//////.////////.//////.////////.//////.////////"
};