/* XPM */
static char *picture[] = {
"64 64 14 1 ",
"  c #464D4F",
"X c #383F40",
"+ c #9F7315",
". c #382B2F",
"| c #62797E",
"/ c #536265",
"6 c #000000",
"7 c #2F1C17",
"8 c #1C1C1B",
"9 c #4B3F38",
"a c #889C9E",
"b c #28221F",
"c c #241B17",
"d c #C0A436",
"aaa||||||/||||/|/|/|/|//////|/|/|/|||||||||||||||||||||||/||||/|",
"|                                                               ",
"|                                                              X",
"/ .|X                                                     .|X   ",
"| .XX                                                     .XX  X",
"/ ..                                                      ..    ",
"/                                                              X",
"/                                                              X",
"        cc.......X.X.............................X.X.XXX       X",
"/       .X                                                     X",
"        X XXXXXXXXXXXXXXXXXXXXXXXXXXXXXXXXXXXXXXXXXXXX /       X",
"/       . XXXXXXXXXXXXXXXXXXXXXXXXXXXXXXXXXXXXXXXXXXXX         X",
"/       X XXXXXXXXXXXXXXXXXXXXXXXXXXXXXXXXXXXXXXXXXXXX /       .",
"/       . XXXXXXXXXXXXXXXXXXXXXXXXXXXXXXXXXXXXXXXXXXXX /       X",
"/       X XXXXXXXXXXXXXXXXXXXXXXXXXXXXXXXXXXXXXXXXXXXX /       .",
"/       . XXXXXXXXXXXXXXXXXXXXXXXXXXXXXXXXXXXXXXXXXXXX /       .",
"/       .                                              |       .",
"/       . XXXXXXXXXXXXXXXXXXXXXXXXXXXXXXXXXXXXXXXXXXXX |       X",
"/       .                                              |       .",
"/       .                                              |       X",
"/       .                                              |       X",
"/       .                                              |       X",
"/       .                                              |       X",
"/       .                                              |       X",
"/       .                                              |       X",
"/       .                                              |       X",
"/       .                                              |       X",
"/       .                                              /       .",
"/       .                                              |       X",
"        .          X X                                 /       .",
"/       .         X X                                  /       X",
"        b      XXX X                                   /       .",
"/      Xb   XX../                     X...             /       .",
"       bXXX..|/                      X.99XX            /       .",
"/      b/||/                        X.99  X/           /       .",
"/      .X                           .99 9  /           /       .",
"/      X.                           .X99  |d++   +++   /       .",
"/       .                            /  ||d++++ +++++  /       .",
"/       X                             ||/ ++ ++ ++ ++  /       .",
"/       .                                 ++ ++ ++ ++  /       .",
"        X                                 ++ ++  +++   /       .",
"/       X                                 ++ ++ +++++  /       .",
"        X                                 ++ ++ ++ ++  /       7",
"        X                                 ++ ++ ++ ++  /       .",
"        X                                 +++++ +++++  /       7",
"        X                                  +++   +++   /       .",
"        X                                              /       .",
"/       X  +++ ++++++++++++++++++++++++++++++++++++++  /       .",
"        X  +++ ++++++++++++++++++++++++++++++++++++++  /       .",
"/       X  +++ ++++++++++++++++++++++++++++++++++++++  |       .",
"/       X                                              /       .",
"/       X  ++++++++++++++++++++++++++++++++++++++ +++  |       .",
"/       X  ++++++++++++++++++++++++++++++++++++++ +++  /       7",
"/       X  ++++++++++++++++++++++++++++++++++++++ +++  |       .",
"/       X                                              |       7",
"/       X                                              |       7",
"/        ////||||||||||||/|/|||||||||||||||||||/|/||aaaa       7",
"/                                                              7",
"         X.XX.X.X.......X              X.XX.X.X.......X        7",
"/ .|X   X.66666666686868.X            X.66666666686868.X  .|X  7",
"  .XX   .6666666868686868/            .6666666868686868/  .XX  7",
"/ ..    /8686868686868888/            /8686868686868888/  ..   7",
"         /|////|/|/|||||/              /|////|/|/|||||/        7",
".777777.7.7.......7.777.7.7777.7........7.7..7.7.777777777777777"
};