/* XPM */
static char *picture[] = {
"64 64 26 1 ",
"  c #402515",
"X c #372111",
"+ c #003D48",
". c #003B45",
"| c #2E1B0E",
"/ c #3F2A17",
"6 c #003743",
"7 c #003342",
"8 c #231A15",
"9 c #4F463B",
"a c #353934",
"b c #6A5E4E",
"c c #00273A",
"d c #004049",
"e c #281305",
"f c #4F331A",
"g c #7E7050",
"h c #86785B",
"i c #696654",
"j c #162427",
"k c #1C3B35",
"l c #1B322E",
"m c #443E2A",
"n c #A9A27E",
"o c #A09669",
"p c #3C2410",
"/   X /     X   X    X  |/    X /   X XX|X  X   X    X  |/    X ",
"|  X   | X X  XX ||   X       |/|  XX|Xa8X X  XX ||   X       |/",
" X X/   X X/    ||X/ X X/X   XX  X XXab8X X/     X / X X/X   XX ",
"  X| XX|XX     |bh9XX X|XX |/     X|X98X X          X X|XX |/a8 ",
"     |a8X /  X|g9ba|     / XX /       X  a8  X   X |     /  X8| ",
"X||/XX8X X    |9ba8| X/ XX9aXX     /XX   8|    /X    X/ X    X  ",
"|ba|X X X X|X X|98eX  XXa8ae| X|  ||X   X X   X  X    X|    X X|",
"X98X X/X|og9X| X e|X X X8XX|X   /  X X/X X  /X X   | X     X    ",
" X| X  |ngbihaX     XXX  /X|X     X X   |  XX |X    XXX  /X|X   ",
"   X   |ggb9i9X/|X X/X     X   |   X|88|XX XXX /| X|/X     X   |",
"| X/X |bib99aeX|h9X XX  | XX /X | X|jc777lX X     ba|X  | XX /X ",
" X/X  |ab9iae|||a8XX     X X  | X|8c777777lX/XX|X|98X    X X  | ",
"X     |8ib98|X  XX X  X/ X    X|8cc776+++67lX|a8XXX|  X/ X      ",
"  /   X89a8eX /X             X|jc7776+6++.67lX8X               X",
" X|   X|e8X    X X   |   |  |Xcc766+++d+.+d67  X X   |   |   XX ",
"    XX XXX      X  /  X  X|X8c776+++..+.++++6X  X  /  a8 X/X  / ",
"/  /      |    | X | X/XX88cc766d++d++++++++6l | X | X8|9aX X X ",
"  X |     /   X  /  |XX8cc77766+++.+++.+++d++6X  /  X   aeX     ",
" | /|   |X   X / X/|X8cc7776.++++d+d+.+.+.+++6 / X/XXX|XX XXX   ",
"X X /X /X   X   XX8cc7776+6.+d++.+.+.+.+++++.+X|  XX|bh9X  X /  ",
"| X    XX  X  XX8cc776+6+6.++++.+.+.....+++.+7g9XX |9ba8baX  | X",
"   /  X X X   X8c776+++++.+d.+++.......+++.+7b9b9 X/|98e98|/X   ",
"| X |X XXX  /X|c776++.+d++++..+.........+.++7hba8e   Xe|    XX  ",
"    X XX/  XX|j776++++++.++.+.+..6.66..+d++.79a8e|      X  X   X",
"   XX/ XX   X8c76++d++++.+.+.+..6.6666...++++7c|XX /    X X X/X ",
" X  X    X X|j76++.++.+.+.+....6.66666..+.+++.7cc X  X X|X XXX| ",
" / X|| X   X8c7+6+d.++.+...6.6666676766..+.++++.7c/X  X XXX/X   ",
"  ||g9| /  ||c76+++++.+...6.6667676766....+.++.d.7/  /|X X X   X",
"  |b9b9X  /X8c7+++.+++...6.666767776766..+.+..+++./   /   |  /  ",
"  |hba8e XX |c7.d.++..+...666767677766.6..+.+++.d.l/XX X X  X X ",
" XX9a8e|   XXc7+.+.d+.+..6.666667677766.6..+.+++++k/ X  |X      ",
"  XXX|XX  | Xj76+.++++.+..6.6.6.67676766....+.+d+..// X /     X ",
"/   X /     XX77.++++.+++......6.66677766..+.+++.+.f/X  |/    X ",
"|  X   | X X Xc776.+++.+++++.+....6767666...+...+6.f/ X       |/",
" X X/   X X/  Xc776d+.+.d.+++.+..6.677766.6..++++..f/X X/X   XX ",
" XX|X X/ X     /c776.+.6..++d+.+..66676766..+.++++.f  X|XX |/   ",
" |a8X X   /  X   Xc7776++d+++.+.+..676666.6..++++..f/  X|X  X / ",
" X8XXX   X     /XbaXcccc76++++.+..6.6.66.6..+.+d.+.f/X/XabX  X  ",
"  X|X   X X   X X98||og9jc7+.++++..6.6..6..+.+.++.kf/ XX98  X|X|",
"/  X X/X X  /X XpXeXngbihac7++++d+........+.+++..+m /X   X Xba| ",
"  X X   |  XX |    Xggb9i9jc6+++++++.+.+.+.+.+d+.kf/XXX|XXX|98X ",
"   X   X   XXX /| Xbib99ae8c6++d+++.+.+.++++..+.6k/ /X|gbh|XX| |",
"| X/X   |   X     Xab9iae||7.d.+d+.d.+++++++.++.kf  XXX9baXX /X ",
" X/X    /  X/X|  ||8ib98|XXc+.d++.d.++++d++.d.6.f  X  |988eX  | ",
"X         XXXX    X89a8eXXX86+.+.+++++++++.....f// X  X/|eX     ",
"  /   |  X|XX /X  X|e8X    X86+.++.+.+.++.+...m /        X     X",
" X|   / X /    X X  XX   |  /X7...d.++d+.+d+.m/X X   |   |   XX ",
"    XX X        X  /  X  X/X //ffk....+.++..f/  X  /  X  X/X  / ",
"/  /      |    | X | X/X  X X  ///ffk6....m /  | X | X/X  X X X ",
"  X |     /   X  /  X    XX      / ///fff/ /  X  /  X    XX     ",
" | /|   |X ||X / X/X  X   XXX    | / /// X   X / X/X  X   XXX   ",
"X X /X /X |bh9X   XXX   |  X /  X X /X /X   X     XXX   |  X /  ",
"| X    XX|g9baXXXX X X   |X  | X| X    XX  X  X XX X X   |X  | X",
"   /  X X|9ba8| X X/     X|/X      /  X X X     XX|/     X|/X   ",
"| X |X XXX|98eX/a8   X /    ab  | X |X XXX  /  / 9a| X /    XX  ",
"    X XX/  Xe|XX8X      X  X98 X    X XX/  X |XX aeX X| X  X   X",
"   XX/ XX   |baXX  /    X9a |XXX   XX/ XX       XX|/ ba|X X X/X ",
" X  X    X  X98|  X  X X|ae|gbh|XX  X9a  X   X    X  98X|X XXX| ",
" / X   X   X      /X  X XXXX9baX / X ae|X  X      /XXX| XXX/X   ",
" a8/X   /  |  X/     /|X X |988e  |/X|bh9X |  X/     /|X X X   X",
" 8X  X X  /X X        /   |  |eX    |g9ba /X X        /   |  /  ",
"  / X X  XX X  X/   XX X X  X X   / |9ba8|X X  X/   XX X X  X X ",
" X   /     X      X/ X  |X       X   |98eX X      X/ X  |X      ",
"  X X     |  / | X    X /     X   X X  e|X|  / | X    X /     X "
};