/* XPM */
static char *picture[] = {
"64 64 13 1 ",
"  c #464D4F",
"X c #383F40",
"+ c #382B2F",
". c #62797E",
"| c #536265",
"/ c #141413",
"6 c #28221F",
"7 c #2F3233",
"8 c #2F1C17",
"9 c #000000",
"a c #4B3F38",
"b c #3F4748",
"c c #6C5256",
"                 X    XX777/9XXXX                          X X  ",
"XXXXXXXXXXXXXXXXXXXXXXX7777/9X777XXXXXXXXXXXXXXXXXXXXXXXXXXXXXXX",
"XXXXXXXXXXXXXXXXXXXXXXX7776/9X777XXXXXXXXXXXXXXXXXXXXXXXXXXXXXXX",
"XXXX888888+8+++++++XXXX7777/9X777XXX888888888888+8++++888++XXXXX",
"XXX8+XXXXXXXXXXXXXXXXXX7776/9X777XX8+XXXXXXXXXXXXXXXXXXXXXXXXXXX",
"XXX8XXXXXXXXXXXXXXXX XX7776/9X777XX8XXXXXXXXXXXXXXXXXXXXXXXX XXX",
"XXX8XXXXXXXXXXXXXXXX XX7776/9X777XX8XXXXXXXXXXXXXXXXXXXXXXXX XXX",
"   +                |  XXX76/|XXX  +                        |   ",
"XXX8XXXXXXXXXXXXXXXX XX7776/9X777XX8XXXXXXXXXXXXXXXXXXXXXXXX XXX",
"   +                |  XXX76/|XXX  X                        |   ",
"   +                .  XXX7/9|XXX  X                        .   ",
"   +        X       |  XXX7/9|XXX                           |   ",
"   +       X.       .  XXX76/|XXX    |||.|....|             .   ",
"   +      +|        .  XXX76/|XXX              |            .   ",
"   +     +|         .  XXX76/|XXX               |           .   ",
"   X    +a          .  XXX7// XXXXXXXXXXXXXXXb   |          .   ",
"   X    aa          .  XXX76/|XXXXXXXXXXXXXXXXX   |         .   ",
"        aa         |.  XXXX// XXXXXXXXXXXXXXXXXb   |       |.   ",
"     ||||c.|.|......   XXX76/        X X XXXXXXX    |.......    ",
"        a               |XX6666666666/6///97XXXX                ",
"        aa            X|XXX766666666/6/6///9 X X                ",
"    ++++88+X+XXXXXX   |XXXXXXXXXXXXXXX   X/9  XX   ++++XXXX     ",
"   +X   aa          X  bXXXXXXXXXXXXX X   /9   X  +             ",
"   +     a       X X    XXXXXXXXXXXXXX X X/9| X   +         |   ",
"   +    a       X|X X|   bXXXXXXXXXXXXX   /9|  X  +         |   ",
"   +     a     X.X X. |               XX X/9| X   +         |   ",
"   X          X.  X|   |              X  X/9.  X  +         .   ",
"   +     a    |  X      X++++++XXX     X X/9. X   +X        |   ",
"   X                                  X  X/9.     +|        .   ",
"   +                               |     X//|    X          .   ",
"   X                               |  X  X6/.   X.+         .   ",
"   +                               |     X/6|   |X     X.   .   ",
"   +                               |     X6/|   X.X   X|    |   ",
"   +                               .      /6|   | X  +|     .   ",
"   +               X+++            .  X  X6/|  X  X +a      .   ",
"   +              X+aaXX          |.      /6|     X aa      .   ",
"   +             X+aa  X|..........   X X 66|  X  X a       .   ",
"   X            .+aa a  |              X  /6|     X  a      .   ",
"   +           . +Xaa  .|        X    X X 66   X  X a       .   ",
"   X          .   b  b| XXXXXXX 67XXXX X  /6  X   X         .   ",
"   X         .   X||| XXXXXXX |96XXXXXX   66 X X  X         .   ",
"            .   bXXXXXXXXXX |9//7XXXXX X  /6  XX           |.   ",
"     ||.....    XXXXXXX  ||9/6/6/77X XX  X66 XXX    |||.....    ",
"                XXXX7//66/666/6/699999//6666XXXX                ",
"                XXXX/9/6/666/6/6///////6/667XXXX                ",
"    ++++XXXX    XXXX/9XXXXXXXXXXXXXXXXXXXXXXXXXX    +++XXXX     ",
"   +X           XXX7/9XXXXXXXXXXXXXXXXXXXXXXXXXb   +            ",
"   +         |  XXXX/9 XXXXXXXXXXXXXXXXXXXXXXXX   +         |   ",
"   +     +X  |  XXX7/9XXXXXXXXXXXXXXXXXXXXXXXb   +          |   ",
"   +    +a | |  XXX7/9 XXX                      +           |   ",
"   X    X .| .  XXX7/9|XXX                     X            .   ",
"   +     |   .  XXX76/|XXX   ++++++++++X+XXXXXX             |   ",
"   X         .  XXX7/9|XXX  +X                              .   ",
"   X         .  XXX76/ XXX  +                               .   ",
"   X         .  XXX7/9|XXX  +                               .   ",
"   +         |  XXX66/XXXX  +                               .   ",
"   X         .  XXX76/ XXX  X                               .   ",
"   X         .  XXX66/XXXX  X                               .   ",
"   X         .  XXX6//XXXX  X                               .   ",
"            |.  XXX66/XXXX                                 |.   ",
"     ||||....   XXX6//XXXX    ||||||.....|.|................    ",
"                XXX66/XXXX                                      ",
"                XXX666XXXX                                      ",
"+888888+8+8+++++888////8////+/++++++++++8+8++8+8+888888+8+8+++++"
};