/* XPM */
static char *picture[] = {
"64 64 26 1 ",
"  c #464D4F",
"X c #383F40",
"+ c #382B2F",
". c #911C1B",
"| c #62797E",
"/ c #536265",
"6 c #4B3F38",
"7 c #2F1C17",
"8 c #9FA7A1",
"9 c #141413",
"a c #AE260B",
"b c #621823",
"c c #191B1D",
"d c #8C948F",
"e c #792429",
"f c #3F4748",
"g c #6C5256",
"h c #889C9E",
"i c #C02200",
"j c #242A2B",
"k c #2B1F23",
"l c #0C3A00",
"m c #66A916",
"n c #238F00",
"o c #BD541F",
"p c #146836",
"               X X X            X                          X X  ",
"XXXXXXXXXXXXXXXXXXXXXXXXXXXXXXXXXXXXXXXXXXXXXXXXXXXXXXXXXXXXXXXX",
"XXXXXXXXXXXXXXXXXXXXXXXXXXXXXXXXXXXXXXXXXXXXXXXXXXXXXXXXXXXXXXXX",
"XXX+777777+7+7++++XXXXX777777777777777+7+7+7++++++++++XXXXXXXXXX",
"XXX7XXXXXXXXXXXXXXXXXX7XXXXXXXXXXXXXXXXXXXXXXXXXXXXXXXXXXX7X XXX",
"XXX7XXXXXXXXXXXXX/XXX7XXXXXXXXXXXXXXXXXXXXXXXXXXXXXXX/XXX7XX XXX",
"XXX7XXXXXXXXXXXX/XXX7XXXXXXXXXXXXXXXXXXXXXXXXXXXXXXX/XXX7XXX XXX",
"   +           |   +                               /   +    /   ",
"XXX7XXXXXXXXXX|XXX7XXXXXXXXXXXXXXXXXXXXXXXXXXXXXXX|XXX7XXXXX XXX",
"   +         |   +                               |   +      /   ",
"   +        |   +                   /           /   +       |   ",
"   X       |   +                   /X          |   +        /   ",
"   +      |   +                   |+6         |   +         |   ",
"   X     |   +                   |+66        |   +          |   ",
"   X    |   +                     66        |   +           |   ",
"   X   |   X                      666      |   X            |   ",
"   X  |   X                       66      |   X             |   ",
"   X /                            66     |                 /|   ",
"          ////////////|/|/||||||gggggg||/     //|/||||||||||    ",
"                                 66666                          ",
"                                  6666                          ",
"                                  6666                          ",
"    +++++++++++++++++++X+X+X+X++++kk+k++++++++++++X+XX          ",
"   +X                             66 66                   X /   ",
"   +                              6  6               /   X  /   ",
"   +  d8888888888df  /hh|||//X/   6  6              /   X   /   ",
"   +  88X9XX898X88X  h       9 X  66 6             /   X    /   ",
"   +  888888888888X  h jcc9c 9 X  6               /   X     /   ",
"   +  88X899XX8888X  | ccln9 c X  66 6           |   +      /   ",
"   +  d8888888888dX  | c999c 9 X  6             |   +       |   ",
"   X  fXXXXXXXXXXXf  |       c +   6           |   +        /   ",
"   +                 / a a o c X  6           |   +         |   ",
"   X  d888888df      |       j +             |   +          |   ",
"   X  889X8X88X      / e m p j +  6         |   X           |   ",
"   X  d888888dX      /       c +           |   X            |   ",
"   X  fXXXXXXXf       XX+++++7+X  6       |   X             |   ",
"                                         |                 /|   ",
"     //////|/|/||||||||||||||||||/|/|/||/     ///|/|/|||||||    ",
"                                                                ",
"                                                                ",
"                                                                ",
"    ++++++X+X+XXXX     X++++++++++++++++++++++++X+X+XXXXXXX     ",
"   +X                 +                                         ",
"...b.............a...b..........................aa..........a...",
"...b............a...b..........................abee.........a...",
"...b...........i...b..........................abee.e........i...",
"...b..........i...b..........................abee...a.......a...",
"   +         |   +                           +66 6  /       |   ",
"6  +        |   +                            +X66  |/       /   ",
"   X       |   +                              /  ||/        |   ",
"6  +      |   +                                ||/   +X     |   ",
"   X     |   +                                      +6 /    |   ",
"6  X    |   +                                       X |/    |   ",
"6  X   |   X                                         //     |  6",
"66 X  |   X                                                 |   ",
"6  X /            ++XXX6                                   /|  6",
"66        ///////X666 6 |/||||||||||/|||||||||||/|/|||||||||  6 ",
"6                 /////|                                       6",
"66     6                                                      66",
"66 6                                                      6 6 66",
"++++X+XXXXXXXXXXXXXXXXXXXXXXXXXXXXXXXXXXXXXXX+XXXXXXXXX+X+X+XX+7",
"7+++++XXX+XXX+XXXXXXXX+X+XXXXXXXXXXXXXXXXXXXX++XXXXXX+X++X+++X++",
"7+77+++X++++X++X+X++++X+X+X+XXXXXXXXXXXXXX+X++7++X+X+X++X++77++7",
"7777777+7+7+++++777999979999+9++++++++++7+7++777+777777+7+7+7777"
};