/* XPM */
static char *picture[] = {
"64 64 10 1 ",
"  c #4F4C3F",
"X c #373C2C",
"+ c #322E1D",
". c #1C1C1B",
"| c #818556",
"/ c #66684C",
"6 c #141413",
"7 c #000000",
"8 c #44402F",
"9 c #434436",
"                 X    XX+++67XXXX                          X X  ",
"XXXXXXXXXXXXXXXXXXXXXXX++++67X+++XXXXXXXXXXXXXXXXXXXXXXXXXXXXXXX",
"XXXXXXXXXXXXXXXXXXXXXXX+++.67X+++XXXXXXXXXXXXXXXXXXXXXXXXXXXXXXX",
"XXXX......+.+++++++XXXX++++67X+++XXX............+.++++...++XXXXX",
"XXX.+XXXXXXXXXXXXXXXXXX+++.67X+++XX.+XXXXXXXXXXXXXXXXXXXXXXXXXXX",
"XXX.XXXXXXXXXXXXXXXX XX+++.67X+++XX.XXXXXXXXXXXXXXXXXXXXXXXX XXX",
"XXX.XXXXXXXXXXXXXXXX XX+++.67X+++XX.XXXXXXXXXXXXXXXXXXXXXXXX XXX",
"   +                /  XXX+.6/XXX  +                        /   ",
"XXX.XXXXXXXXXXXXXXXX XX+++.67X+++XX.XXXXXXXXXXXXXXXXXXXXXXXX XXX",
"   +                /  XXX+.6/XXX  X                        /   ",
"   +                |  XXX+67/XXX  X                        |   ",
"   +        X       /  XXX+67/XXX                           /   ",
"   +       X|       |  XXX+.6/XXX    ///|/||||/             |   ",
"   +      +/        |  XXX+.6/XXX              /            |   ",
"   +     +/         |  XXX+.6/XXX               /           |   ",
"   X    +8          |  XXX+66 XXXXXXXXXXXXXXX9   /          |   ",
"   X    88          |  XXX+.6/XXXXXXXXXXXXXXXXX   /         |   ",
"        88         /|  XXXX66 XXXXXXXXXXXXXXXXX9   /       /|   ",
"     //// |/|/||||||   XXX+.6        X X XXXXXXX    /|||||||    ",
"        8               /XX..........6.6667+XXXX                ",
"        88            X/XXX+........6.6.6667 X X                ",
"    ++++..+X+XXXXXX   /XXXXXXXXXXXXXXX   X67  XX   ++++XXXX     ",
"   +X   88          X  9XXXXXXXXXXXXX X   67   X  +             ",
"   +     8       X X    XXXXXXXXXXXXXX X X67/ X   +         /   ",
"   +    8       X/X X/   9XXXXXXXXXXXXX   67/  X  +         /   ",
"   +     8     X|X X| /               XX X67/ X   +         /   ",
"   X          X|  X/   /              X  X67|  X  +         |   ",
"   +     8    /  X      X++++++XXX     X X67| X   +X        /   ",
"   X                                  X  X67|     +/        |   ",
"   +                               /     X66/    X          |   ",
"   X                               /  X  X.6|   X|+         |   ",
"   +                               /     X6./   /X     X|   |   ",
"   +                               /     X.6/   X|X   X/    /   ",
"   +                               |      6./   / X  +/     |   ",
"   +               X+++            |  X  X.6/  X  X +8      |   ",
"   +              X+88XX          /|      6./     X 88      |   ",
"   +             X+88  X/||||||||||   X X ../  X  X 8       |   ",
"   X            |+88 8  /              X  6./     X  8      |   ",
"   +           | +X88  |/        X    X X ..   X  X 8       |   ",
"   X          |   9  9/ XXXXXXX .+XXXX X  6.  X   X         |   ",
"   X         |   X/// XXXXXXX /7.XXXXXX   .. X X  X         |   ",
"            |   9XXXXXXXXXX /766+XXXXX X  6.  XX           /|   ",
"     //|||||    XXXXXXX  //76.6.6++X XX  X.. XXX    ///|||||    ",
"                XXXX+66..6...6.6.7777766....XXXX                ",
"                XXXX676.6...6.6.6666666.6..+XXXX                ",
"    ++++XXXX    XXXX67XXXXXXXXXXXXXXXXXXXXXXXXXX    +++XXXX     ",
"   +X           XXX+67XXXXXXXXXXXXXXXXXXXXXXXXX9   +            ",
"   +         /  XXXX67 XXXXXXXXXXXXXXXXXXXXXXXX   +         /   ",
"   +     +X  /  XXX+67XXXXXXXXXXXXXXXXXXXXXXX9   +          /   ",
"   +    +8 / /  XXX+67 XXX                      +           /   ",
"   X    X |/ |  XXX+67/XXX                     X            |   ",
"   +     /   |  XXX+.6/XXX   ++++++++++X+XXXXXX             /   ",
"   X         |  XXX+67/XXX  +X                              |   ",
"   X         |  XXX+.6 XXX  +                               |   ",
"   X         |  XXX+67/XXX  +                               |   ",
"   +         /  XXX..6XXXX  +                               |   ",
"   X         |  XXX+.6 XXX  X                               |   ",
"   X         |  XXX..6XXXX  X                               |   ",
"   X         |  XXX.66XXXX  X                               |   ",
"            /|  XXX..6XXXX                                 /|   ",
"     ////||||   XXX.66XXXX    //////|||||/|/||||||||||||||||    ",
"                XXX..6XXXX                                      ",
"                XXX...XXXX                                      ",
"+......+.+.+++++...6666.6666+6++++++++++.+.++.+.+......+.+.+++++"
};