/* XPM */
static char *picture[] = {
"64 64 9 1 ",
"  c #464D4F",
"X c #382B2F",
"+ c #536265",
". c #62797E",
"| c #383F40",
"/ c #2F1C17",
"6 c #4B3F38",
"7 c #28221F",
"8 c #889C9E",
".+.+.7++6+668....+.++.6+6+668....+.+.7++6+668....+.++.6+6+668...",
"  |  .X    X.         +    X.     |  .X    X.         +    X.   ",
" |    +    6.              6.    |    +    6.              6.   ",
"        .  X.  .   |    .  X+  .        .  X.  .   |    .  X+  .",
"       X   X+ X   X    X   X. X        X   X+ X   X    X   X. X ",
"    X+     X.    X+| |     X+       X+     X.    X+| |     X+   ",
" | X+     |X+   |.|||+ +X |X.    | X+     |X+   |.|||+ +X |X.   ",
"7+|+     | /.  |+  X+   +| /+   7+|+     | /.  |+  X+   +| /+   ",
".|      7+|X+     7.  |   |X+  X.|      7+|X+     7.  |   |X+  X",
" +X    X.  /+    X.  |   X+/+ |+ +X    X.  /+    X.  |   X+/+ |+",
"  .|  |.   /6   |+      |+ X+|    .|  |.   /6   |+      |+ X+|  ",
"   +  +    /+      +X      /+      +  +    /+      +X      /+   ",
"    |   .  /6  .    .X  .  /6  .    |   .  /6  .    .X  .  /6  .",
"   |+  X   /6 X      + X   /+ X    |+  X   /6 X      + X   /+ X ",
"  |        /6              /6     |        /6              /6   ",
"XXXX/X//////6X6XXXXX/X//////6X6XXXXX/X//////6X6XXXXX/X//////6X6X",
"6+668.....+.+|+++6668....+.|.+++6+668.....+.+|+++6668....+.|.+++",
"   X.       |+     X.     X.       X.       |+     X.     X.    ",
"   6.      |.      6.    |+        6.      |.      6.    |+     ",
".  X.  .  |.    .  X+  .        .  X.  .  |.    .  X+  .        ",
"   /+ X   +    X   6. X        X   /+ X   +    X   6. X        X",
"   X.  +X          X+       X+     X.  +X          X+       X+  ",
"   /+X |.X   | |+  X.    | 7+  |   /+X |.X   | |+  X.    | 7+  |",
"   X7+   +  | X+   X+     7.  |    X7+   +  | X+   X+     7.  | ",
"   7.     +| 7.   |X+    X.  X     7.     +| 7.   |X+    X.  X  ",
"  X +     ||X.   | /+   |+  |+7   X +     ||X.   | /+   |+  |+7 ",
" X+X+      |+      X+  |   | |.X X+X+      |+      X+  |   | |.X",
"   /6     |        /+       |  +   /6     |        /+       |  +",
".  /+  . |      .  X6  . | |    .  /+  . |      .  X6  . | |    ",
"   /6 X   +X   X   /+ X  +X    X   /6 X   +X   X   /+ X  +X    X",
"   /6      .7      /6    |+X       /6      .7      /6    |+X    ",
"////6X6XXXX/ 7X/////6X6X6X| 7XX/////6X6XXXX/ 7X/////6X6X6X| 7XX/",
".+.+.7++6+668....+.++.6+6+668....+.+.7++6+668....+.++.6+6+668...",
"  |  .X    X.         +    X.     |  .X    X.         +    X.   ",
" |    +    6.              6.    |    +    6.              6.   ",
"        .  X.  .   |    .  X+  .        .  X.  .   |    .  X+  .",
"       X   X+ X   X    X   X. X        X   X+ X   X    X   X. X ",
"    X+     X.    X+| |     X+       X+     X.    X+| |     X+   ",
" | X+     |X+   |.|||+ +X |X.    | X+     |X+   |.|||+ +X |X.   ",
"7+|+     | /.  |+  X+   +| /+   7+|+     | /.  |+  X+   +| /+   ",
".|      7+|X+     7.  |   |X+  X.|      7+|X+     7.  |   |X+  X",
" +X    X.  /+    X.  |   X+/+ |+ +X    X.  /+    X.  |   X+/+ |+",
"  .|  |.   /6   |+      |+ X+|    .|  |.   /6   |+      |+ X+|  ",
"   +  +    /+      +X      /+      +  +    /+      +X      /+   ",
"    |   .  /6  .    .X  .  /6  .    |   .  /6  .    .X  .  /6  .",
"   |+  X   /6 X      + X   /+ X    |+  X   /6 X      + X   /+ X ",
"  |        /6              /6     |        /6              /6   ",
"XXXX/X//////6X6XXXXX/X//////6X6XXXXX/X//////6X6XXXXX/X//////6X6X",
"6+668.....+.+|+++6668....+.|.+++6+668.....+.+|+++6668....+.|.+++",
"   X.       |+     X.     X.       X.       |+     X.     X.    ",
"   6.      |.      6.    |+        6.      |.      6.    |+     ",
".  X.  .  |.    .  X+  .        .  X.  .  |.    .  X+  .        ",
"   /+ X   +    X   6. X        X   /+ X   +    X   6. X        X",
"   X.  +X          X+       X+     X.  +X          X+       X+  ",
"   /+X |.X   | |+  X.    | 7+  |   /+X |.X   | |+  X.    | 7+  |",
"   X7+   +  | X+   X+     7.  |    X7+   +  | X+   X+     7.  | ",
"   7.     +| 7.   |X+    X.  X     7.     +| 7.   |X+    X.  X  ",
"  X +     ||X.   | /+   |+  |+7   X +     ||X.   | /+   |+  |+7 ",
" X+X+      |+      X+  |   | |.X X+X+      |+      X+  |   | |.X",
"   /6     |        /+       |  +   /6     |        /+       |  +",
".  /+  . |      .  X6  . | |    .  /+  . |      .  X6  . | |    ",
"   /6 X   +X   X   /+ X  +X    X   /6 X   +X   X   /+ X  +X    X",
"   /6      .7      /6    |+X       /6      .7      /6    |+X    ",
"////6X6XXXX/ 7X/////6X6X6X| 7XX/////6X6XXXX/ 7X/////6X6X6X| 7XX/"
};