/* XPM */
static char *picture[] = {
"64 64 14 1 ",
"  c #1C1C1B",
"X c #464D4F",
"+ c #28221F",
". c #141413",
"| c #382B2F",
"/ c #536265",
"6 c #62797E",
"7 c #181817",
"8 c #383F40",
"9 c #211F1D",
"a c #2F1C17",
"b c #4B3F38",
"c c #000000",
"d c #889C9E",
"d6666/6//6b/b/bbd6666/6/6+//b/bbd6666/6//6b/b/bbd6666/6/6+//b/bb",
"6XXXXXXXXX/XXXX|6XXXXX8XX6|XXXX|6XXXXXXXXX/XXXX|6XXXXX8XX6|XXXX|",
"6XXXXXXXXXXXXXXb6XXXX8XXXX/XXXXb6XXXXXXXXXXXXXXb6XXXX8XXXX/XXXXb",
"6XX6XXX8XXXX6XX|/XX6XXXXXXXX6XX|6XX6XXX8XXXX6XX|/XX6XXXXXXXX6XX|",
"/X|XXX|XXXX|XXX|6X|XXXXXXXX|XXX|/X|XXX|XXXX|XXX|6X|XXXXXXXX|XXX|",
"6XXXX|/8X8XXXXX|/XXXXXXX|/XXXXX|6XXXX|/8X8XXXXX|/XXXXXXX|/XXXXX|",
"/XXX86888/X/|X8|6XXXX8X|/XXXXX8|/XXX86888/X/|X8|6XXXX8X|/XXXXX8|",
"6XX8/XX|/XXX/8Xa/XXX+/8/XXXXX8Xa6XX8/XX|/XXX/8Xa/XXX+/8/XXXXX8Xa",
"/XXXXX+6XX8XXX8|/XX|68XXXXXX+/8|/XXXXX+6XX8XXX8|/XX|68XXXXXX+/8|",
"/XXXX|6XX8XXX|/a/X8/X/|XXXX|6XXa/XXXX|6XX8XXX|/a/X8/X/|XXXX|6XXa",
"bXXX8/XXXXXX8/X|/8XXXX68XX86XXXabXXX8/XXXXXX8/X|/8XXXX68XX86XXXa",
"/XXXXXX/|XXXXXXa/XXXXXX/XX/XXXXa/XXXXXX/|XXXXXXa/XXXXXX/XX/XXXXa",
"bXX6XXXX6|XX6XXabXX6XXXX8XXX6XXabXX6XXXX6|XX6XXabXX6XXXX8XXX6XXa",
"bX|XXXXXX/X|XXXa/X|XXXX8/XX|XXXabX|XXXXXX/X|XXXa/X|XXXX8/XX|XXXa",
"bXXXXXXXXXXXXXXabXXXXX8XXXXXXXXabXXXXXXXXXXXXXXabXXXXX8XXXXXXXXa",
"b|b|||||a|aaaaaab|b|||||a|aaaaaab|b|||||a|aaaaaab|b|||||a|aaaaaa",
"d66666/6/8///bbbd6666/686///bbbbccccc.c.c....77.d6666/686///bbbb",
"6XXXXXXX8/XXXXX|6XXXXX|6XXXXXXX|c + 7     .   + 6XXXXX|6XXXXXXX|",
"6XXXXXX86XXXXXXb6XXXX8/XXXXXXXXbc7 .7   7+   9 .6XXXX8/XXXXXXXXb",
"6XX6XX86XXXX6XX|/XX6XXXXXXXX6XX|c + .+ .+   +  7/XX6XXXXXXXX6XX|",
"/X|XXX/XXXX|XXXb6X|XXXXXXXX|XXXa. 9    +9  +  976X|XXXXXXXX|XXXa",
"6XX/|XXXXXXXXXX|/XXXXXXX|/XXXXX|c  .  + + 9    7/XXXXXXX|/XXXXX|",
"/|X86|XXX8X8/XX|6XXXX8X+/XX8XXXa. + 7+ +++  .  .6XXXX8X+/XX8XXXa",
"+/XXX/XX8X|/XXX|/XXXXX+6XX8XXXX|.   9 +9.  + 7+./XXXXX+6XX8XXXX|",
"6XXXXX/8X+6XXX8|/XXXX|6XX|XXXXX+.  ++. ++      7/XXXX|6XX|XXXXX+",
"/XXXXX88|6XXX8Xa/XXX8/XX8/+XXX||.+  +    9   + 7/XXX8/XX8/+XXX|X",
"/XXXXXX8/XXXXXX|/XX8XXX8X86|X|/|.. +   9   9   7/XX8XXX8X86|X|/|",
"bXXXXX8XXXXXXXXa/XXXXXXX8XX/XXXa7 7.+   .  7  +./XXXXXXX8XX/XXXa",
"/XX6X8XXXXXX6XX|bXX6X8X8XXXX6XXa.    + +  .+ 9 7bXX6X8X8XXXX6XXa",
"bX|XXX/|XXX|XXXa/X|XX/|XXXX|XXXa7 . + +  ++ +  ./X|XX/|XXXX|XXXa",
"bXXXXXX6+XXXXXXabXXXX8/|XXXXXXXa.9   .     9   7bXXXX8/|XXXXXXXa",
"b|b||||aX+|aaaaab|b|b|8X+||aaaaa7 9 +     7  . .b|b|b|8X+||aaaaa",
"cccc.c.....7.777d6666/6/6+//b/bb.   9 .     9   .7777.77..c.c.cc",
"7  +   7 + +  +.6XXXXX8XX6|XXXX|.  +   7 + +  ++ 77   +       7.",
" 9 +.   + +.   76XXXX8XXXX/XXXXb.9 +.   + +.     9 . + +.+   9+ ",
"  +7  +. +     7/XX6XXXXXXXX6XX|. +7  +. +          + +7+9 7.   ",
"      +   .  + 76X|XXXXXXXX|XXX|.     +   .  +   + 7     .  + . ",
"   .9+   +     ./XXXXXXX|/XXXXX|.  .9+   +     .9    +. +    +  ",
"  77+   + 9   +76XXXX8X|/XXXXX8|. 77+   + 9   +  9    +7    + 97",
".  + 9.+ +  .+ ./XXX+/8/XXXXX8Xa.  + 9.+ +  .+ +   7 +     +    ",
"  9 +   7  9+ 77/XX|68XXXXXX+/8|7 9 +   7  9+ 7     ++9  .+79   ",
"   9   9   +++ ./X8/X/|XXXX|6XXa7  9   9   +++ .7  +.+     +   7",
"7 +.9   7   +  7/8XXXX68XX86XXXa. +.9   7   +     9 ++  7 +9 .+ ",
" +.+    .  +.+77/XXXXXX/XX/XXXXa7+.+    .  +.+7  7 +     + 9  7 ",
"+         +9+9 7bXX6XXXX8XXX6XXa.         +9+9     +  9. +      ",
"  .   7  +7++ ../X|XXXX8/XX|XXXa7 .   7  +7++ .+               +",
" +7   . + .    .bXXXXX8XXXXXXXXa7+7   . + .    9 +   7   7   9+ ",
"    +9 +       7b|b|||||a|aaaaaa7   +9 +        +  .  +  +.+  . ",
".  .      7    .7.7.7...77.7.7.7.  .      7    7 9 7 +.9  + 9 + ",
"  + 7     .   +  .  +    ++       + 7     .   +  .  +    ++     ",
" 7 .7   7+   9 . +.+  +   +++    7 .7   7+   9 . +.+  +   +++   ",
"+ + .+ .+   +     +++   7  + .  + + .+ .+   +     +++   7  + .  ",
"7 9    +9  +  9 9+ + +   7+  7 97 9    +9  +  9 9+ + +   7+  7 9",
"   .  + + 9     + +.     +7.+      .  + + 9     + +.     +7.+   ",
"7 + 7+ +++  .  . 7   9 .    +9  7 + 7+ +++  .  . 7   9 .    +9  ",
"    9 +9.  + 7++        +  +   9    9 +9.  + 7++        +  +   9",
"   ++. ++       9  .    + + +.+    ++. ++       9  .    + + +.+ ",
" +  +    9   +    +  9 +79 +++7  +  +    9   +    +  9 +79 +++7 ",
" . +   9   9      .+  + +9+.+    . +   9   9      .+  + +9+.+   ",
"  7.+   .  7  +.     .7+ + +   9  7.+   .  7  +.     .7+ + +   9",
"     + +  .+ 9        .   7  .       + +  .+ 9        .   7  .  ",
"  . + +  ++ +  +.   9+ + +  + 9   . + +  ++ +  +.   9+ + +  + 9 ",
" 9   .     9      +. 9  79       9   .     9      +. 9  79      ",
"  9 +     7  . 7 +    9 .     +   9 +     7  . 7 +    9 .     + "
};