/* XPM */
static char *picture[] = {
"64 64 11 1 ",
"  c #28261F",
"X c #353929",
"+ c #141413",
". c #1E1E17",
"| c #000000",
"/ c #303126",
"6 c #1C1C1B",
"7 c #28221F",
"8 c #4F4C3F",
"9 c #181817",
"a c #211F1D",
"88XXXXXXXX 8XX..88XXXXXX8 XX.X..88XXXXXXXX 8XX..88XXXXXX8 XX.X..",
"8         X    +8     .  /+    +8         X    +8     .  /+    +",
"X              .X    .    /    .X              .X    .    /    .",
"X  X   .    X  +X  X        X  +X  X   .    X  +X  X        X  +",
"X +   +    +   +X +        +   +X +   +    +   +X +        +   +",
"X    +/. .     +X       +/     +X    +/. .     +X       +/     +",
"X   .X.../ /+ .+X    . +X     .+X   .X.../ /+ .+X    . +X     .+",
"X  ./  +X   /. |X   7X./     . |X  ./  +X   /. |X   7X./     . |",
"X     7X  .   .+X  +X.      7/.+X     7X  .   .+X  +X.      7/.+",
"X    +/  .   +/|X ./ /+    +X  |X    +/  .   +/|X ./ /+    +X  |",
".   ./      ./ +X.    /.  ./   |.   ./      ./ +X.    /.  ./   |",
"X      /+      |X      /  /    |X      /+      |X      /  /    |",
".  X    X+  X  |.  X    .   X  |.  X    X+  X  |.  X    .   X  |",
". +      / +   |X +    .X  +   |. +      / +   |X +    .X  +   |",
".              |.     .        |.              |.     .        |",
".+.+++++|+||||||.+.+++++|+||||||.+.+++++|+||||||.+.+++++|+||||||",
"88XXXXXXX XXX...88XXXXX 8XXX....||||+|+++99+999+88XXXXX 8XXX....",
"8       ./     +8     +/       +|6676669676766798     +/       +",
"X      .X      .X    ./        .+a67+666767+6669X    ./        .",
"X  X  .X    X  +X  X        X  +|679667+67666666X  X        X  +",
"X +   /    +   .X +        +   |+666667666+66766X +        +   |",
"X  /+          +X       +/     ++66+a7666766666+X       +/     +",
"X+ .X+   . ./  +X    . 7X  .   |9699766676a66676X    . 7X  .   |",
" X   X  . +/   +X     7X  .    +66676a+76766+767X     7X  .    +",
"8     /. 7X   .+X    +X  +     996a67666966a7696X    +X  +     7",
"X     ..+X   . |X   ./  ./7   + 666a666a6667776+X   ./  ./7   + ",
"X      ./      +X  .   . .X+ +X+967+a66696667666X  .   . .X+ +X+",
".     .        |X       .  X   |67+76666+667+799X       .  X   |",
"X  X .      X  +.  X . .    /  |76666666667a7a69.  X . .    /  |",
". +   /+   +   |X +  X+    +   |96+66696679776++X +  X+    +   |",
".      /7      |.    ./+       |+79666+676+6666+.    ./+       |",
".+.++++| 7+|||||.+.+.+. 7++|||||++997a6766699+++.+.+.+. 7++|||||",
"88XXXXXXXX 8XX..88XXXXXX8 XX.X..88XXXXXXXX 8XX..88XXXXXX8 XX.X..",
"8         X    +8     .  /+    +8         X    +8     .  /+    +",
"X              .X    .    /    .X              .X    .    /    .",
"X  X   .    X  +X  X        X  +X  X   .    X  +X  X        X  +",
"X +   +    +   +X +        +   +X +   +    +   +X +        +   +",
"X    +/. .     +X       +/     +X    +/. .     +X       +/     +",
"X   .X.../ /+ .+X    . +X     .+X   .X.../ /+ .+X    . +X     .+",
"X  ./  +X   /. |X   7X./     . |X  ./  +X   /. |X   7X./     . |",
"X     7X  .   .+X  +X.      7/.+X     7X  .   .+X  +X.      7/.+",
"X    +/  .   +/|X ./ /+    +X  |X    +/  .   +/|X ./ /+    +X  |",
".   ./      ./ +X.    /.  ./   |.   ./      ./ +X.    /.  ./   |",
"X      /+      |X      /  /    |X      /+      |X      /  /    |",
".  X    X+  X  |.  X    .   X  |.  X    X+  X  |.  X    .   X  |",
". +      / +   |X +    .X  +   |. +      / +   |X +    .X  +   |",
".              |.     .        |.              |.     .        |",
".+.+++++|+||||||.+.+++++|+||||||.+.+++++|+||||||.+.+++++|+||||||",
"88XXXXXXX XXX...88XXXXX 8XXX....88XXXXXXX XXX...88XXXXX 8XXX....",
"8       ./     +8     +/       +8       ./     +8     +/       +",
"X      .X      .X    ./        .X      .X      .X    ./        .",
"X  X  .X    X  +X  X        X  +X  X  .X    X  +X  X        X  +",
"X +   /    +   .X +        +   |X +   /    +   .X +        +   |",
"X  /+          +X       +/     +X  /+          +X       +/     +",
"X+ .X+   . ./  +X    . 7X  .   |X+ .X+   . ./  +X    . 7X  .   |",
" X   X  . +/   +X     7X  .    + X   X  . +/   +X     7X  .    +",
"8     /. 7X   .+X    +X  +     78     /. 7X   .+X    +X  +     7",
"X     ..+X   . |X   ./  ./7   + X     ..+X   . |X   ./  ./7   + ",
"X      ./      +X  .   . .X+ +X+X      ./      +X  .   . .X+ +X+",
".     .        |X       .  X   |.     .        |X       .  X   |",
"X  X .      X  +.  X . .    /  |X  X .      X  +.  X . .    /  |",
". +   /+   +   |X +  X+    +   |. +   /+   +   |X +  X+    +   |",
".      /7      |.    ./+       |.      /7      |.    ./+       |",
".+.++++| 7+|||||.+.+.+. 7++|||||.+.++++| 7+|||||.+.+.+. 7++|||||"
};