/* XPM */
static char *picture[] = {
"64 64 6 1 ",
"  c #002922",
"X c #316A1F",
"+ c #094227",
". c #16582E",
"| c #003422",
"/ c #4C7C11",
" ...++||| +XX|   ||   ||...   +++   ||.++...++XX +... . ++.  XX ",
"XXX++... . ++|... +... XXX|..  ++... |X.+ XXX+   XXX+.   ++.| ++",
"XX++ |XXX .  XXX +XXX XXX ||..  XXX   ||.  XX|.. XX++  ...++|+++",
" |||   XXX  XXX|++XX||/X++|    |XX+++... . +++.  ||| .  XXX ... ",
"++... ++X/  /X|.     || ++  ...||  +XXX|||  +.+ ...+ ..++XXX+XXX",
"X++XXX++|X| || .. ..+..    ++XXX ||XXX+ |... ++XXX+++ . ++X/  XX",
"/ .+XXX  || ... .|XXX+.|...+. XXX++/X+..++XXX +XX  ...  .++| ++X",
"  .. X/  .++X.+ ||+XX+ XXX++.. X/+ ||  ..++XX|||  .|XXX ..|...+|",
"..    X ..+||| .+|++ ||XX|||   ++...    X ++  |...|. XX+.+XXX+|.",
"XXX+   +.+|... .. ...||   |...  XXX  +++ . ... |..+   +++ XX  . ",
" XX++||++ XXX+  .  XXX+.. XXX+++XX ..+.. .. XXX  +...++...|| .. ",
"|| +...|. XX+ |+++  XXX.  XX  +++  +.+XXX  ++XX |XXX ++ XXX |.+|",
".||X X||.. +  ...++ +X/|..+++ ...+ ++  XXX++. |. XX|   .|XXX+|..",
" |XXX    ++  XXX|++ ||X +..+|XXX++ |...+X/+.. || ++... |. X/+XXX",
"++/X   ...  XXX++ ...|  ++  XXX .. XXX+ |X|.  ... .+XXX ..++ XX ",
".+X+..  XXX /X++   XXX  ... /X| .  XX+|.||  |XXX   .+XXX      ||",
". ++.|.. XX|+++|| ++XX XXX  X++       .. +++XXX+...|++X/  ...++.",
"   ||| .++||++ |.. +++ XX    +.+... ++X +++|/X + XXX|| X|. XXX+X",
" ...|   +++ ...  .. ++    ..  .+|XXX++||... X   ++XX|.  ||| XX++",
"XXX+++...+++|XXX  .||... +.+  |.| XX+ |XXX   .+|+++ ..+...+.+   ",
"XX+++XXX |... XXX ||XXX +++...||  ++  XXX +++ .|... .|XXX |X.+||",
" +..XXX |||XXX X/|+XXX +++||XXX  |... /X+ ...+. |X..|+XX    |.+|",
".+.|/X+++|  XX+++||/X+..+  ||XXX XXX|+X+ XXX++   |XXX+  |... |..",
"  || ++...  |+++..  ++.||...||X/+XX||++ |XX  ...++ X/   XXX| XXX",
"|... ++|XXX +++  . ...+.. XXX+++    || |||  .|XXX . X++XXX||XXX|",
".+XXX|.. XXX++...+XXX  .   XX++ +... ...| .. ++XX ..++|/X+++/X +",
".++XX|.  |X/ XXX++XX    ||| ++ +XXX ++XXX |..++||  ++| X|.+    .",
" +++ .    ++XXX++ ||+++...    .+XX|+++|XXX |||  . ...  |..|...  ",
" ...   ... +/X  ...+++XXX +++..   |++|||X/+ ... ..+XXX +X ||XXX ",
"  XXX|++XXX +++ |XXX+XXX ..+..| ++  ...  ++XXX++  ++XXX    ++XXX",
"   XXX++ XX  ... |XX /X  . |||||+  XXX |.|XXX ++...++X/|...++|X/",
"  ||X/+ ||| XXX   ||   +++ .|XXX  XXX+ ..|/X   XXX  ++X++XXX   X",
"..||++ ...++XX|+++    ++...| |XXX /X+++. |X++. XX  .||  ++XX +++",
"XXX   XXX++  |..+... ++XXX|   |X/ X||++  +++. ||++.  ...|.+ +++ ",
" XX  XXX+..   +.  XXX++XX| ...  X+++ ...+..  ...++  XXX .. +... ",
"|+++ /X++ . ... .. XXX .  XXX||...+ XXX +.  |+XXX |XXX++.  XXX |",
"||+++X|    XXX   .+ X/   XXX ||+XXX XX    ...++XXX /X++   XXX ..",
" ...++ +++XXX+ ||+++ X . /X . |++XX|||+++XXX    X/ ++... |/X +X|",
"+ XXX+ .. /X+++ ...++ .. X .++... |||..+XXX+++ ||| +XXX .+++  |+",
"+  XXX|.. X  ++  XXX+ X|+++  XXX ||+++. /X| +++ |.| XX .  +++...",
" |||X/ |.++ ...   XX    |+ +XXX+ |...    |||...  ..+     ...+ XX",
"+ |++X ++.|  XXX|+++ .|...++/X  .++XXX|.. .. XXX+|. ...+XXX .|+X",
"..+++ ++.||   XX+..|  .|XXX++   ..+ XX|.+ .   XX+. XXX++XX  ..++",
"XXX+  ... ... ||+.|...++|XXX  .  . | . | ++++++ . XXX||+++  ++.|",
"|XX |XXX   XXX+|  XXX +   X/|.. +++||   ...+|..+  /X||  ++...+..",
" +++XXX ||. XXX+ /XX++   +++|. + +...| XXX++  .X+|X|.+... |XXX .",
"  ++/X |++..|X/++XX++ ...|..+ ...  XXX /X||..  ++||.+XXX . |XX+ ",
"..|+++ +++ .  X++ |||XXX ||.+XXX| . XXX    .++...|X. XX  ..+++|.",
"X   ...    |||   +++ XX  +  XXX+++ . X/|..+++XXX++||    ||.  |XX",
"  +XXX|| ...+.|...+     .. +/X  ...   X|..++XXX|...  ... ||.+XXX",
".  XX+||XXX++..|XXX |++.. ||+++XXX+++  +.+  /X|XXX+ XXX   ..+/X ",
"X|| +++XXX++  || XXX |+.+ ...++XX+++... +++    XX  XXX+...++|  .",
"+... ++XX|. ...++ X/  |+++ XXX   ++XXX|..+... +++  /X+  XXX   ++",
"  XXX    . XXX+..|  ++...+. XXX   XXX+|.  +XXX++ .+X+ . |XXX ...",
"X +XXX    |XX++|.. ++XXX ..| X/++ /X+++  |||XXX ..++  ..++X/++XX",
"X. +X/ ...+|++|| .|+XXX |||  +++   ||++...|. X/ .  ... |.++|++ X",
"    ++|+XXX  ...   |/X  |...+++...+   XXX +..|X|  . XXX  +...   ",
"... ..|++XX XXX +.+ X|. XXX|++XXX+++|XXX   |++||| |||XX||XXX    ",
"XX  . ||   XXX||.. | .|XXX+.. XX  ++ /X|   ... ||...||  XXX ++..",
"X    ... ||/X|||. |.   XX+ .    |||   |+++XXX . XXX .|++/X|. XXX",
"+  |XXX |.|X++|   ...|+++       ...| +. +|XX . XXX ..+++  .++XX+",
"+.|XXX |.|  +...  |XXX++..+...|  XXX| .. ||    /X  .++...  +++ +",
"..|/X  .|... +XXX|.|X/ ..+++XXX   XXX .||+++...++  |++ XXX|...  ",
"X||X  .. +XXX +XX+..     ++||XX+   X/  |...  XXX| |... +XX||XXX "
};