/* XPM */
static char *picture[] = {
"64 64 7 1 ",
"  c #000000",
"X c #002922",
"+ c #316A1F",
". c #094227",
"| c #003422",
"/ c #16582E",
"6 c #4C7C11",
"X///..|||X.++|XXX||XXX||///XXX...XXX|||..///..++X.///XXX...XX++X",
"+++..///XXX..|///..///.+++|||XX..///X||..X+++.XXX+++.|XXX...|X..",
"++..X|+++XXXX+++..+++|+++|||XXXX+++XXX||XXX++|XXX++..XX///..|...",
"X|||XXX+++XX+++|..++||6+..|XXXX|++...///XXX...XXX|||XXXX+++X///X",
"..///X..+6XX6+|XXXXXX||X..XX///||XX.+++|||XX...X///.XXX..+++.+++",
"+..+++..|+|X||XXX///...XXXX..+++X||+++.X|///X..+++...XXX..+6XX++",
"6X..+++XX||X///XX|+++.X|///..X+++..6+..X..+++X.++XX///XXX..|X..+",
"XXXXX+6XX...//..||.++.X+++..XXX+6.X||XX/...++|||XX||+++XXX|///.|",
"//XXXX+X...|||...|..X||++|||XXX..///XX///|..XX|///||X++...+++.|/",
"+++.XXX...|///X..X///||XXX|///XX+++|  +/. |///X|//.XXX...X++XXXX",
"X++..||..X+++.X   |+++    +++|  6+.        .+++  .///..///||XXXX",
"||X.///|XX++.      .+6    ++.               .++  +++X..X+++X...|",
"/||+++||X...                                     ++|  X||+++..//",
"X|+++XXXX.                                            X||X+6.+++",
"..6+XXX///                                           ++XXX..X++X",
"|.+.XXXX+++                                          +++XXXXXX||",
"XX..|||XX++                                          .+6XX///..|",
"XXX|||X...                                            X+||X+++..",
"X///|XXX...                                            X|||X++..",
"+++...///..                                           .///...XXX",
"++...+++X|                                            +++X|...||",
"X...+++X||                                            ++XXXX...|",
"/..|6+...                                              X|///X.//",
"XX||X..///                                             X+++|X+++",
"|///X..|+++                                           .+++||+++|",
"..+++|||X+++                                         .|6+...6+X.",
"...++||XX|+6                                        .|X+...XXXXX",
"X...XXXXXX                                          /XX...|///XX",
"X///XXX///                                          ++X..X||+++X",
"XX+++|..+++                                         +++XXXX..+++",
"XXX+++..X++                                          +6|///..|+6",
"XX||+6.X||                                           .+..+++XXX+",
"//||..X///                                            XX..++X...",
"+++XXX+++.                                           ///|..X...X",
"X++XX+++.                                           +++X||X.///X",
"|...X6+.                                           +++..XXX+++X|",
"||...+|X                                           6+..XXX+++XXX",
"X///..X..                                           .///X|6+X...",
".X+++.X/.                                          .+++XX...XX..",
".XX+++|||                                           ++XXXX...///",
"X|||+6X|..                                           XXXX///.X++",
".X|..+X...                                             .+++X||.+",
"//...X...                                              .++XXX...",
"+++.XX///                                              ...XX...|",
"|++X|+++XX                                             X..///.X|",
"X...+++X|||                                           ///X|+++XX",
"XX..6+X|...                                          +++XXX|++.X",
"//|...X...                                           ++XXXX...|/",
"+XXX///XXXX                                          XXX|||XX|++",
"XX.+++||X///                                         ///X||..+++",
"XXX++.||+++.                                        +++XXX...6+X",
"|||X...+++.                                        +++.///..|XXX",
".///X..++|                                         6+.XX+++XXX..",
"XX+++XXXX                                          +.XXX|+++X///",
"+X.+++XXXX                                           XX...+6..++",
"+XX.+6X///                                            X|...|..X+",
"XXXX..|.+++                                          ///X.///XXX",
"///XX||..++                                         +++||+++XXXX",
"++XXXX||X                                           6+XX+++X..//",
"+XXXX///X|                                            |.6+||X+++",
".XX|+++X||                                             .XX...++.",
".X|+++X|||                                           |.//XX...X.",
"X||6+XX||///                                         |/+++|///XX",
"X||+XXXXX.+++                                       |./.++||+++X"
};