/* XPM */
static char *picture[] = {
"64 64 15 1 ",
"  c #4F4C3F",
"X c #373C2C",
"+ c #1E1E17",
". c #000000",
"| c #141413",
"/ c #1C1C1B",
"6 c #181817",
"7 c #66684C",
"8 c #322E1D",
"9 c #353929",
"a c #818556",
"b c #28221F",
"c c #28271F",
"d c #28261F",
"e c #38362F",
"................................................................",
"             X X      ..      X X    X X..                 X X  ",
"XXXXXXXXXXXXXXXXXXXXXX.. XXXXXXXXXXXXXX8.|XXXXXXXXXXXXXXXXXXXXXX",
"XXXXXXXXXXXXXXXXXXXXXX./ X7XXXXXXXXXX7X8./XXXXXXXXXXXXXXXXXXXXXX",
"XXXXXXXXXXXXXXXXXXXXXX./ 8XXX888888X8XX8./XXXXXXXXXXXXXXXXXXXXXX",
"XXXXXXXXXXXXXXXXXXXXXX.b XXX88888888XXX8./XXXXXXXXXXXXXXXXXXXXXX",
"XXXXXXXXXXXXXXXXXXXXXX./ XX888////888XX8.bXXXXXXXXXXXXXXXXXXXXXX",
"XXXXXXXXXXXXXXXXXXXXXX.b XX88//XX//88XX8./XXXXXXXXXXXXXXXXXXXXXX",
"                      |/ XX88/X//X/88XX8.b                      ",
"XXXXXXXXXXXXXXXXXXXXXX|| XX88/X//X/88XX8./XXXXXXXXXXXXXXXXXXXXXX",
"                      |/7  XX88XX88XX  X.b                      ",
"                      || XX888////888XX8./                      ",
"                      ||7  7XXXXXXXX7  X.|                      ",
"                      ||7   7XXXXXX7   8./                      ",
"                      |/7     7777     X.|                      ",
"                      /b7              8.|                      ",
"                      // XXX8X8888888888.|                      ",
"                      //||..|............|                      ",
"                      e//b/b/|||/////b/b/e                      ",
"                        a aaaaa||aaa a                          ",
"                               b|a                              ",
"                               ||a                              ",
"                               b|a                              ",
"                               ||a                              ",
"                               ||a                              ",
"                               ||a                              ",
"                               ||a                              ",
"                               ||a                              ",
"                               ||a                              ",
"                               ||a                              ",
"                               ||a                              ",
"                               |ba                              ",
"                               b|a                              ",
"                               |b7                              ",
"                               b|a                              ",
"                               |b7                              ",
"                               bba                              ",
"                               |b7                              ",
"                               bb7                              ",
"                               |b7                              ",
"                               |/7                              ",
"                               |b7                              ",
"                               |/                               ",
"                               |b7                              ",
"                               |/                               ",
"                               ||7                              ",
"                               |/                               ",
"                               ||                               ",
"                               ||                               ",
"                         8aX   ||  8aX                          ",
"                         8XX   ||  8XX                          ",
"                         88    ||  88                           ",
"                               |/                               ",
"7777777777777777777777777777 7 || 7 7777777 7 7 777 7 7 7 777777",
"...............................|/|..............................",
"/..//|.//..//|.//..//|.//..//|.//..//|.//..//|.//..//|.//..//|./",
"999999999c9999c9c9c9c9cccccc9c9c9c99999999999999999999999c9999c9",
"++++++++6++++++++++++++++6++++++6+++++++6+++++++6+6+++++6+++++++",
"+6+++++6+++++++++++++++66++++++++++++++ddd+++++++6+++++6++++++++",
"6++9|++++++9|++++++9|++6++d9|++++++9|+d+d++9|+++6++9|++++++9|+++",
"++6.|+++++6.|+++++6.|+6+6+6.|++6++6.|++d++6.|++6++6.|+++++6.|++6",
"6+66++++++66++++++66+++6++66d+++++66++d+++66++66++66++++++66++6+",
"++++++++++++++++++++++6++++dd++++++++d++++++++6++++++++++++++6+6",
"|666666|6|6|||||||6|6|.|.|....|.||||||||6|6||6|6|666666|6|6|||||"
};