/* XPM */
static char *picture[] = {
"64 64 18 1 ",
"  c #4F4C3F",
"X c #373C2C",
"+ c #1D783C",
". c #1E1E17",
"| c #000000",
"/ c #322E1D",
"6 c #91BA00",
"7 c #979578",
"8 c #181817",
"9 c #66684C",
"a c #141413",
"b c #353929",
"c c #1C1C1B",
"d c #024829",
"e c #28271F",
"f c #28261F",
"g c #807B6A",
"h c #434436",
"||||||||||||||||||||||||||||||||||||||||||||||||||||||||||||||||",
"             X X          X X                              X X  ",
"XXXXXXXXXXXXXXXXXXXXXXXXXXXXXXXXXXXXXXXXXXXXXXXXXXXXXXXXXXXXXXXX",
"XXXXXXXXXXXXXXXXXXXXXXXXXXXXXXXXXXXXXXXXXXXXXXXXXXXXXXXXXXXXXXXX",
"XXXXXXXXXXXXXXXXXXXXXXXXXXXXXXXXXXXXXXXXXXXXXXXXXXXXXXXXXXXXXXXX",
"XXXXXXXXXXXXXXXXXXXXXXXXXXXXXXXXXXXXXXXXXXXXXXXXXXXXXXXXXXXXXXXX",
"XXXXXXXXXXXXXXXXXXXXXXXXXXXXXXXXXXXXXXXXXXXXXXXXXXXXXXXXXXXXXXXX",
"XXXXXXXXXXXXXXXXXXXXXXXXXXXXXXXXXXXXXXXXXXXXXXXXXXXXXXXXXXXXXXXX",
"                                                                ",
"XXXXXXXXXXXXXXXXXXXXXXXXXXXXXXXXXXXXXXXXXXXXXXXXXXXXXXXXXXXXXXXX",
"                                                                ",
"                            X//////X                            ",
"                          X//////////X                          ",
"                         ////cccccc////                         ",
"                        ///ccd++++dcc///                        ",
"                       ///cd++++++++dc///                       ",
"                      X//cd++++++++++dc//X                      ",
"                      //cd++++++++++++dc//                      ",
"                     X//c++++++++++++++c//X                     ",
"                     ///d++++++++++++++d///                     ",
"                     ///++++++++++++++6+///                     ",
"                     ///+++++++++++++66+///                     ",
"                     /X/++++++++++++666+//X                     ",
"                     X//+++++++++++6666+/X/                     ",
"                     /X/++++++++++66666+//X                     ",
"                     X//+++++++++66666++/X/                     ",
"                     /X/++++++++66666+++//X                     ",
"                     XX/+++++++66666++++/XX                     ",
"                     XX/++++++66666+++++/XX                     ",
"                     XX/+++++66666++++6+/XX                     ",
"                     XX/++++66666++++66+/XX                     ",
"                     XX/+++66666++++666+/XX                     ",
"                     XX/++66666++++6666+/XX     g777777777gh    ",
"                     XX/+66666++++6666++/XX     77777777777X    ",
"                     XX/+6666++++6666+++/XX     77Xaa7X7a77X    ",
"                     XX/+666++++6666++++/XX     77777777777X    ",
"                     XX/+66++++6666+++++/XX     77X7XaXX777X    ",
"                     XX/+6++++6666++++++/XX     77777777777X    ",
"                     XX/+++++6666+++++++/XX     77aaXX7a777X    ",
"                     XX/++++6666++++++++/XX     77777777777X    ",
"                     XX/d++6666++++++++d/XX     g777777777gX    ",
"                     XXX/+6666+++++++++/XXX     hXXXXXXXXXXh    ",
"                     9XX/d+66+++++++++d/XX9                     ",
"                      XXX/d++++++++++d/XXX                      ",
"                      9XXX/d++++++++d/XXX9                      ",
"                       9XXX//d++++d//XXX9                       ",
"                        9XXXX//////XXXX9                        ",
"                         9XXXXXXXXXXXX9                         ",
"                           9XXXXXXXX9                           ",
"                             999999                             ",
"                                                                ",
"                                                                ",
"                                                                ",
"9999999999999999999999999999 99999999999999 9 9 999 9 9 9 999999",
"||||||||||||||||||||||||||||||||||||||||||||||||||||||||||||||||",
"c||cca|cc||cca|cc||cca|cc||cca|cc||cca|cc||cca|cc||cca|cc||cca|c",
"bbbbbbbbbebbbbebebebebeeeeeebebebebbbbbbbbbbbbbbbbbbbbbbbebbbbeb",
"........8................8......8.......8.......8.8.....8.......",
".8.....8...............88..............fff.......8.....8........",
"8..ba......ba......ba..8..fba......ba.f.f..ba...8..ba......ba...",
"..8|a.....8|a.....8|a.8.8.8|a..8..8|a..f..8|a..8..8|a.....8|a..8",
"8.88......88......88...8..88f.....88..f...88..88..88......88..8.",
"......................8....ff........f........8..............8.8",
"a888888a8a8aaaaaaa8a8a|a|a||||a|aaaaaaaa8a8aa8a8a888888a8a8aaaaa"
};