/* XPM */
static char *picture[] = {
"64 64 28 1 ",
"  c #594939",
"X c #4F4133",
"+ c #584F3D",
". c #4F4233",
"| c #44392D",
"/ c #48392A",
"6 c #4F463B",
"7 c #463524",
"8 c #403326",
"9 c #382B1E",
"a c #70614C",
"b c #6A5E4E",
"c c #333230",
"d c #483E2D",
"e c #7A6B56",
"f c #635644",
"g c #382D22",
"h c #635744",
"i c #6E6951",
"j c #86785B",
"k c #7E7050",
"l c #554B3C",
"m c #463928",
"n c #A09669",
"o c #392A1B",
"p c #40372C",
"q c #584630",
"r c #635340",
"+   . +     .   X    .  |+    . +   . +XX   .   X    .  |+    . ",
"|  X   | X X  XX ||   X       |+|  X  X79X X  XX ||   X       |+",
" . X+   X X+     . + X X+X  /8X  . X|7b9XXX+     . + X X+X   .X ",
"  X|  X+ X          X X|X. gd/a   X| 69+ X          X X|X. |+e| ",
"      e9  +  X   X |     + /8/da      X  e|  X   X |     +  X|+ ",
"   +.X|  X     +.    X+ X 6o/8/a   +.X   c     +.    X+ X    X  ",
" b7|X   X .XXXX  .    X|e|./8/8l  ||X   X .   X  .    X|    X .|",
"+69X .+X X  +X X   | X  |  X/// +  X .+X X  +X X   | X     X    ",
"  . X   |  .X |     XX.  +X|8//   . X   |  .X |     XX.  +X|.   ",
"   .   .   XXX +|  X+X     X//a|   .   .   XXX +| XX+X     X   |",
"| X+.   |   X X j6. XX  | X. iX | X+.   |   XXX  Xn7XX  | X. +X ",
" X+X    +  X+X| 7c X     X 8//g  X+X    +  X+X|X |69X    X .  | ",
"X         X.X.     X  .+ X ////aX         X.X.e|  XX  .+ X      ",
"  +   |  X|XX +X            ///f  +   |  X|XX |c               X",
" X|   + X +    . X   |   | b.hf  X|   + X +   X. X   |XX |   .X ",
"    X. X        X  +  X  X+69 +     X. X        X  + Xe| X+X  + ",
"+  +      |    | . | X+.  X .XXX+  +      |    | . | X|c67X . X ",
"  X |     +   X  +  X    XXX   9  Xe.//   +   X  +  X   7XX     ",
" | +|   |X   . + X+X  X   XXX    | c|///lX   . + X+X  X   XXX   ",
"X X +X +X   X     XXX   |  X +  X X d8/df   X     XXXbj6|  X +  ",
"| .    X.  X  . .X X X   |X  | .| .  //8h  X  . .X X6n79b7X  | .",
"   +  X X .     X X+   X X|+X      + /8/f .     X X+ 69c69|+X   ",
"| X |X XXX  +  + |   . +    X.  | X g8/fXX  +  + |   . +    X.  ",
"    . X.+  X |XX        X  X   .    8/8h+  X |XX        X  X   .",
"   XX+ XX       . X+X   X X X+X    XXiaXX       .  +    X X X+X ",
" X  X    .   X    Xe|. X|. XXX|  X /8/   .   X    X  . X|. XXX| ",
" + X   .   .      +9X X X.67X    + 8///h   .      +X  X X.X+X   ",
"  |+k6  +  |  X+   X +|X X7X   .  |d8/rm+  |  X+     +|X X X   .",
"   b6b6X  +X .        +9  |  +   67 /8mX  +X .        +   |  +  ",
"  +jb79  XX X  X+   .X X X  X .  7+ faX  XX X  X+   .X X X  X . ",
" . 679c    .      X+ .  |.       .   +     .      X+ .  |.      ",
"  . Xc    |  + | X    . +X    X   . X     |  + | X    . +     X ",
"+   . +     .   X    . Xb7X   . +   . +     .   X    .  |+    . ",
"|  X   | X X  XX ||   XX6.X// |+|  X   | X X  XX ||   X       |+",
" . X+   X X+     . + X X+X///hX  . X+   X X+     . + X X+X   .X ",
"  X|  X+ X          X X|X./gd/a   X|  X+ X          X X|X. |+   ",
"  79  X   +  X   X |     +//8/i       X   +  X   X |     +  X + ",
"  9+.X   X   XX+.    X+ X ///8a    +.X   X     +.    X+ 7b   X  ",
"  ||X   X . Xb7X .    X|   /8/.|  ||X   X .   67 .    X|6c  X .|",
"+  X .+X X  +6cX   | X     8//  +  X .+X X  +X7c   | X     Xb7  ",
"  . X   |  .XX|X    XX.  +Xg8a    . X   |  .X |     XX.  +X|69  ",
"   .   .   XXX +|  X+X     Xa  |   .   .   XXX +|  X+X     X   |",
"| X+.   |   X     . XX  | 88/dX c X+.   | k9X     . XX  | X. +X ",
" X+X    +  X+X|  | X     X/8p/lc X+X    + 9c+X|  | X   6 X .  | ",
"X         X.X.     X  .+ X ///a X         X.X.  c  X  .+ X      ",
"  +   |  X|XX +X           /aa X  +   |  X|XX +X  7            X",
" X|   + X +    . X   |   |   .X b7|   + X +    . X   |   |   .X ",
"    X. X        X  +  X  X+X  + 69  X. X        X  +  X  X+X  + ",
"+  +      |    | . | X+.  X . X +  +      |    | . | X+.  X . X ",
"  X |     +   X  +  X    XX       X/g     +   X  +  X    XX     ",
" | +|   |X   . + X+X  X   XXX    |/dg/a |X   . + X+X  X   XXX   ",
"X X +X +X   X     XXX   |  X +  X 8/d8a+X   X     XXX   |  X +  ",
"| .    X.  X  . .X X X   |X  | .| .///aX.  X  . .X X X   |X  | .",
"   +  X X .     X X+     X|+X      d//f X .     X X+     X|+X   ",
"| X |X XXX  +  +k|   . +    7b  | 8/gf XXX  +  + e|  . +    X.  ",
"    . X.+  X |XX|       X  X69 .  //8aX.+  X |XX |      X  X   .",
"   XX+ XX    b7 .  +    X67 X+X    ff+ XX       .  + b7 X X X+X ",
" X  X    .   69   X  . X|7 XXX|  8//X67  .   X    X  69X|. XXX| ",
" + X   .   .      +X  X X.X+X    d/8/q .   .      +X  X X.X+X   ",
" e|+X   +  |  X+     +|X X X  c. /gd8a..6  |  X+     +|X X X   .",
" c   X X  +X .        +   |  +    //a.6b7 +X .        +   |  +  ",
"  + X X  XX X  X+   .X X X  X .   iaX6b7cXX X  X+   .X X X  X . ",
" .   +     .      X+ .  |.       .   +69   .      X+ .  |.      ",
"  . X     |  + | X    . +     X   . X     |  + | X    . +     X "
};