/* XPM */
static char *picture[] = {
"64 64 19 1 ",
"  c #594939",
"X c #4F4133",
"+ c #483929",
". c #584F3D",
"| c #4F4233",
"/ c #44392D",
"6 c #3F3325",
"7 c #4B422F",
"8 c #3F3425",
"9 c #473E2D",
"a c #362C20",
"b c #3F3825",
"c c #443D2B",
"d c #4A4632",
"e c #3F3B27",
"f c #443E2B",
"g c #3D3827",
"h c #393322",
"i c #332C1F",
"977b8+9+++++8+++6+bbb8++a9++++8+9+++8+eb++++8+++6++++8++aeb+++8+",
"a+7h+++a+6 6++66+aib++6+++++++a9a++6+ bib6 6++X6+aa+++6+ bb7 +a9",
" f7h9 ++X+6.++ ++8 e76 6.X+++8X++8+6/+b76+69+++++8+9+6+69h7++|X+",
" +ci +X.+6   + ++ 776 X/68+/.+ + +6a  6db6++++++++++6 6aX8bg.+  ",
" 77++ X+  9 +X ++6 g +   .++6 . ++++ +cb++. +6+ +X+a+++++d7 X .+",
" +7e|6  +X   + 98 77+X. 6 +  6  +++9|X+7+6 + + 98+++ X9+X+b  6  ",
"  g/6   X 8   X +877 +X/  ++X |/++a/X 7b6+|   X++|++++6/ 77 X |/",
". 7h 8.X X  .6 6+  g+X  + +6 +  .++6 |ec+6  .6 X+++a X++ bbX +  ",
"  f7X   /  |X / + 77XX|  .6/|   ++8 X  ba  |X /++ ++6X8  .c/|   ",
"  78   |   XX6 9a  c.X    +6 + / ++8  bf++ XX6 .a +6.X++ b7X   /",
"/ cd|   /   X  ++ f XX  / 6| .X a+6.|  7a   X  + +8+XX++/ c| .X ",
" Xd6    .  X.X/ +/ c     X 8  /  69X  7 9+ X.X/ +/+6  +  c |  / ",
"X  7      X|X| ++  X  |. X+     X+++   7++X|X|   ++6  89 X7     ",
"  d   /  X/XX .X+  7           X +9   / +X/XX .X+ ++  +        X",
" X/   . X .    8 X   /   /+  |X  6a+  .76+.    | 6+  / + /7  |X ",
"  7 X| X        6  d  X  X.X  .  ++ X| X+       6 +9  6  X.X  . ",
".  .      /    / | / X.|  6 | X . +9   7 +/    / |+/ X.|  c | X ",
"  c /     .   X +.  X    XX      +6 /   + .   X  .++X +  XX     ",
" / ./   /X   | . X.X  X   XXX    /+./   /X   | . X96  X   XXX   ",
"X X .X .X   X   + XXX   /  X .  X+6 .X .6   X     6XX + /  X .  ",
"/ |    X|  X  | |X X X   /X  / |/+8    X|  X  | |X+6 X   /X  / |",
"   .  X X |     X X.     X/.X     +.  X 6 |     X 6.     X/.X   ",
"/ X /X XXX  .  . /   | .    X|  /+6 /X XXX  .  . / + | .    X|  ",
"    | X|.  X /XX        X  X   |  + | X|.  X /XX  +     X  X   |",
"   XX. XX       |  .    X X X.X  + XX. XX       |  .    X X X.X ",
" X  X    |   X    X  | X/| XXX/  X+ X    |   X    6  | X/| XXX/ ",
" . X   |   |      .X  X X|X.X    . X   |   |      .X  X X|X.X   ",
"  /.X   .  /  X.     ./X X X   |  a.X   .  /  X.  +  ./X X X   |",
"     X X  .X |        .   /  .       X X  .X |        .   /  .  ",
"  . X X  XX X  X.   |X X X  X |   9 X X  XX X  X.   |X X X  X | ",
" |   .     |      X. |  /|       |   .     |      X. |  /|      ",
"  | X     /  . / X    | .     X   | X     /  . / X    | .     X ",
".   | .     |   X    |  /.    | .   | .     |   X    |  /.    | ",
"/  X   / X X  XX //   X       /./  X   / X X  XX //   X       /.",
" | X.   X X.     | . X X.X   |X  | X.   X X.     | . X X.X   |X ",
"  X/  X. X          X X/X| /.     X/  X. X          X X/X| /.   ",
"      X   .  X   X /     .  X .       X   .  X   X /     .  X . ",
"   .|X   X     .|    X. X    X     .|X   X     .|    X. X    X  ",
"  //X   X |   X  |    X/    X |/  //X   X |   X  |    X/    X |/",
".  X |.X X  .X X   / X     X    .  X |.X X  .X X   / X     X    ",
"  | X   /  |X /     XX|  .X/|     | X   /  |X /     XX|  .X/|   ",
"   |   |   XXX ./  X.X     X   /   |   |   XXX ./  X.X     X   /",
"/ X.|   /   X     | XX  / X| .X / X.|   /   X     | XX  / X| .X ",
" X.X    .  X.X/  / X     X |  /  X.X    .  X.X/  / X     X |  / ",
"X         X|X|     X  |. X      X         X|X|     X  |. X      ",
"  .   /  X/XX .X               X  .   /  X/XX .X               X",
" X/   . X .    | X   /   /   |X  X/   . X .    | X   /   /   |X ",
"    X| X        X  .  X  X.X  .     X| X        X  .  X  X.X  . ",
".  .      /    / | / X.|  X | X .  .      /    / | / X.|  X | X ",
"  X /     .   X  .  X    XX       X /     .   X  .  X    XX     ",
" / ./   /X   | . X.X  X   XXX    / ./   /X   | . X.X  X   XXX   ",
"X X .X .X   X     XXX   /  X .  X X .X .X   X     XXX   /  X .  ",
"/ |    X|  X  | |X X X   /X  / |/ |    X|  X  | |X X X   /X  / |",
"   .  X X |     X X.     X/.X      .  X X |     X X.     X/.X   ",
"/ X /X XXX  .  . /   | .    X|  / X /X XXX  .  . /   | .    X|  ",
"    | X|.  X /XX        X  X   |    | X|.  X /XX        X  X   |",
"   XX. XX       |  .    X X X.X    XX. XX       |  .    X X X.X ",
" X  X    |   X    X  | X/| XXX/  X  X    |   X    X  | X/| XXX/ ",
" . X   |   |      .X  X X|X.X    . X   |   |      .X  X X|X.X   ",
"  /.X   .  /  X.     ./X X X   |  /.X   .  /  X.     ./X X X   |",
"     X X  .X |        .   /  .       X X  .X |        .   /  .  ",
"  . X X  XX X  X.   |X X X  X |   . X X  XX X  X.   |X X X  X | ",
" |   .     |      X. |  /|       |   .     |      X. |  /|      ",
"  | X     /  . / X    | .     X   | X     /  . / X    | .     X "
};