/* XPM */
static char *picture[] = {
"64 64 15 1 ",
"  c #4F4C3F",
"X c #373C2C",
"+ c #322E1D",
". c #1E1E17",
"| c #44402F",
"/ c #000000",
"6 c #66684C",
"7 c #181817",
"8 c #141413",
"9 c #353929",
"a c #1C1C1B",
"b c #818556",
"c c #28271F",
"d c #28261F",
"e c #382B2F",
"////////////////////////////////////////////////////////////////",
"      +a++aa++X+      +a++aa++X+      +a++aa++X+      +a++aa++X+",
" XXXXX++X+a++XX+ XXXXX++X+a++XX+ XXXXX++X+a++XX+ XXXXX++X+a++XX+",
" X6XXXX+X++++6X+ X6XXXX+X++++6X+ X6XXXX+X++++6X+ X6XXXX+X++++6X+",
" +XXXX+XX+++aXX+ +XXXX+XX+++aXX+ +XXXX+XX+++aXX+ +XXXX+XX+++aXX+",
" XXXXXX+XX++XXX+ XXXXXX+XX++XXX+ XXXXXX+XX++XXX+ XXXXXX+XX++XXX+",
" XXXXXXXXX+++XX+ XXXXXXXXX+++XX+ XXXXXXXXX+++XX+ XXXXXXXXX+++XX+",
" XXXXXX+XX++XXX+ XXXXXX+XX++XXX+ XXXXXX+XX++XXX+ XXXXXX+XX++XXX+",
" XXXXXXXXX+++XX+ XXXXXXXXX+++XX+ XXXXXXXXX+++XX+ XXXXXXXXX+++XX+",
" XXXXXXXXX++XXX+ XXXXXXXXX++XXX+ XXXXXXXXX++XXX+ XXXXXXXXX++XXX+",
"b         ||   Xb         ||   Xb         ||   Xb         ||   X",
" XXXXXXXXX++XXX+ XXXXXXXXX++XXX+ XXXXXXXXX++XXX+ XXXXXXXXX++XXX+",
"b         ||   Xb         ||   Xb         ||   Xb         ||   X",
"b         ||   +b         ||   +b         ||   +b         ||   +",
"b          |   Xb          |   Xb          |   Xb          |   X",
"b         |    +b         |    +b         |    +b         |    +",
"b          |   Xb          |   Xb          |   Xb          |   X",
"b              Xb              Xb              Xb              X",
"b      6   |   Xb      6   |   Xb      6   |   Xb      6   |   X",
"b     6X       Xb     6X       Xb     6X       Xb     6X       X",
"b    be|        b    be|        b    be|        b    be|        ",
"6   6e||       X6   6e||       X6   6e||       X6   6e||       X",
"b    ||         b    ||         b    ||         b    ||         ",
"6    |||       X6    |||       X6    |||       X6    |||       X",
"b    ||         b    ||         b    ||         b    ||         ",
"6    ||        X6    ||        X6    ||        X6    ||        X",
"6    |||       X6    |||       X6    |||       X6    |||       X",
"6    ||        X6    ||        X6    ||        X6    ||        X",
"6    |||       +6    |||       +6    |||       +6    |||       +",
"6    ||        X6    ||        X6    ||        X6    ||        X",
"6    | |       +6    | |       +6    | |       +6    | |       +",
"6    ||        X6    ||        X6    ||        X6    ||        X",
"6    |         +6    |         +6    |         +6    |         +",
"6    ||        +6    ||        +6    ||        +6    ||        +",
"6    ||        +6    ||        +6    ||        +6    ||        +",
"6    |         +6    |         +6    |         +6    |         +",
"6    ||        +6    ||        +6    ||        +6    ||        +",
"6    |         +6    |         +6    |         +6    |         +",
"6     |        +6     |        +6     |        +6     |        +",
"6    |         +6    |         +6    |         +6    |         +",
"6              +6              +6              +6              +",
"6    |         +6    |         +6    |         +6    |         +",
"               +               +               +               +",
"6    |         +6    |         +6    |         +6    |         +",
"               +               +               +               +",
"6              +6              +6              +6              +",
"               +               +               +               +",
"6              +6              +6              +6              +",
"               +               +               +               +",
"               +               +               +               +",
"               +               +               +               +",
"  6          6 +  6          6 +  6          6 +  6          6 +",
" +          +  + +          +  + +          +  + +          +  +",
" 66666666666 6 + 66666666666 6 + 66666666666 6 + 66666666666 6 +",
"///////////////////////////////8a8//////////////////////////////",
"a//aa8/aa//aa8/aa//aa8/aa//aa8/aa//aa8/aa//aa8/aa//aa8/aa//aa8/a",
"999999999c9999c9c9c9c9cccccc9c9c9c99999999999999999999999c9999c9",
"........7................7......7.......7.......7.7.....7.......",
".7.....7...............77..............ddd.......7.....7........",
"7..98......98......98..7..d98......98.d.d..98...7..98......98...",
"..7/8.....7/8.....7/8.7.7.7/8..7..7/8..d..7/8..7..7/8.....7/8..7",
"7.77......77......77...7..77d.....77..d...77..77..77......77..7.",
"......................7....dd........d........7..............7.7",
"8777777878788888887878/8/8////8/88888888787887878777777878788888"
};