/* XPM */
static char *picture[] = {
"64 64 13 1 ",
"  c #464D4F",
"X c #1C1C1B",
"+ c #9F7315",
". c #383F40",
"| c #382B2F",
"/ c #62797E",
"6 c #536265",
"7 c #855A00",
"8 c #A08648",
"9 c #000000",
"a c #28221F",
"b c #141413",
"c c #889C9E",
"9999999999999999999999999999999999999999999999999999999999999999",
"      . . . ...|      . . . ...|      . . . ...|      . . . ...|",
" ..............| ..............| ..............| ..............|",
" .|/ .....|/ ..| .|/ .....|/ ..| .|/ .....|/ ..| .|/ .....|/ ..|",
" .|  .....|  ..| .|  .....|  ..| .|  .....|  ..| .|  .....|  ..|",
" .||......||...| .||......||...| .||......||...| .||......||...|",
" ..............| ..............| ..............| ..............|",
" ..a||||.|.. ..| ..a||||.|.. ..| ..a||||.|.. ..| ..a||||.|.. ..|",
" ..|XX+++7Xa6..| ..|XX+++7Xa6..| ..|XX+++7Xa6..| ..|XX+++7Xa6..|",
" ..|X+8+7XXX6..| ..|X+8+7XXX6..| ..|X+8+7XXX6..| ..|X+8+7XXX6..|",
"/  |+8+7XXXX6  ./  |+8+7XXXX6  ./  |+8+7XXXX6  ./  |+8+7XXXX6  .",
" ..|++7XXXX+6..| ..|++7XXXX+6..| ..|++7XXXX+6..| ..|++7XXXX+6..|",
"/  |++XXXa++/  ./  |++XXXa++/  ./  |++XXXa++/  ./  |++XXXa++/  .",
"/  |+XXXa+++/  |/  |+XXXa+++/  |/  |+XXXa+++/  |/  |+XXXa+++/  |",
"/  |XXXX+++7/  ./  |XXXX+++7/  ./  |XXXX+++7/  ./  |XXXX+++7/  .",
"/  |XXX+++7X/  |/  |XXX+++7X/  |/  |XXX+++7X/  |/  |XXX+++7X/  |",
"/  |XX+++7Xa6  ./  |XX+++7Xa6  ./  |XX+++7Xa6  ./  |XX+++7Xa6  .",
"/  |X+8+7XXX6  ./  |X+8+7XXX6  ./  |X+8+7XXX6  ./  |X+8+7XXX6  .",
"/  |+8+7XXXX6  ./  |+8+7XXXX6  ./  |+8+7XXXX6  ./  |+8+7XXXX6  .",
"/  |++7XXXX+6  ./  |++7XXXX+6  ./  |++7XXXX+6  ./  |++7XXXX+6  .",
"/  |++XXXa++/   /  |++XXXa++/   /  |++XXXa++/   /  |++XXXa++/   ",
"6  |+XXXa+++/  .6  |+XXXa+++/  .6  |+XXXa+++/  .6  |+XXXa+++/  .",
"/  |XXXX+++7/   /  |XXXX+++7/   /  |XXXX+++7/   /  |XXXX+++7/   ",
"6  |XXX+++7X/  .6  |XXX+++7X/  .6  |XXX+++7X/  .6  |XXX+++7X/  .",
"/  |XX++8+XX6   /  |XX++8+XX6   /  |XX++8+XX6   /  |XX++8+XX6   ",
"6  |X++8+XXX/  .6  |X++8+XXX/  .6  |X++8+XXX/  .6  |X++8+XXX/  .",
"6  |++8+XXXX6  .6  |++8+XXXX6  .6  |++8+XXXX6  .6  |++8+XXXX6  .",
"6  |+++XXXX+6  .6  |+++XXXX+6  .6  |+++XXXX+6  .6  |+++XXXX+6  .",
"6  |++XXXX++6  |6  |++XXXX++6  |6  |++XXXX++6  |6  |++XXXX++6  |",
"6  |+XXXX+++6  .6  |+XXXX+++6  .6  |+XXXX+++6  .6  |+XXXX+++6  .",
"6  |XXXX++8+6  |6  |XXXX++8+6  |6  |XXXX++8+6  |6  |XXXX++8+6  |",
"6  |XXX7+8+X/  .6  |XXX7+8+X/  .6  |XXX7+8+X/  .6  |XXX7+8+X/  .",
"6  |XX++8+XX6  |6  |XX++8+XX6  |6  |XX++8+XX6  |6  |XX++8+XX6  |",
"6  |X7+8+XXX/  |6  |X7+8+XXX/  |6  |X7+8+XXX/  |6  |X7+8+XXX/  |",
"6  |7+8+aXXX6  |6  |7+8+aXXX6  |6  |7+8+aXXX6  |6  |7+8+aXXX6  |",
"6  |+++aXXX7/  |6  |+++aXXX7/  |6  |+++aXXX7/  |6  |+++aXXX7/  |",
"6  |+7XXXX7+/  |6  |+7XXXX7+/  |6  |+7XXXX7+/  |6  |+7XXXX7+/  |",
"6  |7XXXX7++/  |6  |7XXXX7++/  |6  |7XXXX7++/  |6  |7XXXX7++/  |",
"6  .XXXX++8+/  |6  .XXXX++8+/  |6  .XXXX++8+/  |6  .XXXX++8+/  |",
"6  |XXX++8+X/  |6  |XXX++8+X/  |6  |XXX++8+X/  |6  |XXX++8+X/  |",
"6  .XX++++XX/  |6  .XX++++XX/  |6  .XX++++XX/  |6  .XX++++XX/  |",
"6  |X+8++XXX/  |6  |X+8++XXX/  |6  |X+8++XXX/  |6  |X+8++XXX/  |",
"   .+8++XXXX/  |   .+8++XXXX/  |   .+8++XXXX/  |   .+8++XXXX/  |",
"6  |+++XXXX+/  |6  |+++XXXX+/  |6  |+++XXXX+/  |6  |+++XXXX+/  |",
"   .++XXXX++/  |   .++XXXX++/  |   .++XXXX++/  |   .++XXXX++/  |",
"6  .7XXXX+++/  |6  .7XXXX+++/  |6  .7XXXX+++/  |6  .7XXXX+++/  |",
"   .XXXX+++7/  |   .XXXX+++7/  |   .XXXX+++7/  |   .XXXX+++7/  |",
"6  .XXX+++7X/  |6  .XXX+++7X/  |6  .XXX+++7X/  |6  .XXX+++7X/  |",
"   .XX+++7Xa/  |   .XX+++7Xa/  |   .XX+++7Xa/  |   .XX+++7Xa/  |",
"   .X+8+7XXX/  |   .X+8+7XXX/  |   .X+8+7XXX/  |   .X+8+7XXX/  |",
"   .+8+7XXXX/  |   .+8+7XXXX/  |   .+8+7XXXX/  |   .+8+7XXXX/  |",
"   .++7XXXX+/  |   .++7XXXX+/  |   .++7XXXX+/  |   .++7XXXX+/  |",
"   .++XXXa++/  |   .++XXXa++/  |   .++XXXa++/  |   .++XXXa++/  |",
"   .+XXXa+++/  |   .+XXXa+++/  |   .+XXXa+++/  |   .+XXXa+++/  |",
"   .XXXX+++7/  |   .XXXX+++7/  |   .XXXX+++7/  |   .XXXX+++7/  |",
"   .XXX+++7X/  |   .XXX+++7X/  |   .XXX+++7X/  |   .XXX+++7X/  |",
"    66/6////c  |    66/6////c  |    66/6////c  |    66/6////c  |",
" .      .      | .      .      | .      .      | .      .      |",
".              |.              |.              |.              |",
"   /.      /.  |   /.      /.  |   /.      /.  |   /.      /.  |",
". |..  .  |..  |. |..  .  |..  |. |..  .  |..  |. |..  .  |..  |",
"  ||      ||   |  ||      ||   |  ||      ||   |  ||      ||   |",
"               |               |               |               |",
"b|bbbb|b||||||||b|bbbb|b||||||||b|bbbb|b||||||||b|bbbb|b||||||||"
};