/* XPM */
static char *picture[] = {
"64 64 9 1 ",
"  c #4F4C3F",
"X c #373C2C",
"+ c #322E1D",
". c #66684C",
"| c #1C1C1B",
"/ c #000000",
"6 c #818556",
"7 c #44402F",
"8 c #141413",
"////////////////////////////////////////////////////////////////",
"      X X X XXX+      X X X XXX+      X X X XXX+      X X X XXX+",
" XXXXXXXXXXXXXX+ XXXXXXXXXXXXXX+ XXXXXXXXXXXXXX+ XXXXXXXXXXXXXX+",
" X.XXXXXXXXXX.X+ X.XXXXXXXXXX.X+ X.XXXXXXXXXX.X+ X.XXXXXXXXXX.X+",
" +XXX++++++XXXX+ +XXX++++++XXXX+ +XXX++++++XXXX+ +XXX++++++XXXX+",
" XXX++++++++XXX+ XXX++++++++XXX+ XXX++++++++XXX+ XXX++++++++XXX+",
" XX+++||||+++XX+ XX+++||||+++XX+ XX+++||||+++XX+ XX+++||||+++XX+",
" XX++||XX||++XX+ XX++||XX||++XX+ XX++||XX||++XX+ XX++||XX||++XX+",
" XX++|X||X|++XX+ XX++|X||X|++XX+ XX++|X||X|++XX+ XX++|X||X|++XX+",
" XX++|X||X|++XX+ XX++|X||X|++XX+ XX++|X||X|++XX+ XX++|X||X|++XX+",
"6  XX++XX++XX  X6  XX++XX++XX  X6  XX++XX++XX  X6  XX++XX++XX  X",
" XX+++||||+++XX+ XX+++||||+++XX+ XX+++||||+++XX+ XX+++||||+++XX+",
"6  .XXXXXXXX.  X6  .XXXXXXXX.  X6  .XXXXXXXX.  X6  .XXXXXXXX.  X",
"6   .XXXXXX.   +6   .XXXXXX.   +6   .XXXXXX.   +6   .XXXXXX.   +",
"6     ....     X6     ....     X6     ....     X6     ....     X",
"6              +6              +6              +6              +",
"6              X6              X6              X6              X",
"6              X6              X6              X6              X",
"6    XXXXXX    X6    XXXXXX    X6    XXXXXX    X6    XXXXXX    X",
"6   XXXXXXXX   X6   XXXXXXXX   X6   XXXXXXXX   X6   XXXXXXXX   X",
"6  XXX++++XXX   6  XXX++++XXX   6  XXX++++XXX   6  XXX++++XXX   ",
".  XX++XX++XX  X.  XX++XX++XX  X.  XX++XX++XX  X.  XX++XX++XX  X",
"6  XX+X||X+XX   6  XX+X||X+XX   6  XX+X||X+XX   6  XX+X||X+XX   ",
".  XX+X||X+XX  X.  XX+X||X+XX  X.  XX+X||X+XX  X.  XX+X||X+XX  X",
"6  XX++XX++XX   6  XX++XX++XX   6  XX++XX++XX   6  XX++XX++XX   ",
".  XXX++++XXX  X.  XXX++++XXX  X.  XXX++++XXX  X.  XXX++++XXX  X",
".  .XXXXXXXX.  X.  .XXXXXXXX.  X.  .XXXXXXXX.  X.  .XXXXXXXX.  X",
".   .XXXXXX.   X.   .XXXXXX.   X.   .XXXXXX.   X.   .XXXXXX.   X",
".     ....     +.     ....     +.     ....     +.     ....     +",
".              X.              X.              X.              X",
".              +.              +.              +.              +",
".              X.              X.              X.              X",
".    XXXXXX    +.    XXXXXX    +.    XXXXXX    +.    XXXXXX    +",
".   XXXXXXXX   +.   XXXXXXXX   +.   XXXXXXXX   +.   XXXXXXXX   +",
".  XXX++++XXX  +.  XXX++++XXX  +.  XXX++++XXX  +.  XXX++++XXX  +",
".  XX++XX++XX  +.  XX++XX++XX  +.  XX++XX++XX  +.  XX++XX++XX  +",
".  XX+X||X+XX  +.  XX+X||X+XX  +.  XX+X||X+XX  +.  XX+X||X+XX  +",
".  XX+X||X+XX  +.  XX+X||X+XX  +.  XX+X||X+XX  +.  XX+X||X+XX  +",
".  XX++XX++XX  +.  XX++XX++XX  +.  XX++XX++XX  +.  XX++XX++XX  +",
".  XXX++++XXX  +.  XXX++++XXX  +.  XXX++++XXX  +.  XXX++++XXX  +",
".  .XXXXXXXX.  +.  .XXXXXXXX.  +.  .XXXXXXXX.  +.  .XXXXXXXX.  +",
".   .XXXXXX.   +.   .XXXXXX.   +.   .XXXXXX.   +.   .XXXXXX.   +",
"      ....     +      ....     +      ....     +      ....     +",
".              +.              +.              +.              +",
"               +               +               +               +",
".              +.              +.              +.              +",
"     XXXXXX    +     XXXXXX    +     XXXXXX    +     XXXXXX    +",
".   XXXXXXXX   +.   XXXXXXXX   +.   XXXXXXXX   +.   XXXXXXXX   +",
"   XXX++++XXX  +   XXX++++XXX  +   XXX++++XXX  +   XXX++++XXX  +",
"   XX++XX++XX  +   XX++XX++XX  +   XX++XX++XX  +   XX++XX++XX  +",
"   XX+X||X+XX  +   XX+X||X+XX  +   XX+X||X+XX  +   XX+X||X+XX  +",
"   XX+X||X+XX  +   XX+X||X+XX  +   XX+X||X+XX  +   XX+X||X+XX  +",
"   XX++XX++XX  +   XX++XX++XX  +   XX++XX++XX  +   XX++XX++XX  +",
"   XXX++++XXX  +   XXX++++XXX  +   XXX++++XXX  +   XXX++++XXX  +",
"   .XXXXXXXX.  +   .XXXXXXXX.  +   .XXXXXXXX.  +   .XXXXXXXX.  +",
"    .XXXXXX.   +    .XXXXXX.   +    .XXXXXX.   +    .XXXXXX.   +",
"      ....     +      ....     +      ....     +      ....     +",
" X      X      + X      X      + X      X      + X      X      +",
"X              +X              +X              +X              +",
"  7.X      .X 7+  7.X      .X 7+  7.X      .X 7+  7.X      .X 7+",
"X +XX  X  +XX  +X +XX  X  +XX  +X +XX  X  +XX  +X +XX  X  +XX  +",
"  ++7     ++  7+  ++7     ++  7+  ++7     ++  7+  ++7     ++  7+",
"   77        7 +   77        7 +   77        7 +   77        7 +",
"8+8888+8++++++++8+8888+8++++++++8+8888+8++++++++8+8888+8++++++++"
};