/* XPM */
static char *picture[] = {
"64 64 16 1 ",
"  c #464D4F",
"X c #383F40",
"+ c #382B2F",
". c #FFD02C",
"| c #62797E",
"/ c #BAB77A",
"6 c #F5F9ED",
"7 c #536265",
"8 c #FF992C",
"9 c #FFB62C",
"a c #000000",
"b c #FFEC24",
"c c #4B3F38",
"d c #141413",
"e c #796F47",
"f c #F78300",
"aaaaaaaaaaaaaaaaaaaaaaaaaaaaaaaaaaaaaaaaaaaaaaaaaaaaaaaaaaaaaaaa",
"      X X X XXX+      X X X XXX+      X X X XXX+      X X X XXX+",
" XXXXXXXXXXXXXX+ XXXXXXXXXXXXXX+ XXXXXXXXXXXXXX+ XXXXXXXXXXXXXX+",
" X|XX|||| XXX|X+ X|XX|||| XXX|X+ X|XX|||| XXX|X+ X|XX|||| XXX|X+",
" +XX|++++++X+XX+ +XX|++++++X+XX+ +XX|++++++X+XX+ +XX|++++++X+XX+",
" XX|++++++++ XX+ XX|++++++++ XX+ XX|++++++++ XX+ XX|++++++++ XX+",
" X|+++f99f+++ X+ X|+++f99f+++ X+ X|+++f99f+++ X+ X|+++f99f+++ X+",
" X|++f9999f++|X+ X|++f9999f++|X+ X|++f9999f++|X+ X|++f9999f++|X+",
" X|++99bb99++|X+ X|++99bb99++|X+ X|++99bb99++|X+ X|++99bb99++|X+",
" X|++996699++|X+ X|++996699++|X+ X|++996699++|X+ X|++996699++|X+",
"| /XX..66..XX/ X| /XX..66..XX/ X| /XX..66..XX/ X| /XX..66..XX/ X",
" X|++996699++|X+ X|++996699++|X+ X|++996699++|X+ X|++996699++|X+",
"| /XX..66..XX/ X| /XX..66..XX/ X| /XX..66..XX/ X| /XX..66..XX/ X",
"| |XX..bb..XX/ +| |XX..bb..XX/ +| |XX..bb..XX/ +| |XX..bb..XX/ +",
"| |XX8....8XX/ X| |XX8....8XX/ X| |XX8....8XX/ X| |XX8....8XX/ X",
"| |XXX8..8XXX/ +| |XXX8..8XXX/ +| |XXX8..8XXX/ +| |XXX8..8XXX/ +",
"|  |XXXXXXXX/  X|  |XXXXXXXX/  X|  |XXXXXXXX/  X|  |XXXXXXXX/  X",
"|   |XXXXXX/   X|   |XXXXXX/   X|   |XXXXXX/   X|   |XXXXXX/   X",
"|    |/|///    X|    |/|///    X|    |/|///    X|    |/|///    X",
"|              X|              X|              X|              X",
"|               |               |               |               ",
"7              X7              X7              X7              X",
"|    /|/|||     |    /|/|||     |    /|/|||     |    /|/|||     ",
"7   /XXXXXX|   X7   /XXXXXX|   X7   /XXXXXX|   X7   /XXXXXX|   X",
"|  /XXXXXXXX|   |  /XXXXXXXX|   |  /XXXXXXXX|   |  /XXXXXXXX|   ",
"7 /XXX8..8XXX| X7 /XXX8..8XXX| X7 /XXX8..8XXX| X7 /XXX8..8XXX| X",
"7 /XX8....8XX/ X7 /XX8....8XX/ X7 /XX8....8XX/ X7 /XX8....8XX/ X",
"7 /XX..bb..XX| X7 /XX..bb..XX| X7 /XX..bb..XX| X7 /XX..bb..XX| X",
"7 /XX..66..XX/ +7 /XX..66..XX/ +7 /XX..66..XX/ +7 /XX..66..XX/ +",
"7 /XX..66..XX/ X7 /XX..66..XX/ X7 /XX..66..XX/ X7 /XX..66..XX/ X",
"7 /XX..66..XX/ +7 /XX..66..XX/ +7 /XX..66..XX/ +7 /XX..66..XX/ +",
"7 |XX..66..XX/ X7 |XX..66..XX/ X7 |XX..66..XX/ X7 |XX..66..XX/ X",
"7 /XX..bb..XX/ +7 /XX..bb..XX/ +7 /XX..bb..XX/ +7 /XX..bb..XX/ +",
"7 |XX8....8XX/ +7 |XX8....8XX/ +7 |XX8....8XX/ +7 |XX8....8XX/ +",
"7 |XXX8..8XXX/ +7 |XXX8..8XXX/ +7 |XXX8..8XXX/ +7 |XXX8..8XXX/ +",
"7  |XXXXXXXX/  +7  |XXXXXXXX/  +7  |XXXXXXXX/  +7  |XXXXXXXX/  +",
"7   |XXXXXX/   +7   |XXXXXX/   +7   |XXXXXX/   +7   |XXXXXX/   +",
"7    |/|///    +7    |/|///    +7    |/|///    +7    |/|///    +",
"7              +7              +7              +7              +",
"7              +7              +7              +7              +",
"7              +7              +7              +7              +",
"7    /|/|||    +7    /|/|||    +7    /|/|||    +7    /|/|||    +",
"    /XXXXXX|   +    /XXXXXX|   +    /XXXXXX|   +    /XXXXXX|   +",
"7  /XXXXXXXX|  +7  /XXXXXXXX|  +7  /XXXXXXXX|  +7  /XXXXXXXX|  +",
"  /XXX8..8XXX| +  /XXX8..8XXX| +  /XXX8..8XXX| +  /XXX8..8XXX| +",
"7 /XX8....8XX/ +7 /XX8....8XX/ +7 /XX8....8XX/ +7 /XX8....8XX/ +",
"  /XX..bb..XX| +  /XX..bb..XX| +  /XX..bb..XX| +  /XX..bb..XX| +",
"7 /XX..66..XX/ +7 /XX..66..XX/ +7 /XX..66..XX/ +7 /XX..66..XX/ +",
"  /XX..66..XX/ +  /XX..66..XX/ +  /XX..66..XX/ +  /XX..66..XX/ +",
"  /XX..66..XX/ +  /XX..66..XX/ +  /XX..66..XX/ +  /XX..66..XX/ +",
"  |XX..66..XX/ +  |XX..66..XX/ +  |XX..66..XX/ +  |XX..66..XX/ +",
"  /XX..bb..XX/ +  /XX..bb..XX/ +  /XX..bb..XX/ +  /XX..bb..XX/ +",
"  |XX8....8XX/ +  |XX8....8XX/ +  |XX8....8XX/ +  |XX8....8XX/ +",
"  |XXX8..8XXX/ +  |XXX8..8XXX/ +  |XXX8..8XXX/ +  |XXX8..8XXX/ +",
"   |XXXXXXXX/  +   |XXXXXXXX/  +   |XXXXXXXX/  +   |XXXXXXXX/  +",
"    |XXXXXX/   +    |XXXXXX/   +    |XXXXXX/   +    |XXXXXX/   +",
"     |/|///    +     |/|///    +     |/|///    +     |/|///    +",
" X      X      + X      X      + X      X      + X      X      +",
"X              +X              +X              +X              +",
"  ce/      /e c+  ce/      /e c+  ce/      /e c+  ce/      /e c+",
"X +ee  X  +ee  +X +ee  X  +ee  +X +ee  X  +ee  +X +ee  X  +ee  +",
"  ++c     ++  c+  ++c     ++  c+  ++c     ++  c+  ++c     ++  c+",
"   cc        c +   cc        c +   cc        c +   cc        c +",
"d+dddd+d++++++++d+dddd+d++++++++d+dddd+d++++++++d+dddd+d++++++++"
};