/* XPM */
static char *picture[] = {
"64 64 16 1 ",
"  c #373C2C",
"X c #4F4C3F",
"+ c #322E1D",
". c #289237",
"| c #A0B652",
"/ c #66684C",
"6 c #FFEC24",
"7 c #1D783C",
"8 c #AFDA2F",
"9 c #000000",
"a c #075929",
"b c #076C0E",
"c c #818556",
"d c #44402F",
"e c #141413",
"f c #024829",
"9999999999999999999999999999999999999999999999999999999999999999",
"XXXXXX X X X   +XXXXXX X X X   +XXXXXX X X X   +XXXXXX X X X   +",
"X              +X              +X              +X              +",
"X /  ////X   / +X /  ////X   / +X /  ////X   / +X /  ////X   / +",
"X+  /++++++ +  +X+  /++++++ +  +X+  /++++++ +  +X+  /++++++ +  +",
"X  /++++++++X  +X  /++++++++X  +X  /++++++++X  +X  /++++++++X  +",
"X /+++fbbf+++X +X /+++fbbf+++X +X /+++fbbf+++X +X /+++fbbf+++X +",
"X /++fbbbbf++/ +X /++fbbbbf++/ +X /++fbbbbf++/ +X /++fbbbbf++/ +",
"X /++bb88bb++/ +X /++bb88bb++/ +X /++bb88bb++/ +X /++bb88bb++/ +",
"X /++ba86ab++/ +X /++ba86ab++/ +X /++ba86ab++/ +X /++ba86ab++/ +",
"cX|  .7687.  |X cX|  .7687.  |X cX|  .7687.  |X cX|  .7687.  |X ",
"X /++ba86ab++/ +X /++ba86ab++/ +X /++ba86ab++/ +X /++ba86ab++/ +",
"cX|  .7667.  |X cX|  .7667.  |X cX|  .7667.  |X cX|  .7667.  |X ",
"cX|  .7667.  |X+cX|  .7667.  |X+cX|  .7667.  |X+cX|  .7667.  |X+",
"cX|  .7667.  |X cX|  .7667.  |X cX|  .7667.  |X cX|  .7667.  |X ",
"cX|  ..667.  |X+cX|  ..667.  |X+cX|  ..667.  |X+cX|  ..667.  |X+",
"cX|  .7667.  |X cX|  .7667.  |X cX|  .7667.  |X cX|  .7667.  |X ",
"cX|  ..667.  |X cX|  ..667.  |X cX|  ..667.  |X cX|  ..667.  |X ",
"cX|  .7667.  |X cX|  .7667.  |X cX|  .7667.  |X cX|  .7667.  |X ",
"cX|  .7667.  |X cX|  .7667.  |X cX|  .7667.  |X cX|  .7667.  |X ",
"cX|  .768..  |XXcX|  .768..  |XXcX|  .768..  |XXcX|  .768..  |XX",
"/X|  ..867.  |X /X|  ..867.  |X /X|  ..867.  |X /X|  ..867.  |X ",
"cX/  .7687.  |XXcX/  .7687.  |XXcX/  .7687.  |XXcX/  .7687.  |XX",
"/X|  ..88..  |X /X|  ..88..  |X /X|  ..88..  |X /X|  ..88..  |X ",
"cX/  a....a  |XXcX/  a....a  |XXcX/  a....a  |XXcX/  a....a  |XX",
"/X/   a..a   |X /X/   a..a   |X /X/   a..a   |X /X/   a..a   |X ",
"/XX/        |XX /XX/        |XX /XX/        |XX /XX/        |XX ",
"/XXX/      |XXX /XXX/      |XXX /XXX/      |XXX /XXX/      |XXX ",
"/XXXX/|/|||XXXX+/XXXX/|/|||XXXX+/XXXX/|/|||XXXX+/XXXX/|/|||XXXX+",
"/XXXXXXXXXXXXXX /XXXXXXXXXXXXXX /XXXXXXXXXXXXXX /XXXXXXXXXXXXXX ",
"/XXXXXXXXXXXXXX+/XXXXXXXXXXXXXX+/XXXXXXXXXXXXXX+/XXXXXXXXXXXXXX+",
"/XXXX|/|///XXXX /XXXX|/|///XXXX /XXXX|/|///XXXX /XXXX|/|///XXXX ",
"/XXX|      /XXX+/XXX|      /XXX+/XXX|      /XXX+/XXX|      /XXX+",
"/XX|        /XX+/XX|        /XX+/XX|        /XX+/XX|        /XX+",
"/X|   a..a   /X+/X|   a..a   /X+/X|   a..a   /X+/X|   a..a   /X+",
"/X|  a....a  |X+/X|  a....a  |X+/X|  a....a  |X+/X|  a....a  |X+",
"/X|  ..88..  /X+/X|  ..88..  /X+/X|  ..88..  /X+/X|  ..88..  /X+",
"/X|  .7867.  |X+/X|  .7867.  |X+/X|  .7867.  |X+/X|  .7867.  |X+",
"/X|  .7687.  |X+/X|  .7687.  |X+/X|  .7687.  |X+/X|  .7687.  |X+",
"/X|  .7867.  |X+/X|  .7867.  |X+/X|  .7867.  |X+/X|  .7867.  |X+",
"/X|  .7667.  |X+/X|  .7667.  |X+/X|  .7667.  |X+/X|  .7667.  |X+",
"/X|  .7667.  |X+/X|  .7667.  |X+/X|  .7667.  |X+/X|  .7667.  |X+",
"XX|  .7667.  |X+XX|  .7667.  |X+XX|  .7667.  |X+XX|  .7667.  |X+",
"/X|  .7667.  |X+/X|  .7667.  |X+/X|  .7667.  |X+/X|  .7667.  |X+",
"XX|  .766..  |X+XX|  .766..  |X+XX|  .766..  |X+XX|  .766..  |X+",
"/X|  .7667.  |X+/X|  .7667.  |X+/X|  .7667.  |X+/X|  .7667.  |X+",
"XX|  .766..  |X+XX|  .766..  |X+XX|  .766..  |X+XX|  .766..  |X+",
"/X|  ..66..  |X+/X|  ..66..  |X+/X|  ..66..  |X+/X|  ..66..  |X+",
"XX|  .768..  |X+XX|  .768..  |X+XX|  .768..  |X+XX|  .768..  |X+",
"XX|  ..867.  |X+XX|  ..867.  |X+XX|  ..867.  |X+XX|  ..867.  |X+",
"XX/  .7687.  |X+XX/  .7687.  |X+XX/  .7687.  |X+XX/  .7687.  |X+",
"XX|  ..88..  |X+XX|  ..88..  |X+XX|  ..88..  |X+XX|  ..88..  |X+",
"XX/  a....a  |X+XX/  a....a  |X+XX/  a....a  |X+XX/  a....a  |X+",
"XX/   a..a   |X+XX/   a..a   |X+XX/   a..a   |X+XX/   a..a   |X+",
"XXX/        |XX+XXX/        |XX+XXX/        |XX+XXX/        |XX+",
"XXXX/      |XXX+XXXX/      |XXX+XXXX/      |XXX+XXXX/      |XXX+",
"XXXXX/|/|||XXXX+XXXXX/|/|||XXXX+XXXXX/|/|||XXXX+XXXXX/|/|||XXXX+",
"X XXXXXX XXXXXX+X XXXXXX XXXXXX+X XXXXXX XXXXXX+X XXXXXX XXXXXX+",
" XXXXXXXXXXXXXX+ XXXXXXXXXXXXXX+ XXXXXXXXXXXXXX+ XXXXXXXXXXXXXX+",
"XXd |XXXXXX| Xd+XXd |XXXXXX| Xd+XXd |XXXXXX| Xd+XXd |XXXXXX| Xd+",
" X+  XX XX+  XX+ X+  XX XX+  XX+ X+  XX XX+  XX+ X+  XX XX+  XX+",
"XX++dXXXXX++XXd+XX++dXXXXX++XXd+XX++dXXXXX++XXd+XX++dXXXXX++XXd+",
"XXXddXXXXXXXXdX+XXXddXXXXXXXXdX+XXXddXXXXXXXXdX+XXXddXXXXXXXXdX+",
"e+eeee+e++++++++e+eeee+e++++++++e+eeee+e++++++++e+eeee+e++++++++"
};