/* XPM */
static char *picture[] = {
"64 64 10 1 ",
"  c #464D4F",
"X c #383F40",
"+ c #292A28",
". c #1C1C1B",
"| c #000000",
"/ c #141413",
"6 c #62797E",
"7 c #382B2F",
"8 c #536265",
"9 c #2F1C17",
"||||||||||||||||||||||||||||||||||||||||||||||||||||||||||||||||",
"             X X          X X X                            X X  ",
"XXXXXXXXXXXXXXXXXXXXXXXXXXXXXXXXXXXXXXXXXXXXXXXXXXXXXXXXXXXXXXXX",
"XXXXXXXXXXXXXXXXXXXXXXXXXXXXXXXXXXXXXXXXXXXXXXXXXXXXXXXXXXXXXXXX",
"XXXXXXXXXXXXXXXXXXXXXXXXXXXXXXXXXXXXXXXXXXXXXXXXXXXXXXXXXXXXXXXX",
"XXXXXXXXXXXXXXXXXXXXXXXXXXXXXXXXXXXXXXXXXXXXXXXXXXXXXXXXXXXXXXXX",
"XXXXXXXXXXXXXXXXXXXXXXXXXXXXXXXXXXXXXXXXXXXXXXXXXXXXXXXXXXXXXXXX",
"XXXXXXXXXXXXXXXXXXXXXXXXXXXXXXXXXXXXXXXXXXXXXXXXXXXXXXXXXXXXXXXX",
"                                                                ",
"XXXXXXXXXXXXXXXXXXXXXXXXXXXXXXXXXXXXXXXXXXXXXXXXXXXXXXXXXXXXXXXX",
"                                                                ",
"                                                                ",
"                                                                ",
"                                                                ",
"                                                                ",
"                                                      X         ",
"                                                     X          ",
"                                                   XX8          ",
"                                                 X7X8           ",
"                                              XX7X8    X        ",
"                                           XX7X68    XX         ",
"                                        XX7X68    X7X8          ",
"                                        868    XX7X8     X      ",
"                                            XX7X68     XX       ",
"                                         XX7X68     XXX8        ",
"                                        8668     XX7X8          ",
"                                             XX77X68            ",
"                                          X77X868               ",
"                                         8668                   ",
"                                                                ",
"                                                                ",
"                                                                ",
"                                                                ",
"                                                                ",
"                                                                ",
"                                                                ",
"                                                                ",
"6666666666666666666666666666 6 6666 6666666 6 6 666 6 6 6 666666",
"||||||||||||||||||||||||||||||||||||||||||||||||||||||||||||||||",
"||||||||||||||||||||||||||||||||||||||||||||||||||||||||||||||||",
"./|/.///./|/.///./|/.///./|/.///./|/.///./|/.///./|/.///./|/.///",
"+/|++./++/|++./++/|++./++/|++./++/|++./++/|++./++/|++./++/|++./+",
"+/|++..++/|++..++/|++..++/|++..++/|++..++/|++..++/|++..++/|++..+",
"+/|++..++/|++..++/|++..++/|++..++/|++..++/|++..++/|++..++/|++..+",
"+./++..++./++..++./++..++./++..++./++..++./++..++./++..++./++..+",
"+/|++..++/|++..++/|++..++/|++..++/|++..++/|++..++/|++..++/|++..+",
"+./++..++./++..++./++..++./++..++./++..++./++..++./++..++./++..+",
"+.|++..++.|++..++.|++..++.|++..++.|++..++.|++..++.|++..++.|++..+",
"+./++..++./++..++./++..++./++..++./++..++./++..++./++..++./++..+",
"+./++..++./++..++./++..++./++..++./++..++./++..++./++..++./++..+",
"+//++..++//+...++//++..++//+...++//++..++//+...++//++..++//+...+",
"+./++..++./++..++./++..++./++..++./++..++./++..++./++..++./++..+",
"./|+...+./|+...+./|+...+./|+...+./|+...+./|+...+./|+...+./|+...+",
"+//.+..++//.+..++//.+..++//.+..++//.+..++//.+..++//.+..++//.+..+",
"./|+../+./|+../+./|+../+./|+../+./|+../+./|+../+./|+../+./|+../+",
".||../|..||../|..||../|..||../|..||../|..||../|..||../|..||../|.",
"6666666668666686868686888888686868666666666666666666666668666686",
"        X                X             X X      X X     X       ",
" X     X               XX               X        X     X        ",
"X  6X      6X      6X  X   6X      6X  X   6X   X  6X      6X   ",
"  7XX     7XX     7XX X X 7XX     7XX     7XX  X  7XX     7XX  X",
"X 77      77      77   X  77      77      77  XX  77      77  X ",
"                      X             X         X              X X",
"7999999797977777779797/7/7////7/77777777979779797999999797977777"
};