/* XPM */
static char *picture[] = {
"64 64 12 1 ",
"  c #464D4F",
"X c #383F40",
"+ c #292A28",
". c #1C1C1B",
"| c #000000",
"/ c #141413",
"6 c #62797E",
"7 c #382B2F",
"8 c #536265",
"9 c #2F1C17",
"a c #28221F",
"b c #4B3F38",
"||||||||||||||||||||||||||||||||||||||||||||||||||||||||||||||||",
"             X X          X XXX/|                          X X  ",
"XXXXXXXXXXXXXXXXXXXXXXXXXXXXXXX/| XXXXXXXXXXXXXXXXXXXXXXXXXXXXXX",
"XXXXXXXXXXXXXXXXXXXXXXXXXXXXXXX/| XXXXXXXXXXXXXXXXXXXXXXXXXXXXXX",
"XXXXXXXXXXXXXXXXXXXXXXXXX76 XXX/| X76 XXXXXXXXXXXXXXXXXXXXXXXXXX",
"XXXXXXXXXXXXXXXXXXXXXXXXX7  XXX/| X7  XXXXXXXXXXXXXXXXXXXXXXXXXX",
"XXXXXXXXXXXXXXXXXXXXXXXXX777XXX/| X77XXXXXXXXXXXXXXXXXXXXXXXXXXX",
"XXXXXXXXXXXXXXXXXXXXXXXXXX77XXX/| XXXXXXXXXXXXXXXXXXXXXXXXXXXXXX",
"                          bb   a/6                              ",
"XXXXXXXXXXXXXXXXXXXXXXXXXX7XXXX/| XXXXXXXXXXXXXXXXXXXXXXXXXXXXXX",
"                           b   a/6                              ",
"                          b    /|6                              ",
"                               a/6                              ",
"                               a/6                              ",
"                               a/6                              ",
"                               a/6                    X         ",
"                               a/6                   X          ",
"                               //8                 XX8          ",
"                               a/6               X7X8           ",
"                               //8            XX7X8    X        ",
"                               a/6         XX7X68    XX         ",
"                               //8      XX7X68    X7X8          ",
"                               a/8      868    XX7X8     X      ",
"                               //8          XX7X68     XX       ",
"                               //8       XX7X68     XXX8        ",
"                               //8      8668     XX7X8          ",
"                               //            XX77X68            ",
"                               //8        X77X868               ",
"                               //        8668                   ",
"                               //8                              ",
"                               //                               ",
"                               /a                               ",
"                               a/                               ",
"                         76X   /a  76X                          ",
"                         7XX   a/  7XX                          ",
"                         77    /a  77                           ",
"                               aa                               ",
"6666666666666666666666666666 6 aa 6 6666666 6 6 666 6 6 6 666666",
"||||||||||||||||||||||||||||||||||||||||||||||||||||||||||||||||",
"||||||||||||||||||||||||||||||||||||||||||||||||||||||||||||||||",
"./|/.///./|/.///./|/.///./|/.///./|/.///./|/.///./|/.///./|/.///",
"+/|++./++/|++./++/|++./++/|++./++/|++./++/|++./++/|++./++/|++./+",
"+/|++..++/|++..++/|++..++/|++..++/|++..++/|++..++/|++..++/|++..+",
"+/|++..++/|++..++/|++..++/|++..++/|++..++/|++..++/|++..++/|++..+",
"+./++..++./++..++./++..++./++..++./++..++./++..++./++..++./++..+",
"+/|++..++/|++..++/|++..++/|++..++/|++..++/|++..++/|++..++/|++..+",
"+./++..++./++..++./++..++./++..++./++..++./++..++./++..++./++..+",
"+.|++..++.|++..++.|++..++.|++..++.|++..++.|++..++.|++..++.|++..+",
"+./++..++./++..++./++..++./++..++./++..++./++..++./++..++./++..+",
"+./++..++./++..++./++..++./++..++./++..++./++..++./++..++./++..+",
"+//++..++//+...++//++..++//+...++//++..++//+...++//++..++//+...+",
"+./++..++./++..++./++..++./++..++./++..++./++..++./++..++./++..+",
"./|+...+./|+...+./|+...+./|+...+./|+...+./|+...+./|+...+./|+...+",
"+//.+..++//.+..++//.+..++//.+..++//.+..++//.+..++//.+..++//.+..+",
"./|+../+./|+../+./|+../+./|+../+./|+../+./|+../+./|+../+./|+../+",
".||../|..||../|..||../|..||../|..||../|..||../|..||../|..||../|.",
"6666666668666686868686888888686868666666666666666666666668666686",
"        X                X             X X      X X     X       ",
" X     X               XX               X        X     X        ",
"X  6X      6X      6X  X   6X      6X  X   6X   X  6X      6X   ",
"  7XX     7XX     7XX X X 7XX     7XX     7XX  X  7XX     7XX  X",
"X 77      77      77   X  77      77      77  XX  77      77  X ",
"                      X             X         X              X X",
"7999999797977777779797/7/7////7/77777777979779797999999797977777"
};