/* XPM */
static char *picture[] = {
"64 64 11 1 ",
"  c #464D4F",
"X c #383F40",
"+ c #292A28",
". c #1C1C1B",
"| c #000000",
"/ c #9F7315",
"6 c #141413",
"7 c #62797E",
"8 c #382B2F",
"9 c #2F1C17",
"a c #536265",
"||||||||||||||||||||||||||||||||||||||||||||||||||||||||||||||||",
"             X X          X X X                            X X  ",
"XXXXXXXXXXXXXXXXXXXXXXXXXXXXXXXXXXXXXXXXXXXXXXXXXXXXXXXXXXXXXXXX",
"XXXXXXXXXXXXXXXXXXXXXXXXXXXXXXXXXXXXXXXXXXXXXXXXXXXXXXXXXXXXXXXX",
"XXXXXXXXXXXXXXXXXXXXXXXXXXXXXXXXXXXXXXXXXXXXXXXXXXXXXXXXXXXXXXXX",
"XXXXXXXXXXXXXXXXXXXXXXXXXXXXXXXXXXXXXXXXXXXXXXXXXXXXXXXXXXXXXXXX",
"XXXXXXXXXXXXXXXXXXXXXXXXXXXXXXXXXXXXXXXXXXXXXXXXXXXXXXXXXXXXXXXX",
"XXXXXXXXXXXXXXXXXXXXXXXXXXXXXXXXXXXXXXXXXXXXXXXXXXXXXXXXXXXXXXXX",
"                                                                ",
"XXXXXXXXXXXXXXXXXXXXXXXXXXXXXXXXXXXXXXXXXXXXXXXXXXXXXXXXXXXXXXXX",
"                                                                ",
"                                                                ",
"                                                                ",
"                                                                ",
"                                                                ",
"                                                                ",
"                                                                ",
"                                                                ",
"                                                                ",
"                                                                ",
"                                                                ",
"                                                                ",
"                                                                ",
"                                                                ",
"                                                                ",
"                                                                ",
"                                                                ",
"                                                                ",
"////////////////////////////////////////////////////////////////",
"////////////////////////////////////////////////////////////////",
"////////////////////////////////////////////////////////////////",
"////////////////////////////////////////////////////////////////",
"                                                                ",
"                                                                ",
"                                                                ",
"                                                                ",
"                                                                ",
"7777777777777777777777777777 7 7777 7777777 7777777 7 7 7 777777",
"||||||||||||||||||||||||||||||||||||||||||||||||||||||||||||||||",
"||||||||||||||||||||||||||||||||||||||||||||||||||||||||||||||||",
".6|6.666.6|6.666.6|6.666.6|6.666.6|6.666.6|6.666.6|6.666.6|6.666",
"+6|++.6++6|++.6++6|++.6++6|++.6++6|++.6++6|++.6++6|++.6++6|++.6+",
"+6|++..++6|++..++6|++..++6|++..++6|++..++6|++..++6|++..++6|++..+",
"+6|++..++6|++..++6|++..++6|++..++6|++..++6|++..++6|++..++6|++..+",
"+.6++..++.6++..++.6++..++.6++..++.6++..++.6++..++.6++..++.6++..+",
"+6|++..++6|++..++6|++..++6|++..++6|++..++6|++..++6|++..++6|++..+",
"+.6++..++.6++..++.6++..++.6++..++.6++..++.6++..++.6++..++.6++..+",
"+.|++..++.|++..++.|++..++.|++..++.|++..++.|++..++.|++..++.|++..+",
"+.6++..++.6++..++.6++..++.6++..++.6++..++.6++..++.6++..++.6++..+",
"+.6++..++.6++..++.6++..++.6++..++.6++..++.6++..++.6++..++.6++..+",
"+66++..++66+...++66++..++66+...++66++..++66+...++66++..++66+...+",
"+.6++..++.6++..++.6++..++.6++..++.6++..++.6++..++.6++..++.6++..+",
".6|+...+.6|+...+.6|+...+.6|+...+.6|+...+.6|+...+.6|+...+.6|+...+",
"+66.+..++66.+..++66.+..++66.+..++66.+..++66.+..++66.+..++66.+..+",
".6|+..6+.6|+..6+.6|+..6+.6|+..6+.6|+..6+.6|+..6+.6|+..6+.6|+..6+",
".||..6|..||..6|..||..6|..||..6|..||..6|..||..6|..||..6|..||..6|.",
"777777777a7777a7a7a7a7aaaaaa7a7a7a77777777777777777777777a7777a7",
"        X                X             X X      X X     X       ",
" X     X               XX               X        X     X        ",
"X  7X      7X      7X  X   7X      7X  X   7X   X  7X      7X   ",
"  8XX     8XX     8XX X X 8XX     8XX     8XX  X  8XX     8XX  X",
"X 88      88      88   X  88      88      88  XX  88      88  X ",
"                      X             X         X              X X",
"8999999898988888889898686866668688888888989889898999999898988888"
};