/* XPM */
static char *picture[] = {
"64 64 14 1 ",
"  c #464D4F",
"X c #383F40",
"+ c #292A28",
". c #1C1C1B",
"| c #000000",
"/ c #141413",
"6 c #382B2F",
"7 c #62797E",
"8 c #00749C",
"9 c #3BBAD0",
"a c #536265",
"b c #28221F",
"c c #2F1C17",
"d c #014B4D",
"||||||||||||||||||||||||||||||||||||||||||||||||||||||||||||||||",
"      X XXX/|                                 X XXX/|        X  ",
"XXXXXXXXXXX/| XXXXXXXXXXXXXXXXXXXXXXXXXXXXXXXXXXXXX/| XXXXXXXXXX",
"XXXXXXXXXXX/| XXXXXXXXXXXXXXXXXXXXXXXXXXXXXXXXXXXXX/| XXXXXXXXXX",
"XXXXX67 XXX/| X67 XXXXXXXXXXXXXXXXXXXXXXXXXXX67 XXX/| X67 XXXXXX",
"XXXXX6  XXX/| X6  XXXXXXXXXXXXXXXXXXXXXXXXXXX6  XXX/| X6  XXXXXX",
"XXXXX66XXXX/| X66XXXXXXXXXXXXXXXXXXXXXXXXXXXX66XXXX/| X66XXXXXXX",
"XXXXXXXXXXX/| XXXXXXXXXXXXXXXXXXXXXXXXXXXXXXXXXXXXX/| XXXXXXXXXX",
"           b/7                                     b/7          ",
"XXXXXXXXXXX/| XXXXXXXXXXXXXXXXXXXXXXXXXXXXXXXXXXXXX/| XXXXXXXXXX",
"           b/7                                     b/7          ",
"           /|7                                     /|7          ",
"           b/7              X666666X               b/7          ",
"           b/7            X6666666666X             b/7          ",
"           b/7           6666......6666            b/7          ",
"           b/7          666..d8888d..666           b/7          ",
"           b/7         666.d88888888d.666          b/7          ",
"           //a        X66.d8888888998d.66X         //a          ",
"           b/7        66.d888888899998d.66         b/7          ",
"           //a       XXX6888888899999886XXX        //a          ",
"           b/7       66.d88888899999888d.66        b/7          ",
"           //a       XX688888899999888886XX        //a          ",
"           b/a       XX688888999998888986XX        b/a          ",
"           //a       XX688889999988889986XX        //a          ",
"           //a       XX688899999888899986XX        //a          ",
"           //a       XX6d89999988889998d6XX        //a          ",
"           //        XXX6899998888999986XXX        //           ",
"           //a       aXX6d899888899998d6XXa        //a          ",
"           //         XXX6d8888899998d6XXX         //           ",
"           //a        aXXX6d88899988d6XXXa         //a          ",
"           //          aXXX66d8888d66XXXa          //           ",
"           /b           aXXXX666666XXXXa           /b           ",
"           b/            aXXXXXXXXXXXXa            b/           ",
"     67X   /b              aXXXXXXXXa              /b  67X      ",
"     6XX   b/                aaaaaa                b/  6XX      ",
"     66    /b  67X                           67X   /b  66       ",
"           bb  6XX                           6XX   bb           ",
"77777777 7 bb  66                            66    bb 7 77777777",
"||||||||||||b                                      b||||||||||||",
"||||||||||||| 7 7777777 7 7 7     7 7777777 7777 7 |||||||||||||",
"./|/.///./|||||||||||||||||||||||||||||||||||||||||||///./|/.///",
"+/|++./++/|/||||||||||||||||||||||||||||||||||||||||../++/|++./+",
"+/|++..++/|+.///./|/.///./|/.///./|/.///./|/.///./|.+..++/|++..+",
"+/|++..++/|++..++/|++..++/|++..++/|++..++/|++..++/|++..++/|++..+",
"+./++..++./++..++./++..++./++..++./++..++./++..++./++..++./++..+",
"+/|++..++/|++..++/|++..++/|++..++/|++..++/|++..++/|++..++/|++..+",
"+./++..++./++..++./++..++./++..++./++..++./++..++./++..++./++..+",
"+.|++..++.|++..++.|++..++.|++..++.|++..++.|++..++.|++..++.|++..+",
"+./++..++./++..++./++..++./++..++./++..++./++..++./++..++./++..+",
"+./++..++./++..++./++..++./++..++./++..++./++..++./++..++./++..+",
"+//++..++//+...++//++..++//+...++//++..++//+...++//++..++//+...+",
"+./++..++./++..++./++..++./++..++./++..++./++..++./++..++./++..+",
"./|+...+./|+...+./|+...+./|+...+./|+...+./|+...+./|+...+./|+...+",
"+//.+..++//.+..++//.+..++//.+..++//.+..++//.+..++//.+..++//.+..+",
"./|+../+./|+../+./|+../+./|+../+./|+../+./|+../+./|+../+./|+../+",
".||../|..||../|..||../|..||../|..||../|..||../|..||../|..||../|.",
"777777777a7777a7a7a7a7aaaaaa7a7a7a77777777777777777777777a7777a7",
"        X                X             X X      X X     X       ",
" X     X               XX               X        X     X        ",
"X  7X      7X      7X  X   7X      7X  X   7X   X  7X      7X   ",
"  6XX     6XX     6XX X X 6XX     6XX     6XX  X  6XX     6XX  X",
"X 66      66      66   X  66      66      66  XX  66      66  X ",
"                      X             X         X              X X",
"6cccccc6c6c6666666c6c6/6/6////6/66666666c6c66c6c6cccccc6c6c66666"
};