/* XPM */
static char *picture[] = {
"64 64 12 1 ",
"  c #464D4F",
"X c #383F40",
"+ c #292A28",
". c #1C1C1B",
"| c #000000",
"/ c #141413",
"6 c #536265",
"7 c #62797E",
"8 c #382B2F",
"9 c #4B3F38",
"a c #2F1C17",
"b c #889C9E",
"||||||||||||||||||||||||||||||||||||||||||||||||||||||||||||||||",
"             X X          X X X                            X X  ",
"XXXXXXXXXXXXXXXXXXXXXXXXXXXXXXXXXXXXXXXXXXXXXXXXXXXXXXXXXXXXXXXX",
"XXXXXXXXXXXXXXXXXXXXXXXXXXXXXXXXXXXXXXXXXXXXXXXXXXXXXXXXXXXXXXXX",
"XXXXXXXXXXXXXXXXXXXXXXXXXXXXXXXXXXXXXXXXXXXXXXXXXXXXXXXXXXXXXXXX",
"XXXXXXXXXXXXXXXXXXXXXXXXXXXXXXXXXXXXXXXXXXXXXXXXXXXXXXXXXXXXXXXX",
"XXXXXXXXXXXXXXXXXXXXXXXXXXXXXXXXXXXXXXXXXXXXXXXXXXXXXXXXXXXXXXXX",
"XXXXXXXXXXXXXXXXXXXXXXXXXXXXXXXXXXXXXXXXXXXXXXXXXXXXXXXXXXXXXXXX",
"                                                                ",
"XXXXXXXXXXXXXXXXXXXXXXXXXXXXXXXXXXXXXXXXXXXXXXXXXXXXXXXXXXXXXXXX",
"                                                                ",
"                                                                ",
"                                                                ",
"             66666666666666          66666666666666             ",
"            6bb7b77776767776        6bb7b77776767776            ",
"            X+8++++.+.+..++X        X+8++++.+.+..++X            ",
"            6766666666666666        6766666666666666            ",
"            X8888+++.+.++++X        X8888+++.+.++++X            ",
"            6766666666666666        6766666666666666            ",
"            X88+8+8++...8.+X        X88+8+8++...8.+X            ",
"            6766666666666666        6766666666666666            ",
"            X....+.++8.8888X        X....+.++8.8888X            ",
"            6766666666666666        6766666666666666            ",
"            X+++.+....8.8..X        X+++.+....8.8..X            ",
"                                     999    999999              ",
"                                     999     9999               ",
"                                      99     999                ",
"                                      9      99 9               ",
"                                       9     999                ",
"                                      9       9                 ",
"                                             99                 ",
"                                              9                 ",
"                                              9                 ",
"                                                                ",
"                                              9                 ",
"                                                                ",
"                                                                ",
"7777777777777777777777777777 7 7777 7777777 7777777 7 7 7 777777",
"||||||||||||||||||||||||||||||||||||||||||||||||||||||||||||||||",
"||||||||||||||||||||||||||||||||||||||||||||||||||||||||||||||||",
"./|/.///./|/.///./|/.///./|/.///./|/.///./|/.///./|/.///./|/.///",
"+/|++./++/|++./++/|++./++/|++./++/|++./++/|++./++/|++./++/|++./+",
"+/|++..++/|++..++/|++..++/|++..++/|++..++/|++..++/|++..++/|++..+",
"+/|++..++/|++..++/|++..++/|++..++/|++..++/|++..++/|++..++/|++..+",
"+./++..++./++..++./++..++./++..++./++..++./++..++./++..++./++..+",
"+/|++..++/|++..++/|++..++/|++..++/|++..++/|++..++/|++..++/|++..+",
"+./++..++./++..++./++..++./++..++./++..++./++..++./++..++./++..+",
"+.|++..++.|++..++.|++..++.|++..++.|++..++.|++..++.|++..++.|++..+",
"+./++..++./++..++./++..++./++..++./++..++./++..++./++..++./++..+",
"+./++..++./++..++./++..++./++..++./++..++./++..++./++..++./++..+",
"+//++..++//+...++//++..++//+...++//++..++//+...++//++..++//+...+",
"+./++..++./++..++./++..++./++..++./++..++./++..++./++..++./++..+",
"./|+...+./|+...+./|+...+./|+...+./|+...+./|+...+./|+...+./|+...+",
"+//.+..++//.+..++//.+..++//.+..++//.+..++//.+..++//.+..++//.+..+",
"./|+../+./|+../+./|+../+./|+../+./|+../+./|+../+./|+../+./|+../+",
".||../|..||../|..||../|..||../|..||../|..||../|..||../|..||../|.",
"7777777776777767676767666666767676777777777777777777777776777767",
"        X                X             X X      X X     X       ",
" X     X               XX               X        X     X        ",
"X  7X      7X      7X  X   7X      7X  X   7X   X  7X      7X   ",
"  8XX     8XX     8XX X X 8XX     8XX     8XX  X  8XX     8XX  X",
"X 88      88      88   X  88      88      88  XX  88      88  X ",
"                      X             X         X              X X",
"8aaaaaa8a8a8888888a8a8/8/8////8/88888888a8a88a8a8aaaaaa8a8a88888"
};