/* XPM */
static char *picture[] = {
"64 64 27 1 ",
"  c #4D1C1A",
"X c #451816",
"+ c #3C1313",
". c #3B2921",
"| c #2E0E0F",
"/ c #200707",
"6 c #2E221C",
"7 c #5B231E",
"8 c #4D1F1D",
"9 c #612723",
"a c #463124",
"b c #000000",
"c c #68312E",
"d c #2A1814",
"e c #23120C",
"f c #74362A",
"g c #7E3C34",
"h c #58221F",
"i c #844241",
"j c #1B0808",
"k c #491C19",
"l c #713633",
"m c #693433",
"n c #170606",
"o c #271911",
"p c #3E1A15",
"q c #472019",
".6..aa.a....66666.6.aaa.a........6.6666.....66666.6.66a.a.......",
"7 X++a9imll77l997 X++afimll77Xcc7 X++.9imff777777 X+6a.9ig999Xcc",
" X X/.g8    79   X X/.g8   78c8  X X/6g8   788   8 X/.af8   7c8 ",
"  X |.9    88     X |69   78 8    X |.9   78    8   |a9c   888  ",
"    /.+X   h+       /.+X   h+       /69  9  8h+++X X/6 X   h+   ",
"   X/.X    ++      X/.X  h+++      X/.X  h++ +X+  XX/6X X  ++   ",
"+  +/.X++ X||  ++  +b.X+++++X  ++  +/.X++++X  + +X +/6+X  X||  +",
"||//|a+/////||||||/b|ab///|/|bb/||//|a+///||||||||//|6+/|///||||",
"66.6..66..6.666666.6..6a6a.6666.......66666.6..66.6........6...6",
"9f9999+9k+++XX+a797777|XX  X+||.9iggc99kk+++XXaa9ifcc9c7777 X++a",
"c8     79 +XX /.98XXXXXXX8X8X+b6f777  79  +X +/af  98 88   8 X/.",
"9  7       X X/a7XX XXXXXXXXXX/.7 7 87  X|   +/.XX X      8   |a",
"+ X    X  +X X|.78XXXXXX|||+X+b.788 8  +bb9  X/6+ X    h+++X X/6",
"+X X X   X+ X /.+XXXXXX++|XX++ba 8 8  XX||9   |6+X X   +X+  XX/.",
"++X X X  X+XX+/.|+X|||X||X|+X|b.X    +  9f    /6++X X   + +X +/6",
"+///|||||||//b|a|b/b///b////bb/a./|/||/|n||//b|6+///|/||||||//|.",
"66666.6.aaa.a........6.6666.....66666.6.66a.a........6..aa.a....",
" 977 X+|+a6jjjjjejjejjjjo.9imff77 +X  X++a.9ig999Xcc7 X++aXg999 ",
" 7XXX+X+b.jjejedeeededeej6g8   78+bb98 X/.af8   7c8  X X/.98XXXX",
"8XXXXX+X/6jejedededddeded.9   78 |||f   |a9c   888    X |.7XXXX8",
"|XXXXXXXb.jeededdddddddde69  9  8 9f X X/6 X   h+       /.|+XXX ",
"|XXXXXX+b.jededddddedddee.X  h++ +X+  XX/6X X  ++      X/.+XXXX|",
"/XX||XX|b.ededddedededdde.X++++X  + +X +/6+X  X||  ++  +/.+||X+/",
"//////bb/a6eeeeedededdde6a+///||||||||//|6//|///||||||//|a|bbbbb",
".6........6...666.6..66..6.666666.6..6a6a.6666.......66666.6..66",
"ifcc9c7777 X++a7X7777|7k|||++|a9f9999+  77 X++.7g99c77kk|||++|a9",
"  98 88   8 X/.c8XXXXX 7X|++Xb.c8       8 8 X/6X   XX 7XX|+X|baf",
"X X      8   |a7XX XXXXXXX+X+ba9  7          |. X X8 XXXXXXX|b.X",
" X    h+++X X/6|X+XXXX+XX|+X+/.98      +++X X/. 88X8XXXXX+XX+b6+",
"X X   +X+  XX/.|+X+X+XXX+|X+Xb.X      XX+  XX/aX8X8XX+XX+XXXX/6+",
"+X X   + +X +/6||+X+X+XX+|++|b.+X +++ ++ +X +/.+XXXX|XXXXXXXXb6+",
"///|/||||||//|.|bbb///////bbb/a|/|/|||/||||//|a|b/b//b/n//bbb/6+",
"6..aa.a....66666.6.aaa.a........6.6666.....66666.6.66a.a........",
" X++a7g999  977 X+||afimll77Xcc7 X++.9imff777777 X+6a.9ig999Xcc7",
"X X/.98XXXX 7XXX+X+b.g8   78c8  X X/6g8   788   8 X/.af8   7c8  ",
" X |.7XXXX88XXXXX+X/69   78 8    X |.9   78    8   |a9c   888   ",
"   /.|+XXX |XXXXXXXb.+X   h+       /69  9  8h+++X X/6 X   h+    ",
"  X/.+XXXX||XXXXXX+b.X  h+++      X/.X  h++ +X+  XX/6X X  ++    ",
"  +/.+||X+//XX||XX|b.X+++++X  ++  +/.X++++X  + +X +/6+X  X||  ++",
"|//|a|bbbbb//////bb/ab///|/|bb/||//|a+///||||||||//|6+/|///|||||",
"666.6..66..6.666666.6..6a6a.6666.......66666.6..66.6........6...",
"a9f9999+9k+++XX+a9f9999+  77 X++.9iggc99kk+++XXqa9ifcc9c7777 X++",
".c8     79 +XX /.c8       8 8 X/6f777  79  +X +/af  98 88   8 X/",
"a9  7       X X/a9  7          |.7 7 87       +/.XX X      8   |",
"6+ X    X  +X X|.98      +++X X/.788 8     X  X/6+ X    h+++X X/",
".+X X X   X+ X /.X      XX+  XX/a 8 8  X  X    |6+X X   +X+  XX/",
"6++X X X  X+XX+/.+X +++ ++ +X +/.X    +        /6++X X   + +X +/",
".+///|||||||//b|a+/|/|||/||||//|ap/|/||/|n||//b|6+///|/||||||//|",
"66.6.aaa.a........6.6666.....66666.6.66a.a........6..aa.a....666",
"97 X+Xa9imll77Xcc7 X++.9imff777777 X++a.7g9777+cc X+||afimll77l9",
"  X X/.g8   78c8  X X/6g8   788   8 X/.aX8XXX c8XX+X+b.g8    79 ",
"   X |69   78 8    X |.9   78    8   |a7cXXX888XXXX+X/.9    88  ",
"     /.+X   h+       /69  9  8h+++X X/6X+XXX |XXXXXXXb.+X   h+  ",
"    X/.X  h+++      X/.X  h++ +X+  XX/6+X+XX||XXXXXX+b.X    ++  ",
"++  +b.X+++++X  ++  +/.X++++X  + +X +/6|+XX+//XX||XX|b.X++ X||  ",
"|||/b|a+///|/|bb/||//|a+///||||||||//|6bb/bbb//////bb/a+/////|||",
"....66666.6..66.6........6...666.6..66..6.666666.6..6a6a.6666...",
"ggc99kk+++XX+a9ifcc9c7777 X++a9f9999+9k+++XX+a7X7777|XX  X+||.9i",
"77  79  +X +/af  98 88   8 X/.c8     79 +XX /.c8XXXXXXX8X8X+b6f7",
"7 87       +/.XX X      8   |a9  7       X X/a7XX XXXXXXXXXX/.7 ",
"8 8     X  X/6+ X    h+++X X/6+ X    X  +X X|.78XXXXXX|||+X+b.78",
" 8  X  X    |6+X X   +X+  XX/.+X X X   X+ X /.+XXXXXX++|XX++ba 8",
"   +        /6++X X   + +X +/6++X X X  X+XX+/.|+X|||X||X|+X|b.X ",
"|/||/|n||//b|6+///|/||||||//|.+///|||||||//b|a/b/b///b////bb/a+/"
};