/* XPM */
static char *picture[] = {
"64 64 26 1 ",
"  c #464D4F",
"X c #08257B",
"+ c #383F40",
". c #000000",
"| c #141413",
"/ c #1C1C1B",
"6 c #292A28",
"7 c #62797E",
"8 c #382B2F",
"9 c #536265",
"a c #B2B4AE",
"b c #0B3A7B",
"c c #28221F",
"d c #070872",
"e c #889C9E",
"f c #2F1C17",
"g c #040656",
"h c #115B82",
"i c #4B3F38",
"j c #243C5B",
"k c #858782",
"l c #35464F",
"m c #1A95A7",
"n c #232D46",
"o c #2CE1AB",
"p c #373F4B",
"................................................................",
"  + +++|.                        c   + +          + +++|.       ",
"+++++++|. ++++++++++++++++++++ ++c+++++++++++++++++++++|. ++++++",
"+++++++|. ++++++++++++++++++++9++8+++++++++++++++++++++|. ++++++",
"++87 ++|. +87 ++++++++++++++++ ++c+++++++++++++++87 +++|. 87 +++",
"++8  ++|. +8  ++++++++++++++++9++8+++++++++++++++8  +++|. 8  8++",
"++88+++|. +88+++++++++++++++++9++8+++++++++++++++88++++|. 888+++",
"+++++++|. ++++++++++++++++++++9++8+++++++++++++++++++++|. +88+++",
"       c|7                    7  +                     c|7 ii   ",
"+++++++|. ++++++++++++++++++++9++8+++++++++++++++++++++|. +88+++",
"       c|7                    7  +                     c|7 ii   ",
"       |.7                    7  +                     |.7 ii   ",
"       c|7                    7  +                     c|7  i   ",
"       c|7    9eeeee7e77777777    977777979999999      c|7 i    ",
"       c|7   9e                                        c|7  i   ",
"       c|7   e 7                                7 +    c|7 i    ",
"       ||9   e8  +888888888+8+8+++++++ + +     8  +    ||9      ",
"       c|7   e  +ljXXXXXXXXXXXXXXXXXXXXXXXXXXjl   +    c|7      ",
"       ||9   e  8jommhhhhbhbbbbXbXbXXXXXXXXXXXj   +    ||9      ",
"       c|7   e  8XmhbbbbbbbbXbXbXXXXXXXXXXXXXXX9  +    c|7      ",
"       ||9   7  8XhbbbbbbXbXbXXXXXXXXXXXXXXXXXX9  +    ||9      ",
"       c|9   e  8XhbbbXbXbXXXXXXXXXXXXXXXXXXXXd9  +    c|9      ",
"       /|9   7  8XhbbXbXXXXXXXXXXXXXXXXXXXXXXXX9  +    /|9      ",
"       /|9   7  8XbbXbXXXXXXXkkkkkkXXXXXXXXXXXd9  +    /|9      ",
"       //9   7  8XhbbXXXXXXXXXXXXXXXXXXXXXXXXXd7  +    //9      ",
"       /|9   7  8XbbXXXXXXXXXXXXXXXXXXXXXXXXXXd9  +    /|9      ",
"       |/9   7  8XbXXaaXaXaaXaaaXXXXXXXXXXXXXXd7  +    |/9      ",
"       /|9   7  +XXbXXXXXXXXXXXXXXXXXXXXXXXXXXd7  +    /|9      ",
"       ||9   7  8XbXXaXaaaaXaaXXXXXXXXXXXXXXXXg7  +    ||9      ",
"       ||9   9  +XXbXXXXXXXXXXXXXXXXXXXXXXXXXXd7  +    ||9      ",
"       |c9   7  +XbXXXXXXXXXXXXXXXXXXXXXXXXXXXg7  +    |c9      ",
"       c|9   9  +XXXXaaaXaXaXaaaaaXaaXaXaaXXXXg7  8    c|9      ",
"       |c9   9  +XbXXXXXXXXXXXXXXXXXXXXXXXXXXXge  +    |c9      ",
"       c|9   9  +XXXXaaXaaaaaXaXaaaaXaaaaXXXXXg7  8    c|9      ",
"       |c9   9   XXXXXXXXXXXXXXXXXXXXXXXXXXXXXge  8    |c9      ",
"       cc9   9  +XXXXXXXXXXXXXXXXXXXXXXXXXXXXdg7  8    cc9      ",
"       cc9   9   XXXXXXXXXXXaaaXaaXaaXXXXXXXXXge  8    c|9      ",
"7777 7 c|9   9   XXXXXXXXXXXXXXXXXXXXXXXXXXXXdge  8    ||9      ",
".........9   9   XXXXXXXXXXXXXXXXXXXXXXXXXdXdXge  8    ||.......",
".........9   9   jXXXXXXXXXXXXXXXXXXXXXdXdXdXdne  8    |6.......",
"/|.|/||||9   9   ljXXXXdXddddddddddgdggggggggnp7  8    |||.|/|||",
"6|.66/|6|9   9     9 9 999999999979777777eeeee7   8    |6|.66/|6",
"6|.66//6/9   9 7                                7 8    |6|.66//6",
"6|.66//6|9    8                                8 8+    |6|.66//6",
"6/|66//6/      ++++++++++8+8+88888888888888888888+     |6/|66//6",
"6|.66//6/9                                             .6|.66//6",
"6/|66//6/9                                             |6/|66//6",
"6/.66//6/7                                             .6/.66//6",
"6/|66//6/77777777 7 7 7777777777777777777 7 777777 7   .6/|66//6",
"6/|66//6/...............................................6/|66//6",
"6||66//6/|.|/|||/|.|/|||/|.|/|||/|.|/|||/|.|/|||/|.|/|||6||66//6",
"6/|66//66|.66/|66|.66/|66|.66/|66|.66/|66|.66/|66|.66/|66/|66//6",
"/|.6///66|.66//66|.66//66|.66//66|.66//66|.66//66|.66//6/|.6///6",
"6||/6//66|.66//66|.66//66|.66//66|.66//66|.66//66|.66//66||/6//6",
"/|.6//|6/|.6//|6/|.6//|6/|.6//|6/|.6//|6/|.6//|6/|.6//|6/|.6//|6",
"/..//|.//..//|.//..//|.//..//|.//..//|.//..//|.//..//|.//..//|./",
"7777777779777797979797999999797979777777777777777777777779777797",
"        +                +             + +      + +     +       ",
" +     +               ++               +        +     +        ",
"+  7+      7+      7+  +   7+      7+  +   7+   +  7+      7+   ",
"  8++     8++     8++ + + 8++     8++     8++  +  8++     8++  +",
"+ 88      88      88   +  88      88      88  ++  88      88  + ",
"                      +             +         +              + +",
"8ffffff8f8f8888888f8f8|8|8||||8|88888888f8f88f8f8ffffff8f8f88888"
};