/* XPM */
static char *picture[] = {
"64 64 22 1 ",
"  c #464D4F",
"X c #141413",
"+ c #383F40",
". c #000000",
"| c #62797E",
"/ c #292A28",
"6 c #1C1C1B",
"7 c #382B2F",
"8 c #536265",
"9 c #191B1D",
"a c #242A2B",
"b c #28221F",
"c c #334043",
"d c #889C9E",
"e c #2F1C17",
"f c #D0B702",
"g c #4B3F38",
"h c #866D0E",
"i c #BC240D",
"j c #251713",
"k c #5B1A10",
"l c #574310",
"................................................................",
"  + +++X.                        b   + +          + +++X.       ",
"+++++++X. ++++++++++++++++++++ ++b+++++++++++++++++++++X. ++++++",
"+++++++X. ++++++++++++++++++++8++7+++++++++++++++++++++X. ++++++",
"++7| ++X. +7| ++++++++++++++++ ++b+++++++++++++++7| +++X. 7| +++",
"++7  ++X. +7  ++++++++++++++++8++7+++++++++++++++7  +++X. 7  7++",
"++77+++X. +77+++++++++++++++++8++7+++++++++++++++77++++X. 777+++",
"+++++++X. ++++++++++++++++++++8++7+++++++++++++++++++++X. +77+++",
"       bX|                    |  +                     bX| gg   ",
"+++++++X. ++++++++++++++++++++8++7+++++++++++++++++++++X. +77+++",
"       bX|                    |  +                     bX| gg   ",
"       X.|                    |  +                     X.| gg   ",
"       bX|                    |  +                     bX|  g   ",
"       bX|    8ddddd|d||||||||    8|||||8|8888888      bX| g    ",
"       bX|   8d                                        bX|  g   ",
"       bX|   d |                                | +    bX| g    ",
"       XX8   d7  +777777777+7+7+++++++ + +     7  +    XX8      ",
"       bX|   d  +XXXXXXXXXXXXXXXXXXXXXXXXXXXXX/   +    bX|      ",
"       XX8   d  7X|caaaaa9a9999X9X9XXXXXXX9XXXX8  +    XX8      ",
"       bX|   d  7Xca99999999X9X9XXXXXXXXX9XXXXX8  +    bX|      ",
"       XX8   |  7Xa999999X9X9XXXXXXXXX9XXaXXXX.8  7+   XX8      ",
"       bX8   d  7Xa999X9X9X99aXXXXXXXX9XXaXXXXX8 7g 8  bX8      ",
"       6X8   |  7Xa99X9XXXXXXXacXXXXX9XXcXXXXX.8 + |8  6X8      ",
"       6X8   |  7X99X9XXXXXXXXXXcXaaaXXccXXXXX.|  88   6X7+     ",
"       668   |  7Xa99XXXXXXXXXXXXccX9aacXXXX9X.8  +    6Xb 8    ",
"       6X8   |  7X99XXXXXXXXXX9XXaXaXXXcXXcaXX.|  +    6Xb|8    ",
"       X68   |  7X9XXXXXXXXXXXX9XaX|9XX|ccXXXX.|  +    XX|8     ",
"       6X8   |  +XX9XXXXXXXX99XXaXX9|9|caXXXXX.|  +    6X8      ",
"       XX8   |  7X9XXXXXXXXXXX99a9XXaacXaXXXXX.|  +    XX8      ",
"       XX8   8  +XX9XXXXXXXXXXXXaX9|aa9XaXXXXX.|  +    XX8      ",
"       Xb8   |  +X9XXXXXXXXXXXXXcc|Xc9|XaXXXXX.|  +    Xb8      ",
"       bX8   8  +XXXXXXXXXXXacccXaXXXcX|XXXXXX.|  7    bX8      ",
"       Xb8   8  +X9XXXX99aaaXXXXXXaa9cXacXXXXX.d  +    Xb8      ",
"       bX8   8  +XXX999XXXXXXXXXXXXXa|aXXcXXXX.|  7    bX8      ",
"       Xb8   8   XXXXXXXXXXXXXXXXXXXXa|XXXaXXX.d  7    Xb8      ",
"       bb8   8  +XXXXXXXXXXXXXXXXXXXXXcXXXXaXX.|  7    bb8      ",
"       bb8   8   XXXXXXXXXXXXXXXXXXXXXaXXXXX9X.d  7    bX8      ",
"|||| | bX8   8   XXXXXXXXXXXXXXXXXXXXXaXXXXXXX.d  7    XX8      ",
".........8   8   XXXXXXXXXXXXXXXXXXXXX9XXXXXXX.d  7    XX.......",
".........8   8   XXXXXXXXXXXXXXXXXXXXXXXXXXXX..d  7    X/.......",
"6X.X6XXXX8   8   /XXXXX.X...................../|  7    XXX.X6XXX",
"/X.//6X/X8   8     8 8 8888888888|8||||||ddddd|   7    X/X.//6X/",
"/X.//66/68   8 |                                | 7    X/X.//66/",
"/X.//66/X8    7                                7 7+    X/X.//66/",
"/6X//66/6      ++++++++++7+7+77777777777777777777+     X/6X//66/",
"/X.//66/68                                             ./X.//66/",
"/6X//66/68                                             X/6X//66/",
"/6.//66/6|                                             ./6.//66/",
"/6X//66/6|||||||| | | ||||||||||||||||||| | |||||| |   ./6X//66/",
"/6X//66/6.....................j..j....j.j.............../6X//66/",
"/XX//66/6X.X6XXX6X.X6XXX6X.X6XhX6k.X6XkXkX.X6XXX6X.X6XXX/XX//66/",
"/6X//66//X.//6X//X.//6X//X.//6f//Xi//iX/iX.//6X//X.//6X//6X//66/",
"6X./666//X.//66//X.//66//X.//6f//X.ii66/iX.//66//X.//66/6X./666/",
"/XX6/66//X.//66//X.//66//X.//6f//X.//66ikX.//66//X.//66//XX6/66/",
"6X./66X/6X./66X/6X./666//X.//6f/6X./66fk6X./66X/6X./66X/6X./66X/",
"6..66X.66..66X.66..66XXhffh/6fh66..66X.66..66X.66..66X.66..66X.6",
"|||||||||8||||8|8|8|8|hf7888|8|8|8|||||||||||||||||||||||8||||8|",
"        +             f7 +             + +      + +     +       ",
" +     +              f7+               +        +     +        ",
"+  |+      |+      |+ f7   |+      |+  +   |+   +  |+      |+   ",
"  7++     7++     7++ f++ 7++     7++     7++  +  7++     7++  +",
"+ 77      77      77  f7  77      77      77  ++  77      77  + ",
"                     fh+            +         +              + +",
"7eeeeee7e7e777777jlhhlX7X7XXXX7X77777777e7e77e7e7eeeeee7e7e77777"
};