/* XPM */
static char *picture[] = {
"64 64 9 1 ",
"  c #464D4F",
"X c #382B2F",
"+ c #62797E",
". c #383F40",
"| c #536265",
"/ c #2F1C17",
"6 c #889C9E",
"7 c #9F7315",
"8 c #241B17",
"666++++++|++++|+666++++++|++++|+666++++++|++++|+666++++++|++++|+",
"+               +               +               +               ",
"+ +.        +. .+ +.        +. .+ +.        +. .+ +.        +. .",
"|X..       X..  |X..       X..  |X..       X..  |X..       X..  ",
"+XX 8XX.X.X8X  .+XX 8XX.X.X8X  .+XX 8XX.X.X8X  .+XX 8XX.X.X8X  .",
"|   X.     .   .|   X.     .   .|   X.     .   .|   X.     .   .",
"|   X      |   X|   X      |   X|   X      |   X|   X      |   X",
"|   X    7 |   .|   X    7 |   .|   X    7 |   .|   X    7 |   .",
"|   .      |   X|   .      |   X|   .      |   X|   .      |   X",
"|   X 7777 +   X|   X 7777 +   X|   X 7777 +   X|   X 7777 +   X",
"    .      +   X    .      +   X    .      +   X    .      +   X",
"|    ||+|+66   X|    ||+|+66   X|    ||+|+66   X|    ||+|+66   X",
"  +.        +. /  +.        +. /  +.        +. /  +.        +. /",
"|X..       X.. X|X..       X.. X|X..       X.. X|X..       X.. X",
" XX        XX  / XX        XX  / XX        XX  / XX        XX  /",
"X//////X////////X//////X////////X//////X////////X//////X////////",
"666++++++|++++|+666++++++|++++|+666++++++|++++|+666++++++|++++|+",
"+               +               +               +               ",
"+ +.        +. .+ +.        +. .+ +.        +. .+ +.        +. .",
"|X..       X..  |X..       X..  |X..       X..  |X..       X..  ",
"+XX 8XX.X.X8X  .+XX 8XX.X.X8X  .+XX 8XX.X.X8X  .+XX 8XX.X.X8X  .",
"|   X.     .   .|   X.     .   .|   X.     .   .|   X.     .   .",
"|   X      |   X|   X      |   X|   X      |   X|   X      |   X",
"|   X    7 |   .|   X    7 |   .|   X    7 |   .|   X    7 |   .",
"|   .      |   X|   .      |   X|   .      |   X|   .      |   X",
"|   X 7777 +   X|   X 7777 +   X|   X 7777 +   X|   X 7777 +   X",
"    .      +   X    .      +   X    .      +   X    .      +   X",
"|    ||+|+66   X|    ||+|+66   X|    ||+|+66   X|    ||+|+66   X",
"  +.        +. /  +.        +. /  +.        +. /  +.        +. /",
"|X..       X.. X|X..       X.. X|X..       X.. X|X..       X.. X",
" XX        XX  / XX        XX  / XX        XX  / XX        XX  /",
"X//////X////////X//////X////////X//////X////////X//////X////////",
"666++++++|++++|+666++++++|++++|+666++++++|++++|+666++++++|++++|+",
"+               +               +               +               ",
"+ +.        +. .+ +.        +. .+ +.        +. .+ +.        +. .",
"|X..       X..  |X..       X..  |X..       X..  |X..       X..  ",
"+XX 8XX.X.X8X  .+XX 8XX.X.X8X  .+XX 8XX.X.X8X  .+XX 8XX.X.X8X  .",
"|   X.     .   .|   X.     .   .|   X.     .   .|   X.     .   .",
"|   X      |   X|   X      |   X|   X      |   X|   X      |   X",
"|   X      |   .|   X      |   .|   X      |   .|   X      |   .",
"|   .      |   X|   .      |   X|   .      |   X|   .      |   X",
"|   X      +   X|   X      +   X|   X      +   X|   X      +   X",
"    .      +   X    .      +   X    .      +   X    .      +   X",
"|    ||+|+66   X|    ||+|+66   X|    ||+|+66   X|    ||+|+66   X",
"  +.        +. /  +.        +. /  +.        +. /  +.        +. /",
"|X..       X.. X|X..       X.. X|X..       X.. X|X..       X.. X",
" XX        XX  / XX        XX  / XX        XX  / XX        XX  /",
"X//////X////////X//////X////////X//////X////////X//////X////////",
"666++++++|++++|+666++++++|++++|+666++++++|++++|+666++++++|++++|+",
"+               +               +               +               ",
"+ +.        +. .+ +.        +. .+ +.        +. .+ +.        +. .",
"|X..       X..  |X..       X..  |X..       X..  |X..       X..  ",
"+XX 8XX.X.X8X  .+XX 8XX.X.X8X  .+XX 8XX.X.X8X  .+XX 8XX.X.X8X  .",
"|   X.     .   .|   X.     .   .|   X.     .   .|   X.     .   .",
"|   X      |   X|   X      |   X|   X      |   X|   X      |   X",
"|   X      |   .|   X      |   .|   X      |   .|   X      |   .",
"|   .      |   X|   .      |   X|   .      |   X|   .      |   X",
"|   X      +   X|   X      +   X|   X      +   X|   X      +   X",
"    .      +   X    .      +   X    .      +   X    .      +   X",
"|    ||+|+66   X|    ||+|+66   X|    ||+|+66   X|    ||+|+66   X",
"  +.        +. /  +.        +. /  +.        +. /  +.        +. /",
"|X..       X.. X|X..       X.. X|X..       X.. X|X..       X.. X",
" XX        XX  / XX        XX  / XX        XX  / XX        XX  /",
"X//////X////////X//////X////////X//////X////////X//////X////////"
};