/* XPM */
static char *picture[] = {
"64 64 15 1 ",
"  c #464D4F",
"X c #383F40",
"+ c #9F7315",
". c #382B2F",
"| c #536265",
"/ c #62797E",
"6 c #000000",
"7 c #4B3F38",
"8 c #2F1C17",
"9 c #1C1C1B",
"a c #28221F",
"b c #141413",
"c c #241B17",
"d c #889C9E",
"e c #C0A436",
"ddd//////|////|/|/|/|/||||||/|/|/|///////////////////////|////|/",
"/                                                               ",
"/                                                              X",
"| ./X                                                     ./X   ",
"/ .XX                                                     .XX. X",
"| ..7                                                     ....  ",
"|  77                                                     7..  X",
"|  7                                                       7.  X",
"        cc.......X.X............ccccc.c..........X.X.XXX   .7  X",
"|       .X                      7 777 7 7                  7.  X",
"        X XXXXXXXXXXXXXXXXXXXXXXX.X...XXXXXXXXXXXXXXXX |   77  X",
"|       . XXXXXXXXXXXXXXXXXXXXXXXX.X.X.XXXXXaXXXXXXXXX      7  X",
"|       X XXXXXXXXXXXXXXXXXXXXXXXXX...XXXaXaXXXXXXXXXX |   7   .",
"|       X XXXXXXXXXXXXXXXXXXXXXXXXXX.X.XaXaXXXXXXXXXXX |    7  X",
"|       X XXXXXXXXXXXXXaXXXXXXXXXXX.X.XaXaXXXXXXXXXXXX |   7   .",
"|       X XXXXXXXXXXXXaXXXXXXXXXXXXX.XaXXXXXXXXXXXXXXX |    7  .",
"|       X            X|            7                   /       .",
"|       X XXXXXXXXXXa XXXXXXXXXXXX.XXXXXXXXXXXXXXXXXXX /    7  X",
"|       X                                              /       .",
"|       X         X                  X                 /       X",
"|       X        .|               X X                  /       X",
"|       X       a/               X X                   /       X",
"|       X      a/               XXX                    /       X",
"|       X     ./               X 7                     /       X",
"|       X    X|                 777                    /       X",
"|       X                      7 7                     /       X",
"|       X                       7                      /       X",
"|       X                                              /       .",
"|       X                                              /       X",
"        X                                              |       .",
"|       X7                                             /       X",
"        .                                              |       .",
"|       X7                                             |       .",
"        .                                              |       .",
"|       X7 7  X X                                      |       .",
"|       . 7  X X                                       |       .",
"|       .77 X X                            +++   + +   |       .",
"|     7 .7 X                              +++++ + +++  |       .",
"|    7 7.77                               ++ ++ ++  +  |       .",
"|   7 77.7 7                              ++ ++ ++ ++  |       .",
"   7 7  .77                               ++ ++  +++   |       .",
"|       X7                   X|           +  ++ +++++  |       .",
"        .           X|      X/             + +  ++ ++  |       8",
"        X          X|       |             +   + ++ +   |       .",
"        .          |      X               ++ ++ + + +  |       8",
"        X         |    X X                  ++   + +   |       .",
"        X             X|X X|                           |       .",
"|       X  +++ ++ +++XeX+Xe+++++++++++++++ + +++++ +   |       .",
"        X  +++ +++++Xe++Xe+++++++++++++++ + +++++++ +  |       .",
"|       X  +++ +++++|++X++++++++++++++++++ + ++++++++  /       .",
"|       X                                              |       .",
"|       X  ++ +++ e+++++++ ++ e++++++++++++++++++ +++  /       .",
"|       X  + +++ ++++++ + +++e+++++++++++++++++++ +++  |       8",
"|       X  +++++++++++ +   ++++++++++++++++++++++ +++  /       .",
"|       X                                              /       8",
"|       X                                              /       8",
"|        ||||////////////|/|///////////////////|/|//dddd       8",
"|                                                              8",
"         X.XX.X.X.......X              X.XX.X.X.......X        8",
"| ./X   X.66666666696969.X            X.66666666696969.X  ./X  8",
"  .XX   .6666666969696969|            .6666666969696969|  .XX  8",
"| ..    |9696969696969999|            |9696969696969999|  ...  8",
"         |/||||/|/|/////|              |/||||/|/|/////|    ..  8",
".888888.8.8.......8.8.b.b.bbbb.b........8.8..8.8.888888.8.8bb888"
};