/* XPM */
static char *picture[] = {
"64 64 10 1 ",
"  c #4F4C48",
"X c #3E3936",
"+ c #807B6A",
". c #322320",
"| c #67625C",
"/ c #28221F",
"6 c #9F7315",
"7 c #4B3F38",
"8 c #979578",
"9 c #000000",
"888++++++|++++|++++++++++|++++|+888++++++|++++|++++++++++|++++|+",
"+                               +                               ",
"+                              X+                              X",
"| X+.                     X+.   | X+.                     X+.   ",
"+ X..                     X..  X+ X..             X.X     X..  X",
"| XX                      XX    | XX              .9.     XX    ",
"|                              X|                 777          X",
"|      //.........X.X.XXX      X|      //........X...XXXX      X",
"       .X                      X       .X         77           X",
"|      X XXXXXXXXXXXXXX |      X|      X XXXXXXXXX...XX |      X",
"       . XXXXXXXXXXXXXX    X X X       . XXXXXXXXX..XXX        X",
"|      X  7             | XXX  X|      X          77    |      X",
"|      . XXXXXXXXXXXXXX |  X   .|      . XXXXXXXXXX.XXX |      .",
"|      .7 7 7           | X X  X|      X          77    |      X",
"|      .77 7            |X X   .|      X           7    |      .",
"|     7.7 7             |      .|      X           7    |      .",
"     7 .77              |      .       X                |      .",
"|   7 7.7               |      .|      X           7    |      .",
"|  7 7 .                +      .|      X                +      .",
"| 7    X                |      .|      X                |      .",
"|      X  66 6   6  6   +      /|      X  66666666 666  +      /",
"|      X  6 6 6 6  6 6  |      .|      X  66666666 666  |      .",
"|      X  6666 666  66  +      /|      X  66666666 666  +      /",
"|      X                +      /|      X                +      /",
"|      X                +      /|      X                +      /",
"|       |||||+|    |+++++      /|       ||||+++++|+++++++      /",
"               |++++|          /                               /",
"| X+.                     X+.  /| X+.                     X+.  /",
"  X..                     X..  /  X..                     X..  /",
"| XX                      XX   /| XX                      XX   /",
"                               /                               /",
".//////././......///////////////.//////././......///////////////",
"888++++++|++++|++++++++++|++++|+888++++++|++++|++++++++++|++++|+",
"+                               +                               ",
"+                              X+                              X",
"| X+.                     X+.   | X+.                     X+.   ",
"+ X..                     X..  X+ X..                     X..  X",
"| XX                      XX    | XX                      XX    ",
"|                              X|                              X",
"|      //........X.X.XXXX      X|      //........X.X.XXXX      X",
"       .X                      X       .X                      X",
"|      X XXXXXXXXXXXXXX |      X|      X XXXXXXXXXXXXXX |      X",
"       . XXXXXXXXXXXXXX        X       . XXXXXXXXXXXXXX        X",
"|      X                |      X|      X                |      X",
"|      . XXXXXXXXXXXXXX |      .|      . XXXXXXXXXXXXXX |      .",
"|      X                |      X|      X                |      X",
"|      X                |      .|      X                |      .",
"|      X                |      .|      X                |      .",
"       X                |      .       X       6 6 66   |      .",
"|      X                |      .|      X       666  6   |      .",
"|      X                +      .|      X         6 666  +      .",
"|      X                |      .|      X                |      .",
"|      X  66666666 666  +      /|      X  66666666 666  +      /",
"|      X  66666666 666  |      .|      X  66666666 666  |      .",
"|      X  66666666 666  +      /|      X  66666666 666  +      /",
"|      X                +      /|      X                +      /",
"|      X                +      /|      X                +      /",
"|       ||||+++++|+++++++      /|       ||||+++++|+++++++      /",
"                               /                               /",
"| X+.                     X+.  /| X+.                     X+.  /",
"  X..                     X..  /  X..                     X..  /",
"| XX                      XX   /| XX                      XX   /",
"                               /                               /",
".//////././......///////////////.//////././......///////////////"
};