/* XPM */
static char *picture[] = {
"64 64 10 1 ",
"  c #4F4C48",
"X c #3E3936",
"+ c #807B6A",
". c #322320",
"| c #000000",
"/ c #67625C",
"6 c #9F7315",
"7 c #1C1C1B",
"8 c #855A00",
"9 c #979578",
"999++++++/++++/+/+/+/+//////+/+/+/+++++++++++++++++++++++/++++/+",
"+                                                               ",
"+                                                              .",
"/ X+.                                                     X+.   ",
"+ X..                                                     X..  .",
"/ XX                                                      XX    ",
"/                                                              .",
"/                                                              .",
"        ..........X.XXXXXXXXXXXXXXXXXXXXXXXXXXXXX.X.X...       .",
"/       .X                                                     .",
"        . XXXXXXXXXXXXXXXXXXXXXXXXXXXXXXXXXXXXXXXXXXXX /       .",
"/       . XXXXXXXXXXXXXXXXXXX88XX88XXXXXXXXXXXXXXXXXXX         .",
"/       X                   666  666                   /       X",
"/       . XXXXXXXXXXXXXXXXX8888XX8888XXXXXXXXXXXXXXXXX /       .",
"/       X                 6666    6666                 /       X",
"/       .            6    666      666  66             /       X",
"        X            6 6       66        6             /       X",
"/       .            666       66        6             +       X",
"/       X              6  666      666  666            /       X",
"/       X                 6666    6666                 +       X",
"/       X                  6666  6666                  /       .",
"/       X                   666  666                   +       X",
"/       X                    66  66                    +       .",
"/       X                                              +       .",
"/        ////++++++++++++/+/+++++++++++++++++++/+/++++++       .",
"/                                                              .",
"         X...7.7.777777.X              X...7.7.777777.X        .",
"/ X+.   X7||||||||||||||7X            X7||||||||||||||7X  X+.  .",
"  X..   X||||||||||||||||/            X||||||||||||||||/  X..  .",
"/ XX    /||||||||||||||||/            /||||||||||||||||/  XX   .",
"         /+////+/+/+++++/              /+////+/+/+++++/        .",
"X......X.X.XXXXXXX.X...X.X....X.XXXXXXXX.X.XX.X.X...............",
"999++++++/++++/+/+/+/+//////+/+/+/+++++++++++++++++++++++/++++/+",
"+                                                               ",
"+                                                              .",
"/ X+.                                                     X+.   ",
"+ X..                                                     X..  .",
"/ XX                                                      XX    ",
"/                                                              .",
"/                                                              .",
"        ..........X.XXXXXXXXXXXXXXXXXXXXXXXXXXXXX.X.X...       .",
"/       .X                                                     .",
"        . XXXXXXXXXXXXXXXXXXXXXXXXXXXXXXXXXXXXX X      /       .",
"/       . XXXXXXXXXXXXXXXXXXX88XX88XXXXXXXXXXXXX X X           .",
"/       X                   666  666                X  /       X",
"/       . XXXXXXXXXXXXXXXXX8888XX8888XXXXXXXXXXXX X /XX/       .",
"/       X                 6666    6666               /X.X      X",
"/       .            6    666      666  66             /X.XX   .",
"        X            6 6       66        6             / /+X.XX.",
"/       .            666       66        6             +    /+X.",
"/       X              6  666      666  666            /       .",
"/       X                 6666    6666                 +       X",
"/       X                  6666  6666                  /       .",
"/       X                   666  666                   +       X",
"/       X                    66  66                    +       .",
"/       X                                              +       .",
"/        ////++++++++++++/+/+++++++++++++++++++/+/++++++       .",
"/                                                              .",
"         X...7.7.777777.X              X...7.7.777777.X        .",
"/ X+.   X7||||||||||||||7X            X7||||||||||||||7X  X+.  .",
"  X..   X||||||||||||||||/            X||||||||||||||||/  X..  .",
"/ XX    /||||||||||||||||/            /||||||||||||||||/  XX   .",
"         /+////+/+/+++++/              /+////+/+/+++++/        .",
"X......X.X.XXXXXXX.X...X.X....X.XXXXXXXX.X.XX.X.X..............."
};