/* XPM */
static char *picture[] = {
"64 64 7 1 ",
"  c #4F4C48",
"X c #322320",
"+ c #3E3936",
". c #807B6A",
"| c #67625C",
"/ c #979578",
"6 c #28221F",
"///......|....|.|.|.|.||||||.|.|.|.......................|....|.",
".                                                               ",
".                                                              X",
"| +.X                                                     +.X   ",
". +XX                                                     +XX  X",
"| ++                                                      ++    ",
"|                                                              X",
"|                                                              X",
"        66XXXXXXXX+X+++++++++++++++++++++++++++++X+X+XXX       X",
"|       6+                                                     X",
"        X                                              |       X",
"|       X                                                      X",
"|       +                                              |       +",
"|       +                                              |       X",
"|       X                                              |       +",
"|       +                                              |       +",
"|       +                                              .       +",
"|       +                                              .       X",
"|       +                                              .       +",
"|       +                                              .       X",
"|       +                                              .       X",
"|       +                                              .       X",
"|       +                                              .       X",
"|       +                                              .       X",
"|       +                                              .       X",
"|       +                                              .       X",
"|       +                                              .       X",
"|       +                                              .       +",
"|       +                                              .       X",
"        X                                              |       +",
"|       +                                              .       X",
"        X                                              |       +",
"|       +                                              |       +",
"        X                                              |       +",
"|       X                                              |       +",
"|       X                                              |       +",
"|       X                                              |       +",
"|       X                                              |       +",
"|       X                                              |       +",
"|       X                                              |       +",
"        X                                              |       +",
"|       X                                              |       +",
"        X                                              |       X",
"        X                                              |       +",
"        X                                              |       X",
"        X                                              |       +",
"        X                                              |       +",
"|       X                                              |       +",
"        X                                              |       +",
"|       X                                              .       +",
"|       X                                              |       +",
"|       X                                              .       +",
"|       X                                              |       X",
"|       X                                              .       +",
"|       X                                              .       X",
"|       X                                              .       X",
"|        ||||............|.|...................|.|......       X",
"|                                                              X",
"                                                               X",
"| +.X                                                     +.X  X",
"  +XX                                                     +XX  X",
"| ++                                                      ++   X",
"                                                               X",
"+XXXXXX+X+X+++++++X+XXX+X+XXXX+X++++++++X+X++X+X+XXXXXXXXXXXXXXX"
};