/* XPM */
static char *picture[] = {
"64 64 9 1 ",
"  c #B1CED6",
"X c #94AFAE",
"+ c #62797E",
". c #382B2F",
"| c #536265",
"/ c #383F40",
"6 c #889C9E",
"7 c #464D4F",
"8 c #141413",
"|8..///.|8..///.|8..///.|8..///.|8....././/////.|8....././/////.",
"+.+66+|.+.+66+|.+.+66+|.+.+66+|.+.+6666666666+|.+.+6666666666+|.",
"+.X  X|.+.X  X|.+.X  X|.+.X  X|.+.X          X|.+.X          X|.",
"+.X  X|.+.X  X|.+.X  X|.+.X  X|.+.X          X|.+.X          X|.",
"+/X  X+.+/X  X+.+/X  X+.+/X  X+.+/X          X+.+/X          X+.",
"+/X  X+/+/X  X+/+/X  X+/+/X  X+/+/X          X+/+/X          X+/",
"+/6XX6+.+/6XX6+.+/6XX6+.+/6XX6+.+/6XXXXXXXXXX6+.+/6XXXXXXXXXX6+.",
"+7||++6/+7||++6/+7||++6/+7||++6/+7||||+|++++++6/+7||||+|++++++6/",
"|8..///.|8..///.|8..///.|8..///.|8.......//////.|8.......//////.",
"+.+66+|/+.+66+|/+.+66+|/+.+66+|/+.+6666666666+|/+.+6666666666+|/",
"|.X  X|.|.X  X|.|.X  X|.|.X  X|.|.X          X|.|.X          X|.",
"7.X  X|77.X  X|77.X  X|77.X  X|77.X          X|77.X          X|7",
"+/X  X+/+/X  X+/+/X  X+/+/X  X+/+/X          X+/+/X          X+/",
"|/X  X+/|/X  X+/|/X  X+/|/X  X+/|/X          X+/|/X          X+/",
"|/6XX6+/|/6XX6+/|/6XX6+/|/6XX6+/|/6XXXXXXXXXX6+/|/6XXXXXXXXXX6+/",
"|7||++6/|7||++6/|7||++6/|7||++6/|7||||+|++++++6/|7||||+|++++++6/",
"|8..////|8..////|8..////|8..////|8......././////|8......././////",
"|.+66+|/|.+66+|/|.+66+|/|.+66+|/|.+6666666666+|/|.+6666666666+|/",
"|.X  X|/|.X  X|/|.X  X|/|.X  X|/|.X          X|/|.X          X|/",
"|.X  X|/|.X  X|/|.X  X|/|.X  X|/|.X          X|/|.X          X|/",
"|/X  X+/|/X  X+/|/X  X+/|/X  X+/|/X          X+/|/X          X+/",
"|/X  X+/|/X  X+/|/X  X+/|/X  X+/+/X          X+/+/X          X+/",
"|/6XX6+/|/6XX6+/|/6XX6+/|/6XX6+/|/6XXXXXXXXXX6+/|/6XXXXXXXXXX6+/",
"|7||++6/|7||++6/|7||++6/|7||++6/+7||||+|++++++6/+7||||+|++++++6/",
"|8..////|8..////|8..////|8..////+8.....././/////+8.....././/////",
"|.+66+|/|.+66+|/|.+66+|/|.+66+|/+.+6666666666+|/+.+6666666666+|/",
"|.X  X|.|.X  X|.|.X  X|.|.X  X|.+.X          X|.+.X          X|.",
"|.X  X|/|.X  X|/|.X  X|/|.X  X|/+.X          X|/+.X          X|/",
"|/X  X+.|/X  X+.|/X  X+.|/X  X+.+/X          X+.+/X          X+.",
"|/X  X+/|/X  X+/|/X  X+/|/X  X+/+/X          X+/+/X          X+/",
"|/6XX6+.|/6XX6+.|/6XX6+.|/6XX6+.+/6XXXXXXXXXX6+.+/6XXXXXXXXXX6+.",
"|7||++6.|7||++6.|7||++6.|7||++6.+7|||+|+++++++6.+7|||+|+++++++6.",
"|8..///.|8..///.|8..///.|8..///.+8.....././////.+8.....././////.",
"|.+66+|.|.+66+|.|.+66+|.|.+66+|.+.+6666666666+|.+.+6666666666+|.",
"|.X  X|.|.X  X|.|.X  X|.|.X  X|.+.X          X|.+.X          X|.",
"|.X  X|.|.X  X|.|.X  X|.|.X  X|.+.X          X|.+.X          X|.",
"|/X  X+.|/X  X+.|/X  X+.|/X  X+.+/X          X+.+/X          X+.",
"|/X  X+.|/X  X+.|/X  X+.|/X  X+.+/X          X+.+/X          X+.",
"|/6XX6+.|/6XX6+.|/6XX6+.|/6XX6+.+/6XXXXXXXXXX6+.+/6XXXXXXXXXX6+.",
"|7||++6.|7||++6.|7||++6.|7||++6.|7||||+|++++++6.|7||||+|++++++6.",
"|8..///.|8..///.|8..///.|8..///.+8.......//////.+8.......//////.",
"|.+66+|.|.+66+|.|.+66+|.|.+66+|.|.+6666666666+|.|.+6666666666+|.",
"+.X  X|.+.X  X|.+.X  X|.+.X  X|.+.X          X|.+.X          X|.",
"|.X  X|.|.X  X|.|.X  X|.|.X  X|.|.X          X|.|.X          X|.",
"+/X  X+.+/X  X+.+/X  X+.+/X  X+.+/X          X+.+/X          X+.",
"+/X  X+.+/X  X+.+/X  X+.+/X  X+.+/X          X+.+/X          X+.",
"+/6XX6+.+/6XX6+.+/6XX6+.+/6XX6+.+/6XXXXXXXXXX6+.+/6XXXXXXXXXX6+.",
"+7||++6.+7||++6.+7||++6.+7||++6.+7|||+|+++++++6.+7|||+|+++++++6.",
"+8..///.+8..///.+8..///.+8..///.+8.....././////.+8.....././////.",
"+.+66+|.+.+66+|.+.+66+|.+.+66+|.+.+6666666666+|.+.+6666666666+|.",
"+.X  X|/+.X  X|/+.X  X|/+.X  X|/+.X          X|/+.X          X|/",
"+.X  X|.+.X  X|.+.X  X|.+.X  X|.+.X          X|.+.X          X|.",
"+/X  X+.+/X  X+.+/X  X+.+/X  X+.+/X          X+.+/X          X+.",
"|/X  X+.|/X  X+.|/X  X+.|/X  X+.|/X          X+.|/X          X+.",
"+/6XX6+.+/6XX6+.+/6XX6+.+/6XX6+.+/6XXXXXXXXXX6+.+/6XXXXXXXXXX6+.",
"77||++6/77||++6/77||++6/77||++6/|7|||+|+++++++6/|7|||+|+++++++6/",
"|8..///.|8..///.|8..///.|8..///.|8....././/////.|8....././/////.",
"|.+66+|/|.+66+|/|.+66+|/|.+66+|/|.+6666666666+|/|.+6666666666+|/",
"|.X  X|.|.X  X|.|.X  X|.|.X  X|.|.X          X|.|.X          X|.",
"7.X  X|.7.X  X|.7.X  X|.7.X  X|.7.X          X|.7.X          X|.",
"|/X  X+.|/X  X+.|/X  X+.|/X  X+.|/X          X+.|/X          X+.",
"7/X  X+.7/X  X+.7/X  X+.7/X  X+.7/X          X+.7/X          X+.",
"|/6XX6+.|/6XX6+.|/6XX6+.|/6XX6+.|/6XXXXXXXXXX6+.|/6XXXXXXXXXX6+.",
"|7||++6.|7||++6.|7||++6.|7||++6.|7||||+|++++++6.|7||||+|++++++6."
};