/* XPM */
static char *picture[] = {
"64 64 11 1 ",
"  c #464D4F",
"X c #383F40",
"+ c #536265",
". c #382B2F",
"| c #62797E",
"/ c #2F1C17",
"6 c #141413",
"7 c #4B3F38",
"8 c #28221F",
"9 c #000000",
"a c #889C9E",
"aa|+|+|||||||6/////++++++7+7+7+7aa|+|+|||||||6/////++++++7+7+7+7",
"a        X X +666/+   X        7a        X X +666/+   X        7",
"|       X X   |+|+   X X X    X.|       X X   |+|+   X X X    X.",
"a  |   X X          X X+X   |  7a  |   X X          X X+X   |  7",
"| .   X            X+ +    .  X.| .   X            X+ +    .  X.",
"|    X   X     X+  +         X 7|    X   X     X+  +         X 7",
"|   .+ +X     .|      X     X  .|   .+ +X     .|      X     X  .",
"|  .|X  |.   X+X     X     X   .|  .|X  |.   X+X     X     X   .",
"|  |X   X|  X X  +. XXX   X X  .|  |X   X|  X X  +. XXX   X X  .",
"|  X      +XXX    |. X     .+  .|  X      +XXX    |. X     .+  .",
"| X X       X  +.  +X     .|   .| X X       X  +.  +X     .|   .",
"|X X       X X  |8 X+    X+    .|X X       X X  |8 X+    X+    .",
"+         XXX+   |.      +     .+         XXX+   |.      +     .",
"6|  +X   X+X+     +X          .96|  +X   X+X+     +X          .9",
"86+  +. X+     X X +         /9686+  +. X+     X X +         /96",
"/6| X |.        X     X    X .98/6| X |.        X     X    X .98",
"86+X   +       X     X    X+ /6/86+X   +       X     X    X+ /6/",
"/8+       X   .+    X+  +.+  .68/8+       X   .+    X+  +.+  .68",
"8+ X     X   .+    X+    +8 X /68+ X     X   .+    X+    +8 X /6",
"+ X     X   X+    XXX     |.   /+ X     X   X+    XXX     |.   /",
"+      X   X     X X+     X+   /+      X   X     X X+     X+   /",
"+     X X X     .+X+     X     /+     X X X     .+X+     X     /",
"+    .+XXX     8|           X  /+    .+XXX     8|           X  /",
"+   .|X .+    8|     +     X   /+   .|X .+    8|     +     X   /",
"7  X|X .|    .|    .+   X X+. X/7  X|X .|    .|    .+   X X+. X/",
"+  +X  +    X+    .+   .XX X+X /+  +X  +    X+    .+   .XX X+X /",
"7     +     +   + +   .+X+     /7     +     +   + +   .+X+     /",
"+       X     X+     X+X|X     /+       X     X+     X+X|X     /",
"7  | X X+  X .+      +X+    |  /7  | X X+  X .+      +X+    |  /",
"+ . X X   X X ././   X   X .   /+ . X X   X X ././   X   X .   /",
"7    X     X .9966.     X      /7    X     X .9966.     X      /",
"777.7.7......968/86/////////////777.7.7......968/86/////////////",
"aa|+|+|||||||6/////++++++7+7+7+7aa|+|+|||||||6/////++++++7+7+7+7",
"a        X X +666/+   X        7a        X X +666/+   X        7",
"|       X X   |+|+   X X X    X.|       X X   |+|+   X X X    X.",
"a  |   X X          X X+X   |  7a  |   X X          X X+X   |  7",
"| .   X            X+ +    .  X.| .   X            X+ +    .  X.",
"|    X   X     X+  +         X 7|    X   X     X+  +         X 7",
"|   .+ +X     .|      X     X  .|   .+ +X     .|      X     X  .",
"|  .|X  |.   X+X     X     X   .|  .|X  |.   X+X     X     X   .",
"|  |X   X|  X X  +. XXX   X X  .|  |X   X|  X X  +. XXX   X X  .",
"|  X      +XXX    |. X     .+  .|  X      +XXX    |. X     .+  .",
"| X X       X  +.  +X     .|   .| X X       X  +.  +X     .|   .",
"|X X       X X  |8 X+    X+    .|X X       X X  |8 X+    X+    .",
"+         XXX+   |.      +     .+         XXX+   |.      +     .",
"6|  +X   X+X+     +X          .96|  +X   X+X+     +X          .9",
"86+  +. X+     X X +         /9686+  +. X+     X X +         /96",
"/6| X |.        X     X    X .98/6| X |.        X     X    X .98",
"86+X   +       X     X    X+ /6/86+X   +       X     X    X+ /6/",
"/8+       X   .+    X+  +.+  .68/8+       X   .+    X+  +.+  .68",
"8+ X     X   .+    X+    +8 X /68+ X     X   .+    X+    +8 X /6",
"+ X     X   X+    XXX     |.   /+ X     X   X+    XXX     |.   /",
"+      X   X     X X+     X+   /+      X   X     X X+     X+   /",
"+     X X X     .+X+     X     /+     X X X     .+X+     X     /",
"+    .+XXX     8|           X  /+    .+XXX     8|           X  /",
"+   .|X .+    8|     +     X   /+   .|X .+    8|     +     X   /",
"7  X|X .|    .|    .+   X X+. X/7  X|X .|    .|    .+   X X+. X/",
"+  +X  +    X+    .+   .XX X+X /+  +X  +    X+    .+   .XX X+X /",
"7     +     +   + +   .+X+     /7     +     +   + +   .+X+     /",
"+       X     X+     X+X|X     /+       X     X+     X+X|X     /",
"7  | X X+  X .+      +X+    |  /7  | X X+  X .+      +X+    |  /",
"+ . X X   X X ././   X   X .   /+ . X X   X X ././   X   X .   /",
"7    X     X .9966.     X      /7    X     X .9966.     X      /",
"777.7.7......968/86/////////////777.7.7......968/86/////////////"
};