/* XPM */
static char *picture[] = {
"64 64 24 1 ",
"  c #464D4F",
"X c #383F40",
"+ c #536265",
". c #382B2F",
"| c #62797E",
"/ c #2F1C17",
"6 c #380901",
"7 c #4B3F38",
"8 c #2D0801",
"9 c #3B1A13",
"a c #28221F",
"b c #3E0801",
"c c #270401",
"d c #889C9E",
"e c #2D0501",
"f c #4F0D01",
"g c #430A01",
"h c #30140F",
"i c #6D1001",
"j c #471F18",
"k c #380D05",
"l c #280906",
"m c #40140E",
"n c #300E0B",
"dd|+|+|||||||+|+|++++++++7+7+7+7dd|+|+|||||||+|+|++++++++7+7+7+7",
"d        X X   X      X        7d        X X   X      X        7",
"|       X X          X X X    X.|       X X          X X X    X.",
"d  |   X X          X X+X   |  7|  |   X X          X X+X   |  7",
"| .   X            X+ +    .  X.| .   X            X+ +    .  X.",
"|    X   X     X+  +         X 7|    X   X     X+  +         X 7",
"|   .+ +X     .|      X     X+ .|   .+ +X     .|      X     X+ .",
"|  .|X  |.   X+X     X     X   .|  .|X  |.   X+X     X     X   .",
"|  |X   X|  X X  +. XXX   X X  .|  |X   X|  X X  +. XXX   X X  .",
"| +X      +XXX    |. X     .+  .| +X      +XXX    |. X     .+  .",
"| X X       X  +.  +X     .|   .| X X       X  +.  +X     .|   .",
"|X X       X X  |a X+    X+    .|X X       X X  |a X+    X+    .",
"+         XXX+   |.      +     .+         XXX+   |.      +     .",
"|   +X   X+X+     +X           .|   +X   X+X+     +X           .",
"+    +. X+     X X +          X/+    +. X+     X X +          X/",
"|   X |.        X     X    X   .|   X |.        X     X    X   .",
"+  X   +       X     X    X+   /+  X   +       X     X    X+   /",
"+ X       X   .+    X+  +.+    .+ X       X   .+    X+  +.+    .",
"+X X     X   .+    X+    +a X  /+X X     X   .+    X+    +a X  /",
"+ X     X   X+    XXX     |.   /+ X     X   X+    XXX     |.   /",
"+      X   X     X X+   6 X+  6c+      X   X     X X+     X+   /",
"+     X X X     .+X+     X    6cj     X X X     .+X+     X     /",
"+    .+XXX     a|           X 6cg  96.+XXX     a|           X  /",
"+   .|X .+    a|     +  666X6  c+  6e|X .+    a|     +     X   /",
"7  X|X .|    .|    .+   868+. X/b  8|X nf    .|    .+   X X+. X/",
"+  +X  +    X+    .+   .X868+X /g  +X 6g    X+    .+   .XX X+X /",
"7     +     +   + +   .+X+ 66+9cm  6  + 669 +   + +   .+X+   + /",
"+       X     X+     X+XfX  669lj66  6668669  X+     X+X|X     /",
"7  | X X+  X .+      +X+ 66k|k9cb6 |689hg668 .+      +X+    |  /",
"+ . X X+  X X+      689  X .666cg6e6868+ 986X+       X   X .   /",
"7    X     X      X     X  6666cb696689    X      X     X      /",
"777.7.7......../././//////ccccccbbb.7.be......./././////////////",
"dd|+|+|||||||+|+|++++++++bgbjbgbiifgf+||f||||+|+|++++++++7+7+7+7",
"d        X X   X      X 9666966bi66 966  X X   X      X        7",
"|       X X         986X6X  6 8e| 6   66h X          X X X    X.",
"d  |   X X          86X+X   f 6bi  f   X X          X X+X   |  7",
"| .   X            X+ +    e6 8ef .66 X            X+ +    .  X.",
"|    X   X     X+  +   6   66X b|6 6686  X     X+  +         X 7",
"|   .+ +X     .|      h6  668+ e|  9eg6+X     .|      X     X+ .",
"|  .|X  |.   X+X     X    686 6e|  .f89 |.   X+X     X     X   .",
"|  |X   X|  X X  +. XXX   h6X 6.|  |X   X|  X X  +. XXX   X X  .",
"| +X      +XXX    |. X     .+  e| +X  9   +XXX    |. X     .+  .",
"| X X       X  +.  +X    6.|   .| X X 6     X  +.  +X     .|   .",
"|X X       X X  |a X+    8+    .|X X       X X  |a X+    X+    .",
"+         XXX+   |.     9+     .+         XXX+   |.      +     .",
"|   +X   X+X+     +X           .|   +X   X+X+     +X           .",
"+    +. X+     X X +          X/+    +. X+     X X +          X/",
"|   X |.        X     X    X   .|   X |.        X     X    X   .",
"+  X   +       X     X    X+   /+  X   +       X     X    X+   /",
"+ X       X   .+    X+  +.+    .+ X       X   .+    X+  +.+    .",
"+X X     X   .+    X+    +a X  /+X X     X   .+    X+    +a X  /",
"+ X     X   X+    XXX     |.   /+ X     X   X+    XXX     |.   /",
"+      X   X     X X+     X+   /+      X   X     X X+     X+   /",
"+     X X X     .+X+     X     /+     X X X     .+X+     X     /",
"+    .+XXX     a|           X  /+    .+XXX     a|           X  /",
"+   .|X .+    a|     +     X   /+   .|X .+    a|     +     X   /",
"7  X|X .|    .|    .+   X X+. X/7  X|X .|    .|    .+   X X+. X/",
"+  +X  +    X+    .+   .XX X+X /+  +X  +    X+    .+   .XX X+X /",
"7     +     +   + +   .+X+   + /7     +     +   + +   .+X+   + /",
"+       X     X+     X+X|X     /+       X     X+     X+X|X     /",
"7  | X X+  X .+      +X+    |  /7  | X X+  X .+      +X+    |  /",
"+ . X X+  X X+       X   X .   /+ . X X+  X X+       X   X .   /",
"7    X     X      X     X      /7    X     X      X     X      /",
"777.7.7......../././////////////777.7.7......../././////////////"
};