/* XPM */
static char *picture[] = {
"64 64 9 1 ",
"  c #4F4C3F",
"X c #1C1C1B",
"+ c #322E1D",
". c #818556",
"| c #66684C",
"/ c #373C2C",
"6 c #141413",
"7 c #44402F",
"8 c #979578",
"...|.|.......|.|.||||||||7|7|7|7...|.|.......|.|.||||||||7|7|7|7",
".        / /   /      /        7.        / /   /      /        7",
".  XX+X+++X+++++++X+XX++++X+X /+.  XX+X+++X+++++++X+XX++++X+X /+",
". XXX6XXX6XXXXXXXXXX6XXXX6X6X/ 7. XXX6XXX6XXXXXXXXXX6XXXX6X6X/ 7",
". +XXXXXXXXXXXXXXXX6XXXX6XXXX./+. +XXXXXXXXXXXXXXXX6XXXX6XXXX./+",
".  ..|...|.....|8..8....8....  7.  ..|...|.....|8..8....8....  7",
".   7| |/     7|      /     /| +.   7| |/     7|      /     /| +",
".  7|/  .7   /|/     /     /   +.  7|/  .7   /|/     /     /   +",
".  +X+++X/++X+X++/X+XXX+++X+X  +.  +X+++X/++X+X++/X+XXX+++X+X  +",
". +XXXXXXXX666XXXXX6X6XXXXX6X| +. +XXXXXXXX666XXXXX6X6XXXXX6X| +",
". +6XXXXXXXX6XXX6XXX6XXXXX6X6. +. +6XXXXXXXX6XXX6XXX6XXXXX6X6. +",
"./ /.......|.|..8 .|8.... 8..  +./ /.......|.|..8 .|8.... 8..  +",
"|         ///|   |7      |     +|         ///|   |7      |     +",
".   |/   /|/|     |/           +.   |/   /|/|     |/           +",
"|  ++/X+X/+++++X+X+/+++++++++ /+|  ++/X+X/+++++X+X+/+++++++++ /+",
". +X6XX6XXXXXXXX6XXXXX6XXXX6X| +. +X6XX6XXXXXXXX6XXXXX6XXXX6X| +",
"| +6XXXXXXXXXXX6XXXXX6XXXX6XX. +| +6XXXXXXXXXXX6XXXXX6XXXX6XX. +",
"| /.......|...|8....|8..8|8..  +| /.......|...|8....|8..8|8..  +",
"|/ /     /   7|    /|    |+ /  +|/ /     /   7|    /|    |+ /  +",
"| /     /   /|    ///     .7   +| /     /   /|    ///     .7   +",
"|  ++++X+++X+++++X+X/+++++X|+  +|  ++++X+++X+++++X+X/+++++X|+  +",
"| +XXX6X6X6XXXXX6X6XXXXXX6XXX| +| +XXX6X6X6XXXXX6X6XXXXXX6XXX| +",
"| +XX6X666XXXXX6XXXXXXXXXXXX6. +| +XX6X666XXXXX6XXXXXXXXXXXX6. +",
"|  .|8|.|8....|8.... 8.....|.  +|  .|8|.|8....|8.... 8.....|.  +",
"7  /|/ 7|    7|    7|   / /|7 /+7  /|/ 7|    7|    7|   / /|7 /+",
"|  |/  |    /|    7|   7// /|/ +|  |/  |    /|    7|   7// /|/ +",
"7  ++++/+++/+/+++X+++/+++++X+/ +7  ++++/+++/+/+++X+++/+++++X+/ +",
"| +6XXXXX6XXXXXXXXXXXXXXXX6X6| +| +6XXXXX6XXXXXXXXXXXXXXXX6X6| +",
"7 /XXX6X6XXXXXXXXXXXXXXXXXX6X. +7 /XXX6X6XXXXXXXXXXXXXXXXXX6X. +",
"| |..|.|8.................|..  +| |..|.|8.................|..  +",
"7    /     /      /     /      X7    /     /      /     /      X",
"777+7+7+++++++++++++++++++++++XX777+7+7+++++++++++++++++++++++XX",
"...|.|.......|.|.||||||||7|7|7|7...|.|.......|.|.||||||||7|7|7|7",
".        / /   /      /        7.        / /   /      /        7",
".  XX+X+++X+++++++X+XX++++X+X /+.  XX+X+++X+++++++X+XX++++X+X /+",
". XXX6XXX6XXXXXXXXXX6XXXX6X6X/ 7. XXX6XXX6XXXXXXXXXX6XXXX6X6X/ 7",
". +XXXXXXXXXXXXXXXX6XXXX6XXXX./+. +XXXXXXXXXXXXXXXX6XXXX6XXXX./+",
".  ..|...|.....|8..8....8....  7.  ..|...|.....|8..8....8....  7",
".   7| |/     7|      /     /| +.   7| |/     7|      /     /| +",
".  7|/  .7   /|/     /     /   +.  7|/  .7   /|/     /     /   +",
".  +X+++X/++X+X++/X+XXX+++X+X  +.  +X+++X/++X+X++/X+XXX+++X+X  +",
". +XXXXXXXX666XXXXX6X6XXXXX6X| +. +XXXXXXXX666XXXXX6X6XXXXX6X| +",
". +6XXXXXXXX6XXX6XXX6XXXXX6X6. +. +6XXXXXXXX6XXX6XXX6XXXXX6X6. +",
"./ /.......|.|..8 .|8.... 8..  +./ /.......|.|..8 .|8.... 8..  +",
"|         ///|   |7      |     +|         ///|   |7      |     +",
".   |/   /|/|     |/           +.   |/   /|/|     |/           +",
"|  ++/X+X/+++++X+X+/+++++++++ /+|  ++/X+X/+++++X+X+/+++++++++ /+",
". +X6XX6XXXXXXXX6XXXXX6XXXX6X| +. +X6XX6XXXXXXXX6XXXXX6XXXX6X| +",
"| +6XXXXXXXXXXX6XXXXX6XXXX6XX. +| +6XXXXXXXXXXX6XXXXX6XXXX6XX. +",
"| /.......|...|8....|8..8|8..  +| /.......|...|8....|8..8|8..  +",
"|/ /     /   7|    /|    |+ /  +|/ /     /   7|    /|    |+ /  +",
"| /     /   /|    ///     .7   +| /     /   /|    ///     .7   +",
"|  ++++X+++X+++++X+X/+++++X|+  +|  ++++X+++X+++++X+X/+++++X|+  +",
"| +XXX6X6X6XXXXX6X6XXXXXX6XXX| +| +XXX6X6X6XXXXX6X6XXXXXX6XXX| +",
"| +XX6X666XXXXX6XXXXXXXXXXXX6. +| +XX6X666XXXXX6XXXXXXXXXXXX6. +",
"|  .|8|.|8....|8.... 8.....|.  +|  .|8|.|8....|8.... 8.....|.  +",
"7  /|/ 7|    7|    7|   / /|7 /+7  /|/ 7|    7|    7|   / /|7 /+",
"|  |/  |    /|    7|   7// /|/ +|  |/  |    /|    7|   7// /|/ +",
"7  ++++/+++/+/+++X+++/+++++X+/ +7  ++++/+++/+/+++X+++/+++++X+/ +",
"| +6XXXXX6XXXXXXXXXXXXXXXX6X6| +| +6XXXXX6XXXXXXXXXXXXXXXX6X6| +",
"7 /XXX6X6XXXXXXXXXXXXXXXXXX6X. +7 /XXX6X6XXXXXXXXXXXXXXXXXX6X. +",
"| |..|.|8.................|..  +| |..|.|8.................|..  +",
"7    /     /      /     /      X7    /     /      /     /      X",
"777+7+7+++++++++++++++++++++++XX777+7+7+++++++++++++++++++++++XX"
};