/* XPM */
static char *picture[] = {
"64 64 9 1 ",
"  c #464D4F",
"X c #000000",
"+ c #382B2F",
". c #62797E",
"| c #536265",
"/ c #383F40",
"6 c #28221F",
"7 c #4B3F38",
"8 c #889C9E",
"...|.|.......|.|.||||||||7|7|7|7...|.|.......|.|.||||||||7|7|7|7",
".        / /   /      /        7.        / /   /      /        7",
".  66+6+++6+++++++6+66++++6+6 /+.  66+6+++6+++++++6+66++++6+6 /+",
". 6XXXXXXXXXXXXXXXXXXXXXXXXXX/ 7. 6XXXXXXXXXXXXXXXXXXXXXXXXXX/ 7",
". +XXXXXXXXXXXXXXXXXXXXXXXXXX./+. +XXXXXXXXXXXXXXXXXXXXXXXXXX./+",
".  ..|...|.....|8..8....8....  7.  ..|...|.....|8..8....8....  7",
".   7| |/     7|      /     /| +.   7| |/     7|      /     /| +",
".  7|/  .7   /|/     /     /   +.  7|/  .7   /|/     /     /   +",
".  +6+++6/++6+6++/6+666+++6+6  +.  +6+++6/++6+6++/6+666+++6+6  +",
". +XXXXXXXXXXXXXXXXXXXXXXXXXX| +. +XXXXXXXXXXXXXXXXXXXXXXXXXX| +",
". +XXXXXXXXXXXXXXXXXXXXXXXXXX. +. +XXXXXXXXXXXXXXXXXXXXXXXXXX. +",
"./ /.......|.|..8 .|8.... 8..  +./ /.......|.|..8 .|8.... 8..  +",
"|         ///|   |7      |     +|         ///|   |7      |     +",
".   |/   /|/|     |/           +.   |/   /|/|     |/           +",
"|  ++/6+6/+++++6+6+/+++++++++ /+|  ++/6+6/+++++6+6+/+++++++++ /+",
". +XXXXXXXXXXXXXXXXXXXXXXXXXX| +. +XXXXXXXXXXXXXXXXXXXXXXXXXX| +",
"| +XXXXXXXXXXXXXXXXXXXXXXXXXX. +| +XXXXXXXXXXXXXXXXXXXXXXXXXX. +",
"| /.......|...|8....|8..8|8..  +| /.......|...|8....|8..8|8..  +",
"|/ /     /   7|    /|    |+ /  +|/ /     /   7|    /|    |+ /  +",
"| /     /   /|    ///     .7   +| /     /   /|    ///     .7   +",
"|  ++++6+++6+++++6+6/+++++6|+  +|  ++++6+++6+++++6+6/+++++6|+  +",
"| +XXXXXXXXXXXXXXXXXXXXXXXXXX| +| +XXXXXXXXXXXXXXXXXXXXXXXXXX| +",
"| +XXXXXXXXXXXXXXXXXXXXXXXXXX. +| +XXXXXXXXXXXXXXXXXXXXXXXXXX. +",
"|  .|8|.|8....|8.... 8.....|.  +|  .|8|.|8....|8.... 8.....|.  +",
"7  /|/ 7|    7|    7|   / /|7 /+7  /|/ 7|    7|    7|   / /|7 /+",
"|  |/  |    /|    7|   7// /|/ +|  |/  |    /|    7|   7// /|/ +",
"7  ++++/+++/+/+++6+++/+++++6+/ +7  ++++/+++/+/+++6+++/+++++6+/ +",
"| +XXXXXXXXXXXXXXXXXXXXXXXXXX| +| +XXXXXXXXXXXXXXXXXXXXXXXXXX| +",
"7 /XXXXXXXXXXXXXXXXXXXXXXXXXX. +7 /XXXXXXXXXXXXXXXXXXXXXXXXXX. +",
"| |..|.|8.................|..  +| |..|.|8.................|..  +",
"7    /     /      /     /      67    /     /      /     /      6",
"777+7+7+++++++++++++++++++++++66777+7+7+++++++++++++++++++++++66",
"...|.|.......|.|.||||||||7|7|7|7...|.|.......|.|.||||||||7|7|7|7",
".        / /   /      /        7.        / /   /      /        7",
".  66+6+++6+++++++6+66++++6+6 /+.  66+6+++6+++++++6+66++++6+6 /+",
". 6XXXXXXXXXXXXXXXXXXXXXXXXXX/ 7. 6XXXXXXXXXXXXXXXXXXXXXXXXXX/ 7",
". +XXXXXXXXXXXXXXXXXXXXXXXXXX./+. +XXXXXXXXXXXXXXXXXXXXXXXXXX./+",
".  ..|...|.....|8..8....8....  7.  ..|...|.....|8..8....8....  7",
".   7| |/     7|      /     /| +.   7| |/     7|      /     /| +",
".  7|/  .7   /|/     /     /   +.  7|/  .7   /|/     /     /   +",
".  +6+++6/++6+6++/6+666+++6+6  +.  +6+++6/++6+6++/6+666+++6+6  +",
". +XXXXXXXXXXXXXXXXXXXXXXXXXX| +. +XXXXXXXXXXXXXXXXXXXXXXXXXX| +",
". +XXXXXXXXXXXXXXXXXXXXXXXXXX. +. +XXXXXXXXXXXXXXXXXXXXXXXXXX. +",
"./ /.......|.|..8 .|8.... 8..  +./ /.......|.|..8 .|8.... 8..  +",
"|         ///|   |7      |     +|         ///|   |7      |     +",
".   |/   /|/|     |/           +.   |/   /|/|     |/           +",
"|  ++/6+6/+++++6+6+/+++++++++ /+|  ++/6+6/+++++6+6+/+++++++++ /+",
". +XXXXXXXXXXXXXXXXXXXXXXXXXX| +. +XXXXXXXXXXXXXXXXXXXXXXXXXX| +",
"| +XXXXXXXXXXXXXXXXXXXXXXXXXX. +| +XXXXXXXXXXXXXXXXXXXXXXXXXX. +",
"| /.......|...|8....|8..8|8..  +| /.......|...|8....|8..8|8..  +",
"|/ /     /   7|    /|    |+ /  +|/ /     /   7|    /|    |+ /  +",
"| /     /   /|    ///     .7   +| /     /   /|    ///     .7   +",
"|  ++++6+++6+++++6+6/+++++6|+  +|  ++++6+++6+++++6+6/+++++6|+  +",
"| +XXXXXXXXXXXXXXXXXXXXXXXXXX| +| +XXXXXXXXXXXXXXXXXXXXXXXXXX| +",
"| +XXXXXXXXXXXXXXXXXXXXXXXXXX. +| +XXXXXXXXXXXXXXXXXXXXXXXXXX. +",
"|  .|8|.|8....|8.... 8.....|.  +|  .|8|.|8....|8.... 8.....|.  +",
"7  /|/ 7|    7|    7|   / /|7 /+7  /|/ 7|    7|    7|   / /|7 /+",
"|  |/  |    /|    7|   7// /|/ +|  |/  |    /|    7|   7// /|/ +",
"7  ++++/+++/+/+++6+++/+++++6+/ +7  ++++/+++/+/+++6+++/+++++6+/ +",
"| +XXXXXXXXXXXXXXXXXXXXXXXXXX| +| +XXXXXXXXXXXXXXXXXXXXXXXXXX| +",
"7 /XXXXXXXXXXXXXXXXXXXXXXXXXX. +7 /XXXXXXXXXXXXXXXXXXXXXXXXXX. +",
"| |..|.|8.................|..  +| |..|.|8.................|..  +",
"7    /     /      /     /      67    /     /      /     /      6",
"777+7+7+++++++++++++++++++++++66777+7+7+++++++++++++++++++++++66"
};