/* XPM */
static char *picture[] = {
"64 64 14 1 ",
"  c #4F4C3F",
"X c #373C2C",
"+ c #1E1E17",
". c #000000",
"| c #181817",
"/ c #141413",
"6 c #353929",
"7 c #66684C",
"8 c #1C1C1B",
"9 c #818556",
"a c #28271F",
"b c #28261F",
"c c #44402F",
"d c #322E1D",
"................................................................",
"             X X           X        X X                    X X  ",
"XXXXXXXXXXXXXXXXXXXXXXXXXXXXXXXXXXXXXXXXXXXXXXXXXXXXXXXXXXXXXXXX",
"XXXXXXXXXXXXXXXXXXXXXXXXXXXXXXXXXXXXXXXXXXXXXXXXXXXXXXXXXXXXXXXX",
"XXXXXXXXXXXXXXXXXXXXXXXXXXXXXXXXXXXXXXXXXXXXXXXXXXXXXXXXXXXXXXXX",
"XXXXXXXXXXXXXXXXXXXXXXXXXXXXXXXXXXXXXXXXXXXXXXXXXXXXXXXXXXXXXXXX",
"XXXXXXXXXXXXXXXXXXXXXXXXXXXXXXXXXXXXXXXXXXXXXXXXXXXXXXXXXXXXXXXX",
"XXXXXXXXXXXXXXXXXXXXXXXXXXXXXXXXXXXXXXXXXXXXXXXXXXXXXXXXXXXXXXXX",
"                                                                ",
"XXXXXXXXXXXXXXXXXXXXXXXXXXXXXXXXXXXXXXXXXXXXXXXXXXXXXXXXXXXXXXXX",
"                                                                ",
"                                                                ",
"                                                                ",
"                                                                ",
"                                                                ",
"                                                                ",
"                                                                ",
"                                                                ",
"                                                                ",
"                                                                ",
"                                                                ",
"                                                                ",
"                                                                ",
"                                                                ",
"                                                                ",
"                                                                ",
"                                                                ",
"                                                                ",
"                                                                ",
"                                                                ",
"                                                                ",
"                                                                ",
"                                                                ",
"                                                                ",
"                     Xddd                                       ",
"                    XdccXX                                      ",
"                   Xdcc  X7                                     ",
"                   dcc c  7                                     ",
"                   dXcc  97                                     ",
"                    7  997                                      ",
"                     997   dX                                   ",
"                          dc 7                                  ",
"                          X 97                                  ",
"                           77                                   ",
"                                                                ",
"                                                                ",
"                                                                ",
"                                                                ",
"                                  7X                            ",
"                                 7X                             ",
"                               79.X                             ",
"                             79...7                             ",
"                          799......77                           ",
"7777777777 7   7 777777779...........999999 7 7 777 7 7 7 777777",
".............................../8/..............................",
"8..88/.88..88/.88..88/.88..88/.88..88/.88..88/.88..88/.88..88/.8",
"666666666a6666a6a6a6a6aaaaaa6a6a6a66666666666666666666666a6666a6",
"++++++++|++++++++++++++++|++++++|+++++++|+++++++|+|+++++|+++++++",
"+|+++++|+++++++++++++++||++++++++++++++bbb+++++++|+++++|++++++++",
"|++6/++++++6/++++++6/++|++b6/++++++6/+b+b++6/+++|++6/++++++6/+++",
"++|./+++++|./+++++|./+|+|+|./++|++|./++b++|./++|++|./+++++|./++|",
"|+||++++++||++++++||+++|++||b+++++||++b+++||++||++||++++++||++|+",
"++++++++++++++++++++++|++++bb++++++++b++++++++|++++++++++++++|+|",
"/||||||/|/|///////|/|/././...././///////|/|//|/|/||||||/|/|/////"
};