/* XPM */
static char *picture[] = {
"64 64 18 1 ",
"  c #4F4C3F",
"X c #373C2C",
"+ c #1E1E17",
". c #000000",
"| c #141413",
"/ c #958E57",
"6 c #181817",
"7 c #66684C",
"8 c #353929",
"9 c #28221F",
"a c #1C1C1B",
"b c #818556",
"c c #28271F",
"d c #322E1D",
"e c #28261F",
"f c #7E6F4C",
"g c #434436",
"h c #656341",
"................................................................",
"             X X          X XXX|.                          X X  ",
"XXXXXXXXXXXXXXXXXXXXXXXXXXXXXXX|. XXXXXXXXXXXXXXXXXXXXXXXXXXXXXX",
"XXXXXXXXXXXXXXXXXXXXXXXXXXXXXXX|. XXXXXXXXXXXXXXXXXXXXXXXXXXXXXX",
"XXXXXXXXXXXXXXXXXXXXXXXXXdb XXX|. Xdb XXXXXXXXXXXXXXXXXXXXXXXXXX",
"XXXXXXXXXXXXXXXXXXXXXXXXXd  XXX|. Xd  XXXXXXXXXXXXXXXXXXXXXXXXXX",
"XXXXXXXXXXXXXXXXXXXXXXXXXddXXXX|. XddXXXXXXXXXXXXXXXXXXXXXXXXXXX",
"XXXXXXXXXXXXXXXXXXXXXXXXXXXXXXX|. XXXXXXXXXXXXXXXXXXXXXXXXXXXXXX",
"                               9|b                              ",
"XXXXXXXXXXXXXXXXXXXXXXXXXXXXXXX|. XXXXXXXXXXXXXXXXXXXXXXXXXXXXXX",
"                               9|b                              ",
"                               |.b                              ",
"                               9|b                              ",
"                               9|b                              ",
"                               9|b                              ",
"                               9|b                              ",
"                               9|b                              ",
"                               ||b                              ",
"                               9|b                              ",
"                               ||b                              ",
"                               9|b                              ",
"                               ||b                              ",
"                               9|b                              ",
"                               ||b                              ",
"                               ||b                              ",
"                               ||b   f////////////fg            ",
"                               ||b   //////////////X            ",
"                               ||b   //999X9X9XXh//X            ",
"                               ||b   //99X9X9XXXX//X            ",
"                               ||b   //////////XX//X            ",
"                               ||b   //////////XX//X            ",
"                               |9b   //hX9X99//XX//X            ",
"                               9|b   //XXX9X9//XX//X            ",
"                               |97   //XX//////XX//X            ",
"                               9|b   //XX//////XX//X            ",
"                               |97   //XX//9X9XXX//X            ",
"                               99b   //XX//99X9Xh//X            ",
"                               |97   //////////////X            ",
"                               997   f////////////fX            ",
"                               |97   gXXXXXXXXXXXXXg            ",
"                               |a7                              ",
"                               |97                              ",
"                               |a                               ",
"                               |97                              ",
"                               |a                               ",
"                               ||7                              ",
"                               |a                               ",
"                               ||                               ",
"                               ||                               ",
"                         dbX   ||  dbX                          ",
"                         dXX   ||  dXX                          ",
"                         dd    ||  dd                           ",
"                               |a                               ",
"7777777777777777777777777777 7 || 7 7777777 7 7 777 7 7 7 777777",
"...............................|a|..............................",
"a..aa|.aa..aa|.aa..aa|.aa..aa|.aa..aa|.aa..aa|.aa..aa|.aa..aa|.a",
"888888888c8888c8c8c8c8cccccc8c8c8c88888888888888888888888c8888c8",
"++++++++6++++++++++++++++6++++++6+++++++6+++++++6+6+++++6+++++++",
"+6+++++6+++++++++++++++66++++++++++++++eee+++++++6+++++6++++++++",
"6++8|++++++8|++++++8|++6++e8|++++++8|+e+e++8|+++6++8|++++++8|+++",
"++6.|+++++6.|+++++6.|+6+6+6.|++6++6.|++e++6.|++6++6.|+++++6.|++6",
"6+66++++++66++++++66+++6++66e+++++66++e+++66++66++66++++++66++6+",
"++++++++++++++++++++++6++++ee++++++++e++++++++6++++++++++++++6+6",
"|666666|6|6|||||||6|6|.|.|....|.||||||||6|6||6|6|666666|6|6|||||"
};