/* XPM */
static char *picture[] = {
"64 64 8 1 ",
"  c #464D4F",
"X c #382B2F",
"+ c #62797E",
". c #383F40",
"| c #2F1C17",
"/ c #536265",
"6 c #4B3F38",
"7 c #141413",
"+  . . X/      X+.  6  X+. .   X/ . .  7+.     |+.  6  X+.     |",
"+ .    |+      X/  6   X+ .    |/.     X/      X/  6   X/      X",
"+      |/      |+      X+.     |/      7+      |+      X+      |",
"+  +.  |+  +.  X+  +.  X+  +.  |/ 6+.  7+  +.  X+  +.  X+  +.  X",
"+ X..  |/ X..  |+ X..  X+ X..  |+ X..  7+ X..  X+ X..  X+ X..  X",
"+ XX   |+ XX   X+ XX  6X+ XX   |/ XX6  7+ XX   X+ XX  6X+ XX  .X",
"+      |/   . .7+  6 6 X+      |+  66  X/      X+  6 6 X/    . X",
"+ .    X/ .. . X+ 6 6  X+ .    X/  66  7+      X+ 6 6  X+   . .X",
"+.     |/ . .  7+.66   |+.     |+.  6  X/      X+.66   |+  . . X",
"/      X/.     X+ 6    X/      X/  6   X+      X+ 6    X+ .    |",
"+      |/      7+      |+      |+      X/      |+      |+      |",
"+  +.  X/ 6+.  7+  +.  X+  +.  X+  +.  X+  +.  X+  +.  X+  +.  |",
"+ X..  X+ X..  7+ X..  X+ X..  X+ X..  X/ X..  |+ X..  X+ X..  |",
"+ XX   X/ XX6  7+ XX   |+ XX  .X+ XX  6X+ XX   X+ XX   |+ XX   |",
"/      X+  66  X+    ..X/    . X+  6 6 X/   . .7+    ..X+      |",
"+      X/  66  7+   .. |+   . .X+ 6 6  X/ .. . X+   .. |+ .    X",
"/      X+.  6  X+. .   X+  . . X+.66   |/ . .  7+. .   X+.     |",
"+      X/  6   X+ .    |+ .    |+ 6    X/.     X+ .    |/      X",
"/      |+      X+.     |+      |+      |/      7+.     |+      |",
"+  +.  X+  +.  X+  +.  |+  +.  |+  +.  X/ 6+.  7+  +.  |+  +.  X",
"/ X..  |+ X..  X+ X..  |+ X..  |+ X..  X+ X..  7+ X..  |+ X..  X",
"+ XX   X+ XX  6X+ XX   |+ XX   |+ XX   |/ XX6  7+ XX   |+ XX   X",
"/   . .7+  6 6 X+      |+      |+    ..X+  66  X+      |/      X",
"/ .. . X+ 6 6  X+ .    X+ .    X+   .. |/  66  7+ .    X+      X",
"/ . .  7+.66   |+.     |+.     |+. .   X+.  6  X+.     |/      X",
"/.     X+ 6    X/      X/      X+ .    |/  6   X/      X+      X",
"/      7+      |+      |+      |+.     |+      X+      |/      |",
"/ 6+.  7+  +.  X+  +.  X+  +.  X+  +.  |+  +.  X+  +.  X+  +.  X",
"+ X..  7+ X..  X+ X..  X+ X..  X+ X..  |+ X..  X+ X..  X/ X..  |",
"/ XX6  7+ XX   |+ XX  .X+ XX   X+ XX   |+ XX  6X+ XX  .X+ XX   X",
"+  66  X+    ..X/    . X/      X+      |+  6 6 X/    . X/   . .7",
"/  66  7+   .. |+   . .X+      X+ .    X+ 6 6  X+   . .X/ .. . X",
"+.  6  X+. .   X+  . . X/      X+.     |+.66   |+  . . X/ . .  7",
"/  6   X+ .    |+ .    |+      X/      X+ 6    X+ .    |/.     X",
"+      X+.     |+      |/      |+      |+      |+      |/      7",
"+  +.  X+  +.  |+  +.  |+  +.  X+  +.  X+  +.  X+  +.  |/ 6+.  7",
"+ X..  X+ X..  |+ X..  |/ X..  |+ X..  X+ X..  X+ X..  |+ X..  7",
"+ XX  6X+ XX   |+ XX   |+ XX   X+ XX  .X+ XX   |+ XX   |/ XX6  7",
"+  6 6 X+      |+      |/   . .7/    . X+    ..X+      |+  66  X",
"+ 6 6  X+ .    X+ .    X/ .. . X+   . .X+   .. |+ .    X/  66  7",
"+.66   |+.     |+.     |/ . .  7+  . . X+. .   X+.     |+.  6  X",
"+ 6    X/      X/      X/.     X+ .    |+ .    |/      X/  6   X",
"+      |+      |+      |/      7+      |+.     |+      |+      X",
"+  +.  X+  +.  X+  +.  X/ 6+.  7+  +.  |+  +.  |+  +.  X+  +.  X",
"+ X..  X+ X..  X+ X..  X+ X..  7+ X..  |+ X..  |+ X..  X+ X..  X",
"+ XX   |+ XX  .X+ XX   X/ XX6  7+ XX   |+ XX   |+ XX   X+ XX  6X",
"+    ..X/    . X/      X+  66  X+      |+      |/      X+  6 6 X",
"+   .. |+   . .X+      X/  66  7+ .    X+ .    X+      X+ 6 6  X",
"+. .   X+  . . X/      X+.  6  X+.     |+.     |/      X+.66   |",
"+ .    |+ .    |+      X/  6   X/      X/      X+      X+ 6    X",
"+.     |+      |/      |+      X+      |+      |/      |+      |",
"+  +.  |+  +.  |+  +.  X+  +.  X+  +.  X+  +.  X+  +.  X+  +.  X",
"+ X..  |+ X..  |/ X..  |+ X..  X+ X..  X+ X..  X/ X..  |+ X..  X",
"+ XX   |+ XX   |+ XX   X+ XX  6X+ XX   X+ XX  .X+ XX   X+ XX   |",
"+      |+      |/   . .7+  6 6 X/      X/    . X/   . .7+    ..X",
"+ .    X+ .    X/ .. . X+ 6 6  X+      X+   . .X/ .. . X+   .. |",
"+.     |+.     |/ . .  7+.66   |/      X+  . . X/ . .  7+. .   X",
"/      X/      X/.     X+ 6    X+      X+ .    |/.     X+ .    |",
"+      |+      |/      7+      |/      |+      |/      7+.     |",
"+  +.  X+  +.  X/ 6+.  7+  +.  X+  +.  X+  +.  |/ 6+.  7+  +.  |",
"+ X..  X+ X..  X+ X..  7+ X..  X/ X..  |+ X..  |+ X..  7+ X..  |",
"+ XX  .X+ XX   X/ XX6  7+ XX   |+ XX   X+ XX   |/ XX6  7+ XX   |",
"/    . X/      X+  66  X+    ..X/   . .7+      |+  66  X+      |",
"+   . .X+      X/  66  7+   .. |/ .. . X+ .    X/  66  7+ .    X"
};