/* XPM */
static char *picture[] = {
"64 64 5 1 ",
"  c #464D4F",
"X c #383F40",
"+ c #382B2F",
". c #536265",
"| c #62797E",
"            +   X.           X.X            +   X.           X.X",
"         X +.  +.     X     X.           X +.  +.     X     X.  ",
"        X X.   .     X + X    X         X X.   .     X + X    X ",
"   |X  X X |X      |X + X  |X      |X  X X |X      |X + X  |X   ",
"  +XX X   +XX     +XX     +XX X   +XX X   +XX     +XX     +XX X ",
"  ++ X.  X++   X  ++      ++ X    ++ X.  X++   X  ++      ++ X  ",
"    X.  X     X       X     X.      X.  X     X       X     X.  ",
"   +.X   +.  X +.    X     +.      +.X   +.  X +.    X     +.   ",
"   .X   X.  X +.    XXX.  +.X      .X   X.  X +.    XXX.  +.X   ",
"   X    .  XXX.      +.   .X       X    .  XXX.      +.   .X    ",
"  X X       X       X.    X       X X       X       X.    X     ",
" X |X      |XX     |X    X |X    X |X      |XX     |X    X |X   ",
"X +XX     +XX     +XX     +XX   X +XX     +XX     +XX     +XX   ",
"  ++     X++      ++      ++   X  ++     X++      ++      ++   X",
"        X      X X            X         X      X X            X ",
"    X.          X     X.   X        X.          X     X.   X    ",
"   +.          +.    X.   X        +.          +.    X.   X     ",
"  +.      X   +.    X    XX       +.      X   +.    X    XX     ",
" X X     X   X.    X      X X    X X     X   X.    X      X X   ",
"X  |X   X  |X      |X      |X   X  |X   X  |X      |X      |X   ",
"  +XX  X. +XX    X+XX     +XX     +XX  X. +XX    X+XX     +XX   ",
"  ++  +.X ++    X.++     X++      ++  +.X ++    X.++     X++    ",
"     +.XXX     +.           X.       +.XXX     +.           X.  ",
"    X.X X     X.           +.  X    X.X X     X.           +.  X",
"   XXX X           X    X X.X X    XXX X           X    X X.X X ",
"    X             X    XXX XX+.     X             X    XXX XX+. ",
"   X            .     +.X X X.     X            .     +.X X X.  ",
"   |X   X  |X X.   |X+.X X |X      |X   X  |X X.   |X+.X X |X   ",
"  +XXX X  +XXX.   +XX.X   +XX     +XXX X  +XXX.   +XX.X   +XX   ",
"  ++  +.  ++ .    ++ X   X++      ++  +.  ++ .    ++ X   X++    ",
"     +.    X      X     X      X     +.    X      X     X      X",
"X   X.           X            X.X   X.           X            X.",
"            +   X.           X.X            +   X.           X.X",
"         X +.  +.     X     X.           X +.  +.     X     X.  ",
"        X X.   .     X + X    X         X X.   .     X + X    X ",
"   |X  X X |X      |X + X  |X      |X  X X |X      |X + X  |X   ",
"  +XX X   +XX     +XX     +XX X   +XX X   +XX     +XX     +XX X ",
"  ++ X.  X++   X  ++      ++ X    ++ X.  X++   X  ++      ++ X  ",
"    X.  X     X       X     X.      X.  X     X       X     X.  ",
"   +.X   +.  X +.    X     +.      +.X   +.  X +.    X     +.   ",
"   .X   X.  X +.    XXX.  +.X      .X   X.  X +.    XXX.  +.X   ",
"   X    .  XXX.      +.   .X       X    .  XXX.      +.   .X    ",
"  X X       X       X.    X       X X       X       X.    X     ",
" X |X      |XX     |X    X |X    X |X      |XX     |X    X |X   ",
"X +XX     +XX     +XX     +XX   X +XX     +XX     +XX     +XX   ",
"  ++     X++      ++      ++   X  ++     X++      ++      ++   X",
"        X      X X            X         X      X X            X ",
"    X.          X     X.   X        X.          X     X.   X    ",
"   +.          +.    X.   X        +.          +.    X.   X     ",
"  +.      X   +.    X    XX       +.      X   +.    X    XX     ",
" X X     X   X.    X      X X    X X     X   X.    X      X X   ",
"X  |X   X  |X      |X      |X   X  |X   X  |X      |X      |X   ",
"  +XX  X. +XX    X+XX     +XX     +XX  X. +XX    X+XX     +XX   ",
"  ++  +.X ++    X.++     X++      ++  +.X ++    X.++     X++    ",
"     +.XXX     +.           X.       +.XXX     +.           X.  ",
"    X.X X     X.           +.  X    X.X X     X.           +.  X",
"   XXX X           X    X X.X X    XXX X           X    X X.X X ",
"    X             X    XXX XX+.     X             X    XXX XX+. ",
"   X            .     +.X X X.     X            .     +.X X X.  ",
"   |X   X  |X X.   |X+.X X |X      |X   X  |X X.   |X+.X X |X   ",
"  +XXX X  +XXX.   +XX.X   +XX     +XXX X  +XXX.   +XX.X   +XX   ",
"  ++  +.  ++ .    ++ X   X++      ++  +.  ++ .    ++ X   X++    ",
"     +.    X      X     X      X     +.    X      X     X      X",
"X   X.           X            X.X   X.           X            X."
};