/* XPM */
static char *picture[] = {
"64 64 5 1 ",
"  c #1E1E17",
"X c #181817",
"+ c #28271F",
". c #141413",
"| c #000000",
"            .   X+           X+X            .   X+           X+X",
"         X .+  .+     X     X+           X .+  .+     X     X+  ",
"        X X+   +     X . X    X         X X+   +     X . X    X ",
"   +.  X X +.      +. . X  +.      +.  X X +.      +. . X  +.   ",
"  X|. X   X|.     X|.     X|. X   X|. X   X|.     X|.     X|. X ",
"  XX X+  XXX   X  XX      XX X    XX X+  XXX   X  XX      XX X  ",
"    X+  X     X       X     X+      X+  X     X       X     X+  ",
"   .+X   .+  X .+    X     .+      .+X   .+  X .+    X     .+   ",
"   +X   X+  X .+    XXX+  .+X      +X   X+  X .+    XXX+  .+X   ",
"   X    +  XXX+      .+   +X       X    +  XXX+      .+   +X    ",
"  X X       X       X+    X       X X       X       X+    X     ",
" X +.      +.X     +.    X +.    X +.      +.X     +.    X +.   ",
"X X|.     X|.     X|.     X|.   X X|.     X|.     X|.     X|.   ",
"  XX     XXX      XX      XX   X  XX     XXX      XX      XX   X",
"        X      X X            X         X      X X            X ",
"    X+          X     X+   X        X+          X     X+   X    ",
"   .+          .+    X+   X        .+          .+    X+   X     ",
"  .+      X   .+    X    XX       .+      X   .+    X    XX     ",
" X X     X   X+    X      X X    X X     X   X+    X      X X   ",
"X  +.   X  +.      +.      +.   X  +.   X  +.      +.      +.   ",
"  X|.  X+ X|.    XX|.     X|.     X|.  X+ X|.    XX|.     X|.   ",
"  XX  .+X XX    X+XX     XXX      XX  .+X XX    X+XX     XXX    ",
"     .+XXX     .+           X+       .+XXX     .+           X+  ",
"    X+X X     X+           .+  X    X+X X     X+           .+  X",
"   XXX X           X    X X+X X    XXX X           X    X X+X X ",
"    X             X    XXX XX.+     X             X    XXX XX.+ ",
"   X            +     .+X X X+     X            +     .+X X X+  ",
"   +.   X  +. X+   +..+X X +.      +.   X  +. X+   +..+X X +.   ",
"  X|.X X  X|.X+   X|.+X   X|.     X|.X X  X|.X+   X|.+X   X|.   ",
"  XX  .+  XX +    XX X   XXX      XX  .+  XX +    XX X   XXX    ",
"     .+    X      X     X      X     .+    X      X     X      X",
"X   X+           X            X+X   X+           X            X+",
"            .   X+           X+X            .   X+           X+X",
"         X .+  .+     X     X+           X .+  .+     X     X+  ",
"        X X+   +     X . X    X         X X+   +     X . X    X ",
"   +.  X X +.      +. . X  +.      +.  X X +.      +. . X  +.   ",
"  X|. X   X|.     X|.     X|. X   X|. X   X|.     X|.     X|. X ",
"  XX X+  XXX   X  XX      XX X    XX X+  XXX   X  XX      XX X  ",
"    X+  X     X       X     X+      X+  X     X       X     X+  ",
"   .+X   .+  X .+    X     .+      .+X   .+  X .+    X     .+   ",
"   +X   X+  X .+    XXX+  .+X      +X   X+  X .+    XXX+  .+X   ",
"   X    +  XXX+      .+   +X       X    +  XXX+      .+   +X    ",
"  X X       X       X+    X       X X       X       X+    X     ",
" X +.      +.X     +.    X +.    X +.      +.X     +.    X +.   ",
"X X|.     X|.     X|.     X|.   X X|.     X|.     X|.     X|.   ",
"  XX     XXX      XX      XX   X  XX     XXX      XX      XX   X",
"        X      X X            X         X      X X            X ",
"    X+          X     X+   X        X+          X     X+   X    ",
"   .+          .+    X+   X        .+          .+    X+   X     ",
"  .+      X   .+    X    XX       .+      X   .+    X    XX     ",
" X X     X   X+    X      X X    X X     X   X+    X      X X   ",
"X  +.   X  +.      +.      +.   X  +.   X  +.      +.      +.   ",
"  X|.  X+ X|.    XX|.     X|.     X|.  X+ X|.    XX|.     X|.   ",
"  XX  .+X XX    X+XX     XXX      XX  .+X XX    X+XX     XXX    ",
"     .+XXX     .+           X+       .+XXX     .+           X+  ",
"    X+X X     X+           .+  X    X+X X     X+           .+  X",
"   XXX X           X    X X+X X    XXX X           X    X X+X X ",
"    X             X    XXX XX.+     X             X    XXX XX.+ ",
"   X            +     .+X X X+     X            +     .+X X X+  ",
"   +.   X  +. X+   +..+X X +.      +.   X  +. X+   +..+X X +.   ",
"  X|.X X  X|.X+   X|.+X   X|.     X|.X X  X|.X+   X|.+X   X|.   ",
"  XX  .+  XX +    XX X   XXX      XX  .+  XX +    XX X   XXX    ",
"     .+    X      X     X      X     .+    X      X     X      X",
"X   X+           X            X+X   X+           X            X+"
};