/* XPM */
static char *picture[] = {
"64 64 8 1 ",
"  c #464D4F",
"X c #382B2F",
"+ c #62797E",
". c #383F40",
"| c #2F1C17",
"/ c #536265",
"6 c #4B3F38",
"7 c #141413",
"+++++++++/++++/+/+/+/+//////+/+/+/+++++++++++++++++++++++/++++/+",
"        .                .      .       .       . .     .       ",
" .     .               ..              666       .     .        ",
".  +.      +.      +.  .  6+.      +. 6 6  +.   .  +.      +.   ",
"  X..     X..     X.. . . X..  .  X..  6  X..  .  X..     X..  .",
". XX      XX      XX   .  XX6     XX  6   XX  ..  XX      XX  . ",
"                      .    66        6        .              . .",
"X||||||X|X|XXXXXXX|X|X7X7X7777X7XXXXXXXX|X|XX|X|X||||||X|X|XXXXX",
"/+/+/+//////+/+/+/+++++++++++++++++++++++/++++/++++++++++/++++/+",
"         .      .       .       . .     .               .       ",
"       ..              666       .     .         .     .        ",
"   +.  .  6+.      +. 6 6  +.   .  +.      +.   .  +.      +.   ",
"  X.. . . X..  .  X..  6  X..  .  X..     X..  .  X..     X..   ",
"  XX   .  XX6     XX  6   XX  ..  XX      XX  . . XX      XX    ",
"      .    66        6        .              . .                ",
"XX|X|X7X7X7777X7XXXXXXXX|X|XX|X|X||||||X|X|XXXXXX||||||X|X|XXXXX",
"+++++++++++++++++/++++/++++++++++/++++/+/+/+/+//////+/+/+/++++++",
".       . .     .               .                .      .       ",
"66       .     .         .     .               ..              6",
"6  +.   .  +.      +.   .  +.      +.      +.  .  6+.      +. 6 ",
"  X..  .  X..     X..  .  X..     X..     X.. . . X..  .  X..  6",
"  XX  ..  XX      XX  . . XX      XX      XX   .  XX6     XX  6 ",
"      .              . .                      .    66        6  ",
"|X|XX|X|X||||||X|X|XXXXXX||||||X|X|XXXXXXX|X|X7X7X7777X7XXXXXXXX",
"+++++++++/++++/++++++++++/++++/+/+/+/+//////+/+/+/++++++++++++++",
". .     .               .                .      .       .       ",
" .     .         .     .               ..              666      ",
".  +.      +.   .  +.      +.      +.  .  6+.      +. 6 6  +.   ",
"  X..     X..  .  X..     X..     X.. . . X..  .  X..  6  X..  .",
"  XX      XX  . . XX      XX      XX   .  XX6     XX  6   XX  ..",
"             . .                      .    66        6        . ",
"X||||||X|X|XXXXXX||||||X|X|XXXXXXX|X|X7X7X7777X7XXXXXXXX|X|XX|X|",
"////+/+/+/+++++++++++++++++++++++/++++/++++++++++/++++/+/+/+/+//",
" .      .       .       . .     .               .               ",
".              666       .     .         .     .               .",
"  6+.      +. 6 6  +.   .  +.      +.   .  +.      +.      +.  .",
". X..  .  X..  6  X..  .  X..     X..  .  X..     X..     X.. . ",
"  XX6     XX  6   XX  ..  XX      XX  . . XX      XX      XX   .",
"   66        6        .              . .                      . ",
"7X7777X7XXXXXXXX|X|XX|X|X||||||X|X|XXXXXX||||||X|X|XXXXXXX|X|X7X",
"+/++++/+/+/+/+//////+/+/+/+++++++++++++++++++++++/++++/+++++++++",
".                .      .       .       . .     .               ",
"               ..              666       .     .         .     .",
"   +.      +.  .  6+.      +. 6 6  +.   .  +.      +.   .  +.   ",
"  X..     X.. . . X..  .  X..  6  X..  .  X..     X..  .  X..   ",
"  XX      XX   .  XX6     XX  6   XX  ..  XX      XX  . . XX    ",
"              .    66        6        .              . .        ",
"|X|XXXXXXX|X|X7X7X7777X7XXXXXXXX|X|XX|X|X||||||X|X|XXXXXX||||||X",
"+/+++++++++++++++++++++++/++++/++++++++++/++++/+/+/+/+//////+/+/",
".       .       . .     .               .                .      ",
"       666       .     .         .     .               ..       ",
"   +. 6 6  +.   .  +.      +.   .  +.      +.      +.  .  6+.   ",
"  X..  6  X..  .  X..     X..  .  X..     X..     X.. . . X..  .",
"  XX  6   XX  ..  XX      XX  . . XX      XX      XX   .  XX6   ",
"     6        .              . .                      .    66   ",
"XXXXXXXX|X|XX|X|X||||||X|X|XXXXXX||||||X|X|XXXXXXX|X|X7X7X7777X7",
"+/++++/++++++++++/++++/+/+/+/+//////+/+/+/++++++++++++++++++++++",
".               .                .      .       .       . .     ",
"         .     .               ..              666       .     .",
"   +.   .  +.      +.      +.  .  6+.      +. 6 6  +.   .  +.   ",
"  X..  .  X..     X..     X.. . . X..  .  X..  6  X..  .  X..   ",
"  XX  . . XX      XX      XX   .  XX6     XX  6   XX  ..  XX    ",
"     . .                      .    66        6        .         ",
"|X|XXXXXX||||||X|X|XXXXXXX|X|X7X7X7777X7XXXXXXXX|X|XX|X|X||||||X"
};