/* XPM */
static char *picture[] = {
"64 64 11 1 ",
"  c #1D783C",
"X c #0C5A33",
"+ c #146836",
". c #429128",
"| c #66A916",
"/ c #559F1F",
"6 c #29772C",
"7 c #328631",
"8 c #2D7F2F",
"9 c #9DC554",
"a c #187038",
"X+++      X6./....../..7     ../.XXXXXXX+++++++++..     ++++X...",
"+++      +XXX./|//...XX       ...XXXXXX+++++++++8..+    ++++X...",
"+        +XXX6.|..6XXX+       X..XXXXX+++++++++8..8++    +++X./.",
"         ++XXX./.XXXXX        X6.6XXX++++++++++...++++    +X....",
"         +++++..8XXXX         XX..XXX++++++++++./.+++++    ./|.7",
"         +++++..++XX+         XX..6XX+++++++++8.|.++++++   .|.7 ",
"          +++8..+++X   +XX+   +X./..6++++++++8..|.+++++X  7.|.  ",
"           ++./.+++   XXXXXX   +.|/...   ++8.../|.6XXXXX  ...7  ",
"XXX++       ..|.++   +XXXXXXX   .||||/......../||..XXXXX 7./.XXX",
"XXX+++     7./|/.    XXXXXXXX+ 7/......../|||||||/..6XXX7..|.XXX",
"XXX++++  7.....|.7   XXXXXXXX6...7     7...|999||||/....../|.XXX",
"XXX++++ ...7  7./.7 +XXXXXXX6...         7./|9|/......../|||.6XX",
"XXXX+++./.      ...6XXXX6.....6X          ..||/...6XXXXX..../.XX",
"XXXXX+./.6       ./.........6+++     +XX+ 7.|/..6XXX+++   6...6X",
"XXXXX6.|.+++X+   7.|/../..6+++++    XXXXXX .|/.6XXX++++   XX6..6",
"....../|.XXXXX+   ./99|.6X++++++   ++XXXXX+.|..XXX+++++   ++X./.",
"|||||||9.XXXXXX   ..|9..XX+++++    ++XXXXXX.|.6XXX++++    +++6./",
"....../|.XXXXXX   7./|.6XX+++++   +++XXXXXX./.XXXX++++    ++++.|",
".6XXX6./.6X++++    ..|.XXX++++   +++++XXXXX./.XXXX++++    ++++./",
"6XXXXXX./.+++++    7.|.XXX+++    +++++XXXXX..7+XXXX+++    ++++..",
"XXXXXXX6..++++      ./.          +++++XXXX...  XXXXX+      +++..",
"XXXXXXXX..+++       7..          +++aa++8...7   +XX+        ++..",
"XXXXXXXX..           ..XXX++     ++8.......XX                +..",
"XXXXX+  ..7  +++++++X6.6XXX+++   ..../...8+XXX               7..",
"        ./. ++++++++XX..XXXX++..../||.8++++XXX       ++++++  .. ",
"        .|.+++++++++XX./.6XX+.//|||9..+++++XXX     +++++++++ .. ",
"        .|.++++++++XXX./|........./|.8+++++XX+    ++++++++++7.7 ",
"       7./.+++++++XXXX6.||//.X++ 7.|. ++++XXX    +++++++++++..  ",
"       ./.6XXXXXXXXXXXX..|..X+++  7/.  +++X+     ++++++++++8..+ ",
"       ..7XXXXXXXXXXXXX6./.X++++   ..            +++++++++8./.+ ",
"       .. XXXXXXXXXXXXXX..X++++    7.7           X++++++++..|.+ ",
"       ..  XXXXXXXXXXX+ ..X+++      ..           +X++++X+8..|.+ ",
"       ..   XXXXXXXX+   ..          ..7           XXXXXX.../|.  ",
"  +XXX6..X              .7          ./.7   +XXX+   XXX.../|||.7 ",
" XXXX+...XX            7.           .||...7XXXXX+   +./||||9|.. ",
"XXXX6../.+++         +X..+ +++++   7.|||//.........../......./.7",
"....//||.+++        XXX..XX++++++  ./......//||||9|/..6XXXX6../.",
"/...../|.8++++     +XXX..6XX++++++7...6XXX6..../|99..XXXXXXX+../",
".6+++8.|..+++++    XXXX...XXX+++++...+XXXXXXX6.../|.7+XXXXXX   .",
"XX+++++.||.8+++X   XXX6.|.6XXX++++..+XXXXXXXXXX6..|.  +XXX+    X",
"XX+++++8.9|............/|..XXXX++./.XXXXXXXXXXXX../.           X",
"XX++++++.99|//.....//||||/..6XXX..|.XXXXXX+++++X 7..           X",
"XX++++++.||...8X   .../|9||/..../|9.XXXXX++++++   ..7          X",
"XX++++++.|.8+++XX   X........../|9|.XXXX+++++++   .|.          X",
"XXX+++++./.+++XXX+   XXXXXXXX8..../.6XXX++++++   X.|.X+++       ",
" +XX++++..8+++XXXX    XXXXXX+++++../.XX++++++   +X./.+++++      ",
"      X+..+++XXXXX     XXXX++++++7...XX+++++   ++6..X++++++     ",
"       ..8++XXXXXX       XX+++++   ..8++++++  ++6./6X+++++++    ",
"     7..8XXXXXXXX+                  ..++++++ ++X./.XX+++++++    ",
"     ./.XXXXXXXXX                   7.8++++  ++6..6XXX++++++    ",
"    7./. XXXXXXX       +XXX+         ..+++   ++./.XXXX+++++++   ",
"X   ..|.  +XXX+       XXXXXX+        ..      ++.|.XXXXX++++++XXX",
"XX  ./|.             +XXXXXXX+    +++..7     +8.|.6XXXXX++++XXXX",
"XXX..||.         +XXXXXXXXXXXX   +++8....7   8.../.XXXXXXXXXXXXX",
"XX6..|9.        XXXXXXXXXXXXXX  X+++.........7XX6...6XXXXXXXXXXX",
"X6..///..      +XXXXXXXXXXXXXX  XX+........7   XXX./.....6XXXXXX",
"..//.../.      XXXXXXXXXXXXXXX  XX8...6X        XX6.|/..........",
"/....../.    XXXXXXXXXXXXXXXXX  X6...XXX          X..|||||||9|/|",
".6XXX 7./.  X+++++++XXXXXXXXX  7...6XXX+           ../...../|9|/",
"6XXXX  7.|.++++++++++XXXXXXX6.../.6XXXX            ...6XXX6..||.",
"XXX++   .|.8+++++++++++XXXX6.../..XXX+  +XXXX+    7..8XXXXXX./|.",
"XX+++   ..|.++++++++++++8..../|..      XXXXXXXX   ./.  XXXXX6./.",
"X++++   7./.8+++++++++8..//|||9..   +XXXXXXXXXXX+ ..7   XXXXX./.",
"X++++    7...8+++++8.../...../|..  XXXXXXXXXXXXXXX..    XXXXX..."
};