/* XPM */
static char *picture[] = {
"64 64 16 1 ",
"  c #383F40",
"X c #464D4F",
"+ c #FFD02C",
". c #382B2F",
"| c #BAB77A",
"/ c #F5F9ED",
"6 c #62797E",
"7 c #536265",
"8 c #FFB62C",
"9 c #000000",
"a c #FF992C",
"b c #FFEC24",
"c c #4B3F38",
"d c #141413",
"e c #796F47",
"f c #F78300",
"9999999999999999999999999999999999999999999999999999999999999999",
"XXXXXX X X X   .XXXXXX X X X   .XXXXXX X X X   .XXXXXX X X X   .",
"X              .X              .X              .X              .",
"X 6  6666X   6 .X 6  6666X   6 .X 6  6666X   6 .X 6  6666X   6 .",
"X.  6...... .  .X.  6...... .  .X.  6...... .  .X.  6...... .  .",
"X  6........X  .X  6........X  .X  6........X  .X  6........X  .",
"X 6...f88f...X .X 6...f88f...X .X 6...f88f...X .X 6...f88f...X .",
"X 6..f8888f..6 .X 6..f8888f..6 .X 6..f8888f..6 .X 6..f8888f..6 .",
"X 6..88bb88..6 .X 6..88bb88..6 .X 6..88bb88..6 .X 6..88bb88..6 .",
"X 6..88//88..6 .X 6..88//88..6 .X 6..88//88..6 .X 6..88//88..6 .",
"6X|  ++//++  |X 6X|  ++//++  |X 6X|  ++//++  |X 6X|  ++//++  |X ",
"X 6..88//88..6 .X 6..88//88..6 .X 6..88//88..6 .X 6..88//88..6 .",
"6X|  ++//++  |X 6X|  ++//++  |X 6X|  ++//++  |X 6X|  ++//++  |X ",
"6X|  ++//++  |X.6X|  ++//++  |X.6X|  ++//++  |X.6X|  ++//++  |X.",
"6X|  ++//++  |X 6X|  ++//++  |X 6X|  ++//++  |X 6X|  ++//++  |X ",
"6X|  ++//++  |X.6X|  ++//++  |X.6X|  ++//++  |X.6X|  ++//++  |X.",
"6X|  ++//++  |X 6X|  ++//++  |X 6X|  ++//++  |X 6X|  ++//++  |X ",
"6X|  ++//++  |X 6X|  ++//++  |X 6X|  ++//++  |X 6X|  ++//++  |X ",
"6X|  ++//++  |X 6X|  ++//++  |X 6X|  ++//++  |X 6X|  ++//++  |X ",
"6X|  ++//++  |X 6X|  ++//++  |X 6X|  ++//++  |X 6X|  ++//++  |X ",
"6X|  ++//++  |XX6X|  ++//++  |XX6X|  ++//++  |XX6X|  ++//++  |XX",
"7X|  ++//++  |X 7X|  ++//++  |X 7X|  ++//++  |X 7X|  ++//++  |X ",
"6X6  ++//++  |XX6X6  ++//++  |XX6X6  ++//++  |XX6X6  ++//++  |XX",
"7X|  ++bb++  |X 7X|  ++bb++  |X 7X|  ++bb++  |X 7X|  ++bb++  |X ",
"6X6  a++++a  |XX6X6  a++++a  |XX6X6  a++++a  |XX6X6  a++++a  |XX",
"7X6   a++a   |X 7X6   a++a   |X 7X6   a++a   |X 7X6   a++a   |X ",
"7XX6        |XX 7XX6        |XX 7XX6        |XX 7XX6        |XX ",
"7XXX6      |XXX 7XXX6      |XXX 7XXX6      |XXX 7XXX6      |XXX ",
"7XXXX6|6|||XXXX.7XXXX6|6|||XXXX.7XXXX6|6|||XXXX.7XXXX6|6|||XXXX.",
"7XXXXXXXXXXXXXX 7XXXXXXXXXXXXXX 7XXXXXXXXXXXXXX 7XXXXXXXXXXXXXX ",
"7XXXXXXXXXXXXXX.7XXXXXXXXXXXXXX.7XXXXXXXXXXXXXX.7XXXXXXXXXXXXXX.",
"7XXXX|6|666XXXX 7XXXX|6|666XXXX 7XXXX|6|666XXXX 7XXXX|6|666XXXX ",
"7XXX|      6XXX.7XXX|      6XXX.7XXX|      6XXX.7XXX|      6XXX.",
"7XX|        6XX.7XX|        6XX.7XX|        6XX.7XX|        6XX.",
"7X|   a++a   6X.7X|   a++a   6X.7X|   a++a   6X.7X|   a++a   6X.",
"7X|  a++++a  |X.7X|  a++++a  |X.7X|  a++++a  |X.7X|  a++++a  |X.",
"7X|  ++bb++  6X.7X|  ++bb++  6X.7X|  ++bb++  6X.7X|  ++bb++  6X.",
"7X|  ++//++  |X.7X|  ++//++  |X.7X|  ++//++  |X.7X|  ++//++  |X.",
"7X|  ++//++  |X.7X|  ++//++  |X.7X|  ++//++  |X.7X|  ++//++  |X.",
"7X|  ++//++  |X.7X|  ++//++  |X.7X|  ++//++  |X.7X|  ++//++  |X.",
"7X|  ++//++  |X.7X|  ++//++  |X.7X|  ++//++  |X.7X|  ++//++  |X.",
"7X|  ++//++  |X.7X|  ++//++  |X.7X|  ++//++  |X.7X|  ++//++  |X.",
"XX|  ++//++  |X.XX|  ++//++  |X.XX|  ++//++  |X.XX|  ++//++  |X.",
"7X|  ++//++  |X.7X|  ++//++  |X.7X|  ++//++  |X.7X|  ++//++  |X.",
"XX|  ++//++  |X.XX|  ++//++  |X.XX|  ++//++  |X.XX|  ++//++  |X.",
"7X|  ++//++  |X.7X|  ++//++  |X.7X|  ++//++  |X.7X|  ++//++  |X.",
"XX|  ++//++  |X.XX|  ++//++  |X.XX|  ++//++  |X.XX|  ++//++  |X.",
"7X|  ++//++  |X.7X|  ++//++  |X.7X|  ++//++  |X.7X|  ++//++  |X.",
"XX|  ++//++  |X.XX|  ++//++  |X.XX|  ++//++  |X.XX|  ++//++  |X.",
"XX|  ++//++  |X.XX|  ++//++  |X.XX|  ++//++  |X.XX|  ++//++  |X.",
"XX6  ++//++  |X.XX6  ++//++  |X.XX6  ++//++  |X.XX6  ++//++  |X.",
"XX|  ++bb++  |X.XX|  ++bb++  |X.XX|  ++bb++  |X.XX|  ++bb++  |X.",
"XX6  a++++a  |X.XX6  a++++a  |X.XX6  a++++a  |X.XX6  a++++a  |X.",
"XX6   a++a   |X.XX6   a++a   |X.XX6   a++a   |X.XX6   a++a   |X.",
"XXX6        |XX.XXX6        |XX.XXX6        |XX.XXX6        |XX.",
"XXXX6      |XXX.XXXX6      |XXX.XXXX6      |XXX.XXXX6      |XXX.",
"XXXXX6|6|||XXXX.XXXXX6|6|||XXXX.XXXXX6|6|||XXXX.XXXXX6|6|||XXXX.",
"X XXXXXX XXXXXX.X XXXXXX XXXXXX.X XXXXXX XXXXXX.X XXXXXX XXXXXX.",
" XXXXXXXXXXXXXX. XXXXXXXXXXXXXX. XXXXXXXXXXXXXX. XXXXXXXXXXXXXX.",
"XXce|XXXXXX|eXc.XXce|XXXXXX|eXc.XXce|XXXXXX|eXc.XXce|XXXXXX|eXc.",
" X.eeXX XX.eeXX. X.eeXX XX.eeXX. X.eeXX XX.eeXX. X.eeXX XX.eeXX.",
"XX..cXXXXX..XXc.XX..cXXXXX..XXc.XX..cXXXXX..XXc.XX..cXXXXX..XXc.",
"XXXccXXXXXXXXcX.XXXccXXXXXXXXcX.XXXccXXXXXXXXcX.XXXccXXXXXXXXcX.",
"d.dddd.d........d.dddd.d........d.dddd.d........d.dddd.d........"
};