/* XPM */
static char *picture[] = {
"64 64 9 1 ",
"  c #464D4F",
"X c #383F40",
"+ c #382B2F",
". c #1C1C1B",
"| c #536265",
"/ c #000000",
"6 c #62797E",
"7 c #4B3F38",
"8 c #141413",
"////////////////////////////////////////////////////////////////",
"      X X X XXX+      X X X XXX+      X X X XXX+      X X X XXX+",
" XXXXXXXXXXXXXX+ XXXXXXXXXXXXXX+ XXXXXXXXXXXXXX+ XXXXXXXXXXXXXX+",
" X6XXXXXXXXXX6X+ X6XXXXXXXXXX6X+ X6XXXXXXXXXX6X+ X6XXXXXXXXXX6X+",
" +XXX++++++X+XX+ +XXX++++++X+XX+ +XXX++++++X+XX+ +XXX++++++X+XX+",
" XXX++++++++XXX+ XXX++++++++XXX+ XXX++++++++XXX+ XXX++++++++XXX+",
" XX+++....+++XX+ XX+++....+++XX+ XX+++....+++XX+ XX+++....+++XX+",
" XX++..XX..++XX+ XX++..XX..++XX+ XX++..XX..++XX+ XX++..XX..++XX+",
" XX++.X..X.++XX+ XX++.X..X.++XX+ XX++.X..X.++XX+ XX++.X..X.++XX+",
" XX++.X..X.++XX+ XX++.X..X.++XX+ XX++.X..X.++XX+ XX++.X..X.++XX+",
"6  XX+X..X+XX  X6  XX+X..X+XX  X6  XX+X..X+XX  X6  XX+X..X+XX  X",
" XX++.X..X.++XX+ XX++.X..X.++XX+ XX++.X..X.++XX+ XX++.X..X.++XX+",
"6  XX+X..X+XX  X6  XX+X..X+XX  X6  XX+X..X+XX  X6  XX+X..X+XX  X",
"6  XX+X..X+XX  +6  XX+X..X+XX  +6  XX+X..X+XX  +6  XX+X..X+XX  +",
"6  XX++XX++XX  X6  XX++XX++XX  X6  XX++XX++XX  X6  XX++XX++XX  X",
"6  XXX++++XXX  +6  XXX++++XXX  +6  XXX++++XXX  +6  XXX++++XXX  +",
"6  |XXXXXXXX|  X6  |XXXXXXXX|  X6  |XXXXXXXX|  X6  |XXXXXXXX|  X",
"6   |XXXXXX|   X6   |XXXXXX|   X6   |XXXXXX|   X6   |XXXXXX|   X",
"6     ||||     X6     ||||     X6     ||||     X6     ||||     X",
"6              X6              X6              X6              X",
"6               6               6               6               ",
"|              X|              X|              X|              X",
"6               6               6               6               ",
"|    XXXXXX    X|    XXXXXX    X|    XXXXXX    X|    XXXXXX    X",
"6   XXXXXXXX    6   XXXXXXXX    6   XXXXXXXX    6   XXXXXXXX    ",
"|  XXX++++XXX  X|  XXX++++XXX  X|  XXX++++XXX  X|  XXX++++XXX  X",
"|  XX++XX++XX  X|  XX++XX++XX  X|  XX++XX++XX  X|  XX++XX++XX  X",
"|  XX+X..X+XX  X|  XX+X..X+XX  X|  XX+X..X+XX  X|  XX+X..X+XX  X",
"|  XX+X..X+XX  +|  XX+X..X+XX  +|  XX+X..X+XX  +|  XX+X..X+XX  +",
"|  XX+X..X+XX  X|  XX+X..X+XX  X|  XX+X..X+XX  X|  XX+X..X+XX  X",
"|  XX+X..X+XX  +|  XX+X..X+XX  +|  XX+X..X+XX  +|  XX+X..X+XX  +",
"|  XX+X..X+XX  X|  XX+X..X+XX  X|  XX+X..X+XX  X|  XX+X..X+XX  X",
"|  XX+X..X+XX  +|  XX+X..X+XX  +|  XX+X..X+XX  +|  XX+X..X+XX  +",
"|  XX++XX++XX  +|  XX++XX++XX  +|  XX++XX++XX  +|  XX++XX++XX  +",
"|  XXX++++XXX  +|  XXX++++XXX  +|  XXX++++XXX  +|  XXX++++XXX  +",
"|  |XXXXXXXX|  +|  |XXXXXXXX|  +|  |XXXXXXXX|  +|  |XXXXXXXX|  +",
"|   |XXXXXX|   +|   |XXXXXX|   +|   |XXXXXX|   +|   |XXXXXX|   +",
"|     ||||     +|     ||||     +|     ||||     +|     ||||     +",
"|              +|              +|              +|              +",
"|              +|              +|              +|              +",
"|              +|              +|              +|              +",
"|              +|              +|              +|              +",
"     XXXXXX    +     XXXXXX    +     XXXXXX    +     XXXXXX    +",
"|   XXXXXXXX   +|   XXXXXXXX   +|   XXXXXXXX   +|   XXXXXXXX   +",
"   XXX++++XXX  +   XXX++++XXX  +   XXX++++XXX  +   XXX++++XXX  +",
"|  XX++XX++XX  +|  XX++XX++XX  +|  XX++XX++XX  +|  XX++XX++XX  +",
"   XX+X..X+XX  +   XX+X..X+XX  +   XX+X..X+XX  +   XX+X..X+XX  +",
"|  XX+X..X+XX  +|  XX+X..X+XX  +|  XX+X..X+XX  +|  XX+X..X+XX  +",
"   XX+X..X+XX  +   XX+X..X+XX  +   XX+X..X+XX  +   XX+X..X+XX  +",
"   XX+X..X+XX  +   XX+X..X+XX  +   XX+X..X+XX  +   XX+X..X+XX  +",
"   XX+X..X+XX  +   XX+X..X+XX  +   XX+X..X+XX  +   XX+X..X+XX  +",
"   XX+X..X+XX  +   XX+X..X+XX  +   XX+X..X+XX  +   XX+X..X+XX  +",
"   XX++XX++XX  +   XX++XX++XX  +   XX++XX++XX  +   XX++XX++XX  +",
"   XXX++++XXX  +   XXX++++XXX  +   XXX++++XXX  +   XXX++++XXX  +",
"   |XXXXXXXX|  +   |XXXXXXXX|  +   |XXXXXXXX|  +   |XXXXXXXX|  +",
"    |XXXXXX|   +    |XXXXXX|   +    |XXXXXX|   +    |XXXXXX|   +",
"      ||||     +      ||||     +      ||||     +      ||||     +",
" X      X      + X      X      + X      X      + X      X      +",
"X              +X              +X              +X              +",
"  76X      6X 7+  76X      6X 7+  76X      6X 7+  76X      6X 7+",
"X +XX  X  +XX  +X +XX  X  +XX  +X +XX  X  +XX  +X +XX  X  +XX  +",
"  ++7     ++  7+  ++7     ++  7+  ++7     ++  7+  ++7     ++  7+",
"   77        7 +   77        7 +   77        7 +   77        7 +",
"8+8888+8++++++++8+8888+8++++++++8+8888+8++++++++8+8888+8++++++++"
};