/* XPM */
static char *picture[] = {
"64 64 8 1 ",
"  c #464D4F",
"X c #383F40",
"+ c #382B2F",
". c #536265",
"| c #62797E",
"/ c #000000",
"6 c #4B3F38",
"7 c #141413",
"////////////////////////////////////////////////////////////////",
"      X X X XXX+      X X X XXX+      X X X XXX+      X X X XXX+",
" XXXXXXXXXXXXXX+ XXXXXXXXXXXXXX+ XXXXXXXXXXXXXX+ XXXXXXXXXXXXXX+",
" X|XXXXXXXXXX|X+ X|XXXXXXXXXX|X+ X|XXXXXXXXXX|X+ X|XXXXXXXXXX|X+",
" +XXXXXXXXXX+XX+ +XXXXXXXXXX+XX+ +XXXXXXXXXX+XX+ +XXXXXXXXXX+XX+",
" XXXXXXXXXXXXXX+ XXXXXXXXXXXXXX+ XXXXXXXXXXXXXX+ XXXXXXXXXXXXXX+",
" XXXXXXXXXXXXXX+ XXXXXXXXXXXXXX+ XXXXXXXXXXXXXX+ XXXXXXXXXXXXXX+",
" XXXXXXXXXXXXXX+ XXXXXXXXXXXXXX+ XXXXXXXXXXXXXX+ XXXXXXXXXXXXXX+",
" XXXXXXXXXXXXXX+ XXXXXXXXXXXXXX+ XXXXXXXXXXXXXX+ XXXXXXXXXXXXXX+",
" XXXXXXXXXXXXXX+ XXXXXXXXXXXXXX+ XXXXXXXXXXXXXX+ XXXXXXXXXXXXXX+",
"|              X|              X|              X|              X",
" XXXXXXXXXXXXXX+ XXXXXXXXXXXXXX+ XXXXXXXXXXXXXX+ XXXXXXXXXXXXXX+",
"|              X|              X|              X|              X",
"|              +|              +|              +|              +",
"|              X|              X|              X|              X",
"|              +|              +|              +|              +",
"|              X|      X+++    X|              X|              X",
"|              X|     X+66XX   X|              X|              X",
"|              X|    X+66  X.  X|              X|              X",
"|              X|    +66 6  .  X|              X|              X",
"|               |    +X66  |.   |               |               ",
".              X.     .  ||.   X.              X.              X",
"|               |      ||.      |               |               ",
".              X.              X.              X.              X",
"|               |    +X         |               |      X+++     ",
".              X.   +6 .       X.              X.     X+66XX   X",
".              X.   X |.       X.              X.    X+66  X.  X",
".              X.    ..        X.              X.    +66 6  .  X",
".              +.              +.              +.    +X66  |.  +",
".              X.              X.              X.     .  ||.   X",
".              +.              +.              +.      ||.     +",
".              X.              X.              X.              X",
".      X+++    +.              +.              +.    +X        +",
".     X+66XX   +.              +.              +.   +6 .       +",
".    X+66  X.  +.              +.              +.   X |.       +",
".    +66 6  .  +.              +.              +.    ..        +",
".    +X66  |.  +.              +.              +.              +",
".     .  ||.   +.              +.              +.              +",
".      ||.     +.              +.              +.              +",
".              +.              +.              +.              +",
".    +X        +.              +.      X+++    +.              +",
".   +6 .       +.              +.     X+66XX   +.              +",
"    X |.       +               +     X+66  X.  +               +",
".    ..        +.              +.    +66 6  .  +.              +",
"               +               +     +X66  |.  +               +",
".              +.              +.     .  ||.   +.              +",
"               +               +       ||.     +               +",
".              +.              +.              +.              +",
"               +               +     +X        +               +",
"               +               +    +6 .       +               +",
"               +               +    X |.       +               +",
"               +               +     ..        +               +",
"               +               +               +               +",
"               +               +               +               +",
"               +               +               +               +",
"               +               +               +               +",
"               +               +               +               +",
" X      X      + X      X      + X      X      + X      X      +",
"X              +X              +X              +X              +",
"   |X      |X  +   |X      |X  +   |X      |X  +   |X      |X  +",
"X +XX  X  +XX  +X +XX  X  +XX  +X +XX  X  +XX  +X +XX  X  +XX  +",
"  ++      ++   +  ++      ++   +  ++      ++   +  ++      ++   +",
"               +               +               +               +",
"7+7777+7++++++++7+7777+7++++++++7+7777+7++++++++7+7777+7++++++++"
};