/* XPM */
static char *picture[] = {
"64 64 13 1 ",
"  c #4F4C3F",
"X c #373C2C",
"+ c #1E1E17",
". c #000000",
"| c #322E1D",
"/ c #66684C",
"6 c #181817",
"7 c #141413",
"8 c #353929",
"9 c #818556",
"a c #1C1C1B",
"b c #28271F",
"c c #28261F",
"................................................................",
"      X X X XXX|      X X X XXX|      X X X XXX|      X X X XXX|",
" XXXXXXXXXXXXXX| XXXXXXXXXXXXXX| XXXXXXXXXXXXXX| XXXXXXXXXXXXXX|",
" X/XXXXXXXXXX/X| X/XXXXXXXXXX/X| X/XXXXXXXXXX/X| X/XXXXXXXXXX/X|",
" |XXXXXXXXXX|XX| |XXXXXXXXXX|XX| |XXXXXXXXXX|XX| |XXXXXXXXXX|XX|",
" XXXXXXXXXXXXXX| XXXXXXXXXXXXXX| XXXXXXXXXXXXXX| XXXXXXXXXXXXXX|",
" XXXXXXXXXXXXXX| XXXXXXXXXXXXXX| XXXXXXXXXXXXXX| XXXXXXXXXXXXXX|",
" XXXXXXXXXXXXXX| XXXXXXXXXXXXXX| XXXXXXXXXXXXXX| XXXXXXXXXXXXXX|",
" XXXXXXXXXXXXXX| XXXXXXXXXXXXXX| XXXXXXXXXXXXXX| XXXXXXXXXXXXXX|",
" XXXXXXXXXXXXXX| XXXXXXXXXXXXXX| XXXXXXXXXXXXXX| XXXXXXXXXXXXXX|",
"9              X9              X9              X9              X",
" XXXXXXXXXXXXXX| XXXXXXXXXXXXXX| XXXXXXXXXXXXXX| XXXXXXXXXXXXXX|",
"9              X9              X9              X9              X",
"9              |9              |9              |9              |",
"9              X9              X9              X9              X",
"9              |9              |9              |9              |",
"9              X9              X9              X9              X",
"9              X9              X9              X9              X",
"9              X9              X9              X9              X",
"9              X9              X9              X9              X",
"9               9               9               9               ",
"/              X/              X/              X/              X",
"9               9               9               9               ",
"/              X/              X/              X/              X",
"9               9               9               9               ",
"/              X/              X/              X/              X",
"/              X/              X/              X/              X",
"/              X/              X/              X/              X",
"/              |/              |/              |/              |",
"/              X/              X/              X/              X",
"/              |/              |/              |/              |",
"/              X/              X/              X/              X",
"/              |/              |/              |/              |",
"/              |/              |/              |/              |",
"/              |/              |/              |/              |",
"/              |/              |/              |/              |",
"/              |/              |/              |/              |",
"/              |/              |/              |/              |",
"/              |/              |/              |/              |",
"/              |/              |/              |/              |",
"/              |/              |/              |/              |",
"/              |/              |/              |/              |",
"               |               |               |               |",
"/              |/              |/              |/              |",
"               |               |               |               |",
"/              |/              |/              |/              |",
"               |               |               |               |",
"/              |/              |/              |/              |",
"               |               |               |               |",
"               |               |               |               |",
"               |               |               |               |",
"  /          / |  /          / |  /          / |  /          / |",
" |          |  | |          |  | |          |  | |          |  |",
" /////////// / | /////////// / | /////////// / | /////////// / |",
"...............................7a7..............................",
"a..aa7.aa..aa7.aa..aa7.aa..aa7.aa..aa7.aa..aa7.aa..aa7.aa..aa7.a",
"888888888b8888b8b8b8b8bbbbbb8b8b8b88888888888888888888888b8888b8",
"++++++++6++++++++++++++++6++++++6+++++++6+++++++6+6+++++6+++++++",
"+6+++++6+++++++++++++++66++++++++++++++ccc+++++++6+++++6++++++++",
"6++87++++++87++++++87++6++c87++++++87+c+c++87+++6++87++++++87+++",
"++6.7+++++6.7+++++6.7+6+6+6.7++6++6.7++c++6.7++6++6.7+++++6.7++6",
"6+66++++++66++++++66+++6++66c+++++66++c+++66++66++66++++++66++6+",
"++++++++++++++++++++++6++++cc++++++++c++++++++6++++++++++++++6+6",
"7666666767677777776767.7.7....7.77777777676776767666666767677777"
};