/* XPM */
static char *picture[] = {
"64 64 9 1 ",
"  c #383F40",
"X c #464D4F",
"+ c #382B2F",
". c #1C1C1B",
"| c #536265",
"/ c #000000",
"6 c #62797E",
"7 c #141413",
"8 c #4B3F38",
"////////////////////////////////////////////////////////////////",
"XXXXXX X X X   +XXXXXX X X X   +XXXXXX X X X   +XXXXXX X X X   +",
"X              +X              +X              +X              +",
"X 6          6 +X 6          6 +X 6          6 +X 6          6 +",
"X+   ++++++ +  +X+   ++++++ +  +X+   ++++++ +  +X+   ++++++ +  +",
"X   ++++++++   +X   ++++++++   +X   ++++++++   +X   ++++++++   +",
"X  +++....+++  +X  +++....+++  +X  +++....+++  +X  +++....+++  +",
"X  ++..  ..++  +X  ++..  ..++  +X  ++..  ..++  +X  ++..  ..++  +",
"X  ++. .. .++  +X  ++. .. .++  +X  ++. .. .++  +X  ++. .. .++  +",
"X  ++. .. .++  +X  ++. .. .++  +X  ++. .. .++  +X  ++. .. .++  +",
"6XX  + .. +  XX 6XX  + .. +  XX 6XX  + .. +  XX 6XX  + .. +  XX ",
"X  ++. .. .++  +X  ++. .. .++  +X  ++. .. .++  +X  ++. .. .++  +",
"6XX  + .. +  XX 6XX  + .. +  XX 6XX  + .. +  XX 6XX  + .. +  XX ",
"6XX  + .. +  XX+6XX  + .. +  XX+6XX  + .. +  XX+6XX  + .. +  XX+",
"6XX  + .. +  XX 6XX  + .. +  XX 6XX  + .. +  XX 6XX  + .. +  XX ",
"6XX  + .. +  XX+6XX  + .. +  XX+6XX  + .. +  XX+6XX  + .. +  XX+",
"6XX  + .7 +  XX 6XX  + .7 +  XX 6XX  + .7 +  XX 6XX  + .7 +  XX ",
"6XX  + .. +  XX 6XX  + .. +  XX 6XX  + .. +  XX 6XX  + .. +  XX ",
"6XX  + .7 +  XX 6XX  + .7 +  XX 6XX  + .7 +  XX 6XX  + .7 +  XX ",
"6XX  + 7. +  XX 6XX  + 7. +  XX 6XX  + 7. +  XX 6XX  + 7. +  XX ",
"6XX  + .7 +  XXX6XX  + .7 +  XXX6XX  + .7 +  XXX6XX  + .7 +  XXX",
"|XX  + 7. +  XX |XX  + 7. +  XX |XX  + 7. +  XX |XX  + 7. +  XX ",
"6XX  + .. +  XXX6XX  + .. +  XXX6XX  + .. +  XXX6XX  + .. +  XXX",
"|XX  + .. +  XX |XX  + .. +  XX |XX  + .. +  XX |XX  + .. +  XX ",
"6XX  ++  ++  XXX6XX  ++  ++  XXX6XX  ++  ++  XXX6XX  ++  ++  XXX",
"|XX   ++++   XX |XX   ++++   XX |XX   ++++   XX |XX   ++++   XX ",
"|XX|        |XX |XX|        |XX |XX|        |XX |XX|        |XX ",
"|XXX|      |XXX |XXX|      |XXX |XXX|      |XXX |XXX|      |XXX ",
"|XXXXX||||XXXXX+|XXXXX||||XXXXX+|XXXXX||||XXXXX+|XXXXX||||XXXXX+",
"|XXXXXXXXXXXXXX |XXXXXXXXXXXXXX |XXXXXXXXXXXXXX |XXXXXXXXXXXXXX ",
"|XXXXXXXXXXXXXX+|XXXXXXXXXXXXXX+|XXXXXXXXXXXXXX+|XXXXXXXXXXXXXX+",
"|XXXXXXXXXXXXXX |XXXXXXXXXXXXXX |XXXXXXXXXXXXXX |XXXXXXXXXXXXXX ",
"|XXXX      XXXX+|XXXX      XXXX+|XXXX      XXXX+|XXXX      XXXX+",
"|XXX        XXX+|XXX        XXX+|XXX        XXX+|XXX        XXX+",
"|XX   ++++   XX+|XX   ++++   XX+|XX   ++++   XX+|XX   ++++   XX+",
"|XX  ++  ++  XX+|XX  ++  ++  XX+|XX  ++  ++  XX+|XX  ++  ++  XX+",
"|XX  + .. +  XX+|XX  + .. +  XX+|XX  + .. +  XX+|XX  + .. +  XX+",
"|XX  + .. +  XX+|XX  + .. +  XX+|XX  + .. +  XX+|XX  + .. +  XX+",
"|XX  + .. +  XX+|XX  + .. +  XX+|XX  + .. +  XX+|XX  + .. +  XX+",
"|XX  + .. +  XX+|XX  + .. +  XX+|XX  + .. +  XX+|XX  + .. +  XX+",
"|XX  + .. +  XX+|XX  + .. +  XX+|XX  + .. +  XX+|XX  + .. +  XX+",
"|XX  + .. +  XX+|XX  + .. +  XX+|XX  + .. +  XX+|XX  + .. +  XX+",
"XXX  + .. +  XX+XXX  + .. +  XX+XXX  + .. +  XX+XXX  + .. +  XX+",
"|XX  + .. +  XX+|XX  + .. +  XX+|XX  + .. +  XX+|XX  + .. +  XX+",
"XXX  + .7 +  XX+XXX  + .7 +  XX+XXX  + .7 +  XX+XXX  + .7 +  XX+",
"|XX  + .. +  XX+|XX  + .. +  XX+|XX  + .. +  XX+|XX  + .. +  XX+",
"XXX  + .7 +  XX+XXX  + .7 +  XX+XXX  + .7 +  XX+XXX  + .7 +  XX+",
"|XX  + 7. +  XX+|XX  + 7. +  XX+|XX  + 7. +  XX+|XX  + 7. +  XX+",
"XXX  + .7 +  XX+XXX  + .7 +  XX+XXX  + .7 +  XX+XXX  + .7 +  XX+",
"XXX  + 7. +  XX+XXX  + 7. +  XX+XXX  + 7. +  XX+XXX  + 7. +  XX+",
"XXX  + .. +  XX+XXX  + .. +  XX+XXX  + .. +  XX+XXX  + .. +  XX+",
"XXX  + .. +  XX+XXX  + .. +  XX+XXX  + .. +  XX+XXX  + .. +  XX+",
"XXX  ++  ++  XX+XXX  ++  ++  XX+XXX  ++  ++  XX+XXX  ++  ++  XX+",
"XXX   ++++   XX+XXX   ++++   XX+XXX   ++++   XX+XXX   ++++   XX+",
"XXX|        |XX+XXX|        |XX+XXX|        |XX+XXX|        |XX+",
"XXXX|      |XXX+XXXX|      |XXX+XXXX|      |XXX+XXXX|      |XXX+",
"XXXXXX||||XXXXX+XXXXXX||||XXXXX+XXXXXX||||XXXXX+XXXXXX||||XXXXX+",
"X XXXXXX XXXXXX+X XXXXXX XXXXXX+X XXXXXX XXXXXX+X XXXXXX XXXXXX+",
" XXXXXXXXXXXXXX+ XXXXXXXXXXXXXX+ XXXXXXXXXXXXXX+ XXXXXXXXXXXXXX+",
"XX86 XXXXXX6 X8+XX86 XXXXXX6 X8+XX86 XXXXXX6 X8+XX86 XXXXXX6 X8+",
" X+  XX XX+  XX+ X+  XX XX+  XX+ X+  XX XX+  XX+ X+  XX XX+  XX+",
"XX++8XXXXX++XX8+XX++8XXXXX++XX8+XX++8XXXXX++XX8+XX++8XXXXX++XX8+",
"XXX88XXXXXXXX8X+XXX88XXXXXXXX8X+XXX88XXXXXXXX8X+XXX88XXXXXXXX8X+",
"7+7777+7++++++++7+7777+7++++++++7+7777+7++++++++7+7777+7++++++++"
};