/* XPM */
static char *picture[] = {
"64 64 16 1 ",
"  c #4F4C3F",
"X c #373C2C",
"+ c #322E1D",
". c #66684C",
"| c #289237",
"/ c #A0B652",
"6 c #075929",
"7 c #FFEC24",
"8 c #1D783C",
"9 c #000000",
"a c #076C0E",
"b c #818556",
"c c #AFDA2F",
"d c #44402F",
"e c #141413",
"f c #024829",
"9999999999999999999999999999999999999999999999999999999999999999",
"      X X X XXX+      X X X XXX+      X X X XXX+      X X X XXX+",
" XXXXXXXXXXXXXX+ XXXXXXXXXXXXXX+ XXXXXXXXXXXXXX+ XXXXXXXXXXXXXX+",
" X.XX.... XXX.X+ X.XX.... XXX.X+ X.XX.... XXX.X+ X.XX.... XXX.X+",
" +XX.++++++X+XX+ +XX.++++++X+XX+ +XX.++++++X+XX+ +XX.++++++X+XX+",
" XX.++++++++ XX+ XX.++++++++ XX+ XX.++++++++ XX+ XX.++++++++ XX+",
" X.+++faaf+++ X+ X.+++faaf+++ X+ X.+++faaf+++ X+ X.+++faaf+++ X+",
" X.++faaaaf++.X+ X.++faaaaf++.X+ X.++faaaaf++.X+ X.++faaaaf++.X+",
" X.++aaccaa++.X+ X.++aaccaa++.X+ X.++aaccaa++.X+ X.++aaccaa++.X+",
" X.++a6776a++.X+ X.++a6776a++.X+ X.++a6776a++.X+ X.++a6776a++.X+",
"b /XX|8778|XX/ Xb /XX|8778|XX/ Xb /XX|8778|XX/ Xb /XX|8778|XX/ X",
" X.++a6776a++.X+ X.++a6776a++.X+ X.++a6776a++.X+ X.++a6776a++.X+",
"b /XX|8778|XX/ Xb /XX|8778|XX/ Xb /XX|8778|XX/ Xb /XX|8778|XX/ X",
"b /XX||cc||XX/ +b /XX||cc||XX/ +b /XX||cc||XX/ +b /XX||cc||XX/ +",
"b .XX6||||6XX/ Xb .XX6||||6XX/ Xb .XX6||||6XX/ Xb .XX6||||6XX/ X",
"b .XXX6||6XXX/ +b .XXX6||6XXX/ +b .XXX6||6XXX/ +b .XXX6||6XXX/ +",
"b  .XXXXXXXX/  Xb  .XXXXXXXX/  Xb  .XXXXXXXX/  Xb  .XXXXXXXX/  X",
"b   .XXXXXX/   Xb   .XXXXXX/   Xb   .XXXXXX/   Xb   .XXXXXX/   X",
"b    ././//    Xb    ././//    Xb    ././//    Xb    ././//    X",
"b              Xb              Xb              Xb              X",
"b               b               b               b               ",
".              X.              X.              X.              X",
"b    /./...     b    /./...     b    /./...     b    /./...     ",
".   /XXXXXX.   X.   /XXXXXX.   X.   /XXXXXX.   X.   /XXXXXX.   X",
"b  /XXXXXXXX.   b  /XXXXXXXX.   b  /XXXXXXXX.   b  /XXXXXXXX.   ",
". /XXX6||6XXX. X. /XXX6||6XXX. X. /XXX6||6XXX. X. /XXX6||6XXX. X",
". /XX6||||6XX/ X. /XX6||||6XX/ X. /XX6||||6XX/ X. /XX6||||6XX/ X",
". /XX||cc||XX. X. /XX||cc||XX. X. /XX||cc||XX. X. /XX||cc||XX. X",
". /XX|8778|XX/ +. /XX|8778|XX/ +. /XX|8778|XX/ +. /XX|8778|XX/ +",
". /XX|8778|XX/ X. /XX|8778|XX/ X. /XX|8778|XX/ X. /XX|8778|XX/ X",
". /XX||778|XX/ +. /XX||778|XX/ +. /XX||778|XX/ +. /XX||778|XX/ +",
". .XX|8778|XX/ X. .XX|8778|XX/ X. .XX|8778|XX/ X. .XX|8778|XX/ X",
". /XX||cc||XX/ +. /XX||cc||XX/ +. /XX||cc||XX/ +. /XX||cc||XX/ +",
". .XX6||||6XX/ +. .XX6||||6XX/ +. .XX6||||6XX/ +. .XX6||||6XX/ +",
". .XXX6||6XXX/ +. .XXX6||6XXX/ +. .XXX6||6XXX/ +. .XXX6||6XXX/ +",
".  .XXXXXXXX/  +.  .XXXXXXXX/  +.  .XXXXXXXX/  +.  .XXXXXXXX/  +",
".   .XXXXXX/   +.   .XXXXXX/   +.   .XXXXXX/   +.   .XXXXXX/   +",
".    ././//    +.    ././//    +.    ././//    +.    ././//    +",
".              +.              +.              +.              +",
".              +.              +.              +.              +",
".              +.              +.              +.              +",
".    /./...    +.    /./...    +.    /./...    +.    /./...    +",
"    /XXXXXX.   +    /XXXXXX.   +    /XXXXXX.   +    /XXXXXX.   +",
".  /XXXXXXXX.  +.  /XXXXXXXX.  +.  /XXXXXXXX.  +.  /XXXXXXXX.  +",
"  /XXX6||6XXX. +  /XXX6||6XXX. +  /XXX6||6XXX. +  /XXX6||6XXX. +",
". /XX6||||6XX/ +. /XX6||||6XX/ +. /XX6||||6XX/ +. /XX6||||6XX/ +",
"  /XX||cc||XX. +  /XX||cc||XX. +  /XX||cc||XX. +  /XX||cc||XX. +",
". /XX|8778|XX/ +. /XX|8778|XX/ +. /XX|8778|XX/ +. /XX|8778|XX/ +",
"  /XX|877||XX/ +  /XX|877||XX/ +  /XX|877||XX/ +  /XX|877||XX/ +",
"  /XX||778|XX/ +  /XX||778|XX/ +  /XX||778|XX/ +  /XX||778|XX/ +",
"  .XX|8778|XX/ +  .XX|8778|XX/ +  .XX|8778|XX/ +  .XX|8778|XX/ +",
"  /XX||cc||XX/ +  /XX||cc||XX/ +  /XX||cc||XX/ +  /XX||cc||XX/ +",
"  .XX6||||6XX/ +  .XX6||||6XX/ +  .XX6||||6XX/ +  .XX6||||6XX/ +",
"  .XXX6||6XXX/ +  .XXX6||6XXX/ +  .XXX6||6XXX/ +  .XXX6||6XXX/ +",
"   .XXXXXXXX/  +   .XXXXXXXX/  +   .XXXXXXXX/  +   .XXXXXXXX/  +",
"    .XXXXXX/   +    .XXXXXX/   +    .XXXXXX/   +    .XXXXXX/   +",
"     ././//    +     ././//    +     ././//    +     ././//    +",
" X      X      + X      X      + X      X      + X      X      +",
"X              +X              +X              +X              +",
"  dX/      /X d+  dX/      /X d+  dX/      /X d+  dX/      /X d+",
"X +XX  X  +XX  +X +XX  X  +XX  +X +XX  X  +XX  +X +XX  X  +XX  +",
"  ++d     ++  d+  ++d     ++  d+  ++d     ++  d+  ++d     ++  d+",
"   dd        d +   dd        d +   dd        d +   dd        d +",
"e+eeee+e++++++++e+eeee+e++++++++e+eeee+e++++++++e+eeee+e++++++++"
};