/* XPM */
static char *picture[] = {
"64 64 11 1 ",
"  c #464D4F",
"X c #383F40",
"+ c #1C1C1B",
". c #292A28",
"| c #000000",
"/ c #141413",
"6 c #382B2F",
"7 c #62797E",
"8 c #28221F",
"9 c #536265",
"a c #2F1C17",
"||||||||||||||||||||||||||||||||||||||||||||||||||||||||||||||||",
"             X X X XXX/|      X X X XXXX||XX X X           X X  ",
"XXXXXXXXXXXXXXXXXXXXXX/| XXXXXXXXXXXXXXX||XXXXXXXXXXXXXXXXXXXXXX",
"XXXXXXXXXXXXXXXXXXXXXX/| X7XXXXXXXXXX7XX||XXXXXXXXXXXXXXXXXXXXXX",
"XXXXXXXXXXXXXXXX67 XXX/| 6XXX666666X6XXX||XX67 XXXXXXXXXXXXXXXXX",
"XXXXXXXXXXXXXXXX6  XXX/| XXX66666666XXXX|/XX6  XXXXXXXXXXXXXXXXX",
"XXXXXXXXXXXXXXXX66XXXX/| XX666++++666XXX/|XX66XXXXXXXXXXXXXXXXXX",
"XXXXXXXXXXXXXXXXXXXXXX/| XX66++XX++66XXX|/XXXXXXXXXXXXXXXXXXXXXX",
"                      8/ XX66+X++X+66XXX/|                      ",
"XXXXXXXXXXXXXXXX XXXXX/| XX66+X++X+66XXX|/XXXXXXXXXXXXXXXXXXXXXX",
"                      8/7  XX6X++X6XX   /|                      ",
"                      /| XX66+X++X+66XXX|8                      ",
"                      8/7  XX6X++X6XX   8/                      ",
"                      8/7  XX6X++X6XX   /8                      ",
"                      8/7  XX6X++X6XX   8/                      ",
"                      8/7  XX6X+/X6XX   /8                      ",
"                      8/7  XX6X/+X6XX   8/                      ",
"                      //7  XX6X++X6XX   /8                      ",
"                      8/7  XX6X++X6XX   88                      ",
"                      //9  XX6X++X6XX   /8                      ",
"                      8/7  XX6X++X6XX   88                      ",
"                      //9  XX6X++X6XX   /8                      ",
"                      8/7  XX6X++X6XX   88                      ",
"                      //9  XX6X++X6XX   /8                      ",
"                      //9  XX6X++X6XX   /8                      ",
"                      //9  XX6X++X6XX   /8                      ",
"                      //9  XX6X+/X6XX   /8                      ",
"                      //9  XX6X/+X6XX   88                      ",
"                      //   XX6X+/X6XX   /8                      ",
"                      //9  XX6X/+X6XX   88                      ",
"                      //   XX6X++X6XX   /8                      ",
"                      /89  XX6X++X6XX   88                      ",
"                      8/   XX66XX66XX   88                      ",
"                67X   /8   XXX6666XXX   88  67X                 ",
"                6XX   8/   9XXXXXXXX9   88  6XX                 ",
"                66    /8    9XXXXXX9    88  66                  ",
"                      88  7   9999   7  88                      ",
"7777777777777777777 7 88 6          6   88 7 777777 7 7 7 777777",
"|||||||||||||||||||||||8                8|||||||||||||||||||||||",
"||||||||||||||||||||||||  7777777777 7  ||||||||||||||||||||||||",
"+/|/+///+/|/+///+/|/+/|||||||||||||||||||||/+///+/|/+///+/|/+///",
"./|..+/../|..+/../|..+/||||||||||||||||||/|..+/../|..+/../|..+/.",
"./|..++../|..++../|..++.//|/+///+/|/+///+/|..++../|..++../|..++.",
"./|..++../|..++../|..++../|..++../|..++../|..++../|..++../|..++.",
".+/..++..+/..++..+/..++..+/..++..+/..++..+/..++..+/..++..+/..++.",
"./|..++../|..++../|..++../|..++../|..++../|..++../|..++../|..++.",
".+/..++..+/..++..+/..++..+/..++..+/..++..+/..++..+/..++..+/..++.",
".+|..++..+|..++..+|..++..+|..++..+|..++..+|..++..+|..++..+|..++.",
".+/..++..+/..++..+/..++..+/..++..+/..++..+/..++..+/..++..+/..++.",
".+/..++..+/..++..+/..++..+/..++..+/..++..+/..++..+/..++..+/..++.",
".//..++..//.+++..//..++..//.+++..//..++..//.+++..//..++..//.+++.",
".+/..++..+/..++..+/..++..+/..++..+/..++..+/..++..+/..++..+/..++.",
"+/|.+++.+/|.+++.+/|.+++.+/|.+++.+/|.+++.+/|.+++.+/|.+++.+/|.+++.",
".//+.++..//+.++..//+.++..//+.++..//+.++..//+.++..//+.++..//+.++.",
"+/|.++/.+/|.++/.+/|.++/.+/|.++/.+/|.++/.+/|.++/.+/|.++/.+/|.++/.",
"+||++/|++||++/|++||++/|++||++/|++||++/|++||++/|++||++/|++||++/|+",
"7777777779777797979797999999797979777777777777777777777779777797",
"        X                X             X X      X X     X       ",
" X     X               XX               X        X     X        ",
"X  7X      7X      7X  X   7X      7X  X   7X   X  7X      7X   ",
"  6XX     6XX     6XX X X 6XX     6XX     6XX  X  6XX     6XX  X",
"X 66      66      66   X  66      66      66  XX  66      66  X ",
"                      X             X         X              X X",
"6aaaaaa6a6a6666666a6a6/6/6////6/66666666a6a66a6a6aaaaaa6a6a66666"
};