/* XPM */
static char *picture[] = {
"64 64 13 1 ",
"  c #464D4F",
"X c #383F40",
"+ c #292A28",
". c #1C1C1B",
"| c #000000",
"/ c #141413",
"6 c #62797E",
"7 c #382B2F",
"8 c #28221F",
"9 c #4B3F38",
"a c #536265",
"b c #2F1C17",
"c c #21181B",
"||||||||||||||||||||||||||||||||||||||||||||||||||||||||||||||||",
"             X X X XXX/|      X X X XXXX||XX X X           X X  ",
"XXXXXXXXXXXXXXXXXXXXXX/| XXXXXXXXXXXXXXX||XXXXXXXXXXXXXXXXXXXXXX",
"XXXXXXXXXXXXXXXXXXXXXX/| X6XXXXXXXXXX6XX||XXXXXXXXXXXXXXXXXXXXXX",
"XXXXXXXXXXXXXXXX76 XXX/| 7XXXXXXXXXX7XXX||XX76 XXXXXXXXXXXXXXXXX",
"XXXXXXXXXXXXXXXX7  XXX/| XXXXXXXXXXXXXXX|/XX7  XXXXXXXXXXXXXXXXX",
"XXXXXXXX7XXXXXXX77XXXX/| XXXXXXXXXXXXXXX/|XX777XXXXXXXXXXXXXXXXX",
"XXXXXXX7/7XXXXXXXXXXXX/| XXXXXXXXXXXXXXX|/XXX77XXXXXXXXXXXXXXXXX",
"       999            8/ XXXXXXXXXXXXXXX/|   99                 ",
"XXXXXXX777XXXX X XXXXX/| XXXXXXXXXXXXXXX|/XXX7XXXXXX X X XXXXXXX",
"       99             8/6               /|    9                 ",
"       999            /| XXXXXXX X XX XX|8   9                  ",
"       99             8/6               8/                      ",
"       99             8/6               /8                      ",
"        9             8/6               8/                      ",
"       99             8/6               /8                      ",
"        9             8/6               8/                      ",
"        9             //6               /8                      ",
"                      8/6    99         88                      ",
"        9             //6    99         /8                  Xa  ",
"                      8/6    9          88                 X6   ",
"                      //      9         /8                 a    ",
"                      8/6    9          88               X      ",
"                      //                /8            X X       ",
"                      //6               /8           XaX Xa     ",
"                      //                /8          X6X X6      ",
"                      //6               /8         X6  Xa       ",
"   X                  //                88         a  X         ",
"    X                 //                /8                      ",
"   XX                 //                88                      ",
"  XXX                 //                /8                      ",
"  XX                  /8                88                      ",
"  XXX       aX        8/                88                      ",
"   X       aX   76X   /8                88  76X                 ",
"    X    a6|X   7XX   8/                88  7XX                 ",
"       a6|||a   77    /8                88  77                  ",
"    a66||||||aa       88  6          6  88                      ",
"6666|||||||||||6666 6 88 7          7   88 6 666666 6 6 6 666666",
"|||||||||||||||||||||||8                8|||||||||||||||||||||||",
"|||||c||||||||||||||||||  6666666666 6  ||||||||||||||||||||||||",
"./|/7c/||||||//c.c|/./|||||||||||||||||||||/.///./|/.///./|/.///",
"+/|+7cc7/|||/cc77/|++./||||||||||||||||||/|++./++/|++./++/|++./+",
"+/|++.c+7c//7cc7+/|++..+//|/.///./|/.///./|++..++/|++..++/|++..+",
"+/|++c.7+cc7+c.+7/|++..++/|++..++/|++..++/|++..++/|++..++/|++..+",
"+./++.c+7cc+7..7+./++..++./++..++./++..++./++..++./++..++./++..+",
"+/|++..++//++..++/|++..++/|++..++/|++..++/|++..++/|++..++/|++..+",
"+./++..++./++..++./++..++./++..++./++..++./++..++./++..++./++..+",
"+.|++..++./++..++.|++..++.|++..++.|++..++.|++..++.|++..++.|++..+",
"+./++..++./++..++./++..++./++..++./++..++./++..++./++..++./++..+",
"+./++..++./++..++./++..++./++..++./++..++./++..++./++..++./++..+",
"+//++..++//+...++//++..++//+...++//++..++//+...++//++..++//+...+",
"+./++..++./++..++./++..++./++..++./++..++./++..++./++..++./++..+",
"./|+...+./|+...+./|+...+./|+...+./|+...+./|+...+./|+...+./|+...+",
"+//.+..++//.+..++//.+..++//.+..++//.+..++//.+..++//.+..++//.+..+",
"./|+../+./|+../+./|+../+./|+../+./|+../+./|+../+./|+../+./|+../+",
".||../|..||../|..||../|..||../|..||../|..||../|..||../|..||../|.",
"666666666a6666a6a6a6a6aaaaaa6a6a6a66666666666666666666666a6666a6",
"        X                X      X       X       X X     X       ",
" X     X               XX              999       X     X        ",
"X  6X      6X      6X  X  96X      6X 9 9  6X   X  6X      6X   ",
"  7XX     7XX     7XX X X 7XX  X  7XX  9  7XX  X  7XX     7XX  X",
"X 77      77      77   X  779     77  9   77  XX  77      77  X ",
"                      X    99        9        X              X X",
"7bbbbbb7b7b7777777b7b7/7/7////7/77777777b7b77b7b7bbbbbb7b7b77777"
};