/* XPM */
static char *picture[] = {
"64 64 20 1 ",
"  c #464D4F",
"X c #383F40",
"+ c #292A28",
". c #1C1C1B",
"| c #000000",
"/ c #141413",
"6 c #382B2F",
"7 c #62797E",
"8 c #FFD02C",
"9 c #BAB77A",
"a c #28221F",
"b c #F5F9ED",
"c c #4B3F38",
"d c #2F1C17",
"e c #536265",
"f c #796F47",
"g c #FFB62C",
"h c #FFEC24",
"i c #F78300",
"j c #FF992C",
"||||||||||||||||||||||||||||||||||||||||||||||||||||||||||||||||",
"             X X X XXX/|      X X X XXXX||XX X X           X X  ",
"XXXXXXXXXXXXXXXXXXXXXX/| XXXXXXXXXXXXXXX||XXXXXXXXXXXXXXXXXXXXXX",
"XXXXXXXXXXXXXXXXXXXXXX/| X7XX7777 XXX7XX||XXXXXXXXXXXXXXXXXXXXXX",
"XXXXXXXXXXXXXXXX6ffXXX/| 6XX7666666X6XXX||XX6ffXXXXXXXXXXXXXXXXX",
"XXXXXXXXXXXXXXXX6f9XXX/| XX766666666 XXX|/XX69fXXXXXXXXXXXXXXXXX",
"XXXXXXXX6XXXXXXX66XXXX/| X7666iggi666 XX/|XX666XXXXXXXXXXXXXXXXX",
"XXXXXXX6/6XXXXXXXXXXXX/| X766iggggi667XX|/XXX66XXXXXXXXXXXXXXXXX",
"       ccc            a/ X766gghhgg667XX/|   cc                 ",
"XXXXXXX666XXXX X XXXXX/| X766ggbbgg667XX|/XXX6XXXXXX X X XXXXXXX",
"       cc             a/7 9XX88bb88XX9  /|    c                 ",
"       ccc            /| X766ggbbgg667XX|a   c                  ",
"       cc             a/7 9XX88bb88XX9  a/                      ",
"       cc             a/7 9XX88bb88XX9  /a                      ",
"        c             a/7 9XX88bh88XX9  a/                      ",
"       cc             a/7 9XX88hb88XX   /a                      ",
"        c             a/7 9XX88bb88XX9  a/                      ",
"        c             //7 9XX88bb88XX   /a                      ",
"                      a/7 9XX88bb88XX9  aa                      ",
"        c             //e 9XX88bb88XX9  /a                  Xe  ",
"                      a/7  XX88bb88XX9  aa       X         X7   ",
"                      //e 9XX88bb88XX9  /a      X9         e    ",
"                      a/7  XX88bb88XX9  aa      9        X      ",
"                      //e 9XX88bb88XX9  /a     f      X X       ",
"                      //e 9XX88bb88XX9  /a           XeX Xe     ",
"                      //e 9XX88bh88XX9  /a          X7X X7      ",
"                      //e 9XX88hb88XX9  /a         X7  Xe       ",
"   X                  //e 9XX88bh88XX9  aa         e  X         ",
"    X                 //  9XX88hb88XX9  /a                      ",
"   XX                 //e 9XX88bb88XX9  aa                      ",
"  XXX                 //  7XX88bb88XX9  /a                      ",
"  XX                  /ae 9XX88hh88XX9  aa                      ",
"  XXX                 a/  7XXj8888jXX9  aa                      ",
"   X            6f9   /a  7XXXj88jXXX9  aa  69f                 ",
"    X           6ff   a/   7XXXXXXXX9   aa  6ff                 ",
"                66    /a    7XXXXXX9    aa  66                  ",
"                      aa  f  797999  f  aa                      ",
"7777777777777777777 7 aa 6          6   aa 7 777777 7 7 7 777777",
"|||||||||||||||||||||||a                a|||||||||||||||||||||||",
"||||||||||||||||||||||||  7777777777 7  ||||||||||||||||||||||||",
"./|/.///./|/.///./|/./|||||||||||||||||||||/.///./|/.///./|/.///",
"+/|++./++/|++./++/|++./||||||||||||||||||/|++./++/|++./++/|++./+",
"+/|++..++/|++..++/|++..+//|/.///./|/.///./|++..++/|++..++/|++..+",
"+/|++..++/|++..++/|++..++/|++..++/|++..++/|++..++/|++..++/|++..+",
"+./++..++./++..++./++..++./++..++./++..++./++..++./++..++./++..+",
"+/|++..++/|++..++/|++..++/|++..++/|++..++/|++..++/|++..++/|++..+",
"+./++..++./++..++./++..++./++..++./++..++./++..++./++..++./++..+",
"+.|++..++.|++..++.|++..++.|++..++.|++..++.|++..++.|++..++.|++..+",
"+./++..++./++..++./++..++./++..++./++..++./++..++./++..++./++..+",
"+./++..++./++..++./++..++./++..++./++..++./++..++./++..++./++..+",
"+//++..++//+...++//++..++//+...++//++..++//+...++//++..++//+...+",
"+./++..++./++..++./++..++./++..++./++..++./++..++./++..++./++..+",
"./|+...+./|+...+./|+...+./|+...+./|+...+./|+...+./|+...+./|+...+",
"+//.+..++//.+..++//.+..++//.+..++//.+..++//.+..++//.+..++//.+..+",
"./|+../+./|+../+./|+../+./|+../+./|+../+./|+../+./|+../+./|+../+",
".||../|..||../|..||../|..||../|..||../|..||../|..||../|..||../|.",
"777777777e7979e9e9999999999999999999999999999797979777777e7777e7",
"        X                X      X       X       X X     X       ",
" X     X               XX              ccc       X     X        ",
"X  7X      7X      fX  X  cfX      fX c c  fX   X  7X      7X   ",
"  6XX     6XX     6XX X X 6XX  X  6XX  c  6XX  X  6XX     6XX  X",
"X 66      66      66   X  66c     66  c   66  XX  66      66  X ",
"                      X    cc        c        X              X X",
"6dddddd6d6d6666666d6d6/6/6////6/66666666d6d66d6d6dddddd6d6d66666"
};