/* XPM */
static char *picture[] = {
"64 64 25 1 ",
"  c #536265",
"X c #4E595A",
"+ c #405638",
". c #5A7B48",
"| c #383F40",
"/ c #28221F",
"6 c #7E9154",
"7 c #62797E",
"8 c #5B6F73",
"9 c #206134",
"a c #377B36",
"b c #000000",
"c c #888D82",
"d c #4E9129",
"e c #869A9C",
"f c #65A117",
"g c #616257",
"h c #93968B",
"i c #9BACAA",
"j c #7C9193",
"k c #00749C",
"l c #005A97",
"m c #003C75",
"n c #A1A9A3",
"o c #89928C",
"inohh6666666 X+bb//|/||Xcc66 X+/inohh6666666 X+bieee777ggc66 X+b",
"e.   6..   .. X/eccc66cc.   X X/e.   6..   .. X/h.    67    X X/",
"7   6.    ..   |e.   6..     X |7   6.    ..   |.   .6       X |",
"7  7  . ...   +/e   6.         /7  7  . ...   +/6  77          /",
"7 .7 . ..     +|7  7          X/7 .7 . ..     +|6 6           X/",
"7 6   .      + |7 .7 .      8+|/7 6   .      + |66.         8+|/",
"76   .    X X  |76. . .    8++||76   .    X X  |76. . .    8++||",
"g7        +    |c6.. .    88++|/g7        +    |c6.. .    88++|/",
"g        ++    |c6. ..   8++X+||g        ++    |c6. ..   8++X+||",
"+       8+X X  |6.     X +X  X+|+       8+X X  |6.     X +X  X+|",
"++     8+X X   |.     X XX    +|++     8+X X   |.     X XX    +|",
"++    8+X X X  |     X X       |++    8+X X X  |     X X       |",
"+X   8+X X     /    X X        /+X   8+X X     /    X X        /",
"X  8+++       X/X             X/X  8+++       X/X             X/",
"X+++++X  ++X  +bX+++  |  ++X 9+a9d++++X  ++X  +/X+++     ++X  +b",
"b///|/|||||/|/bb////|/9|a9|/|df9dffa|/|||||/|//bb///|/|||||/|/bb",
"ih.666666666 X+/jc.66./f9/+77+|/9/9|777gg++++XXbjj777+|++XXX+++b",
"e.   6..   .. X/j.  7.addf|.. X/|.    67  ++XX /c.    +|X    X+/",
"e   6.    ..   |7  7. +ada9.   |.   .6      X X/.  7  X+    X X/",
"e  7    ... . +/7 7  . fa9+   +/6  77        XX/6 7    +     X /",
"7 .7   ... .  +|7      9+77   +|6 6         X X|67.   X +     X|",
"7 6     . .  + |+         7    |66.        X X+/.. .   X+      /",
"76     .    X  ||+X X    X     |6.          8++|+ .     + X    |",
"g7             |+|++ X XX X    |6.  . .     8+ //..    XX+     |",
"g             X|+X  +++X       |6  ...     8+X+/m||X   X  X   8|",
"+            XX|X      +       |6  ..      8++ /llkkX X      8+|",
"++         X+++|X     X X  8   /6 .. .     X+ +|lij777 X   88X+|",
"++   X  88X+ X |X         8XX X/6.. .     X+ + /j..       8XX X/",
"+XX X 88+++ X X/+ X       8X  |/ . .  X   + XfX97.         X XX|",
"XX X X++X+ + XX/+X X     8X XX/m/    +   X+X fafX9           X|/",
"X XXX++ + + X +/++X X   8++XX|bll| ++   XX+ XXd9f/ ++f     X|//b",
"////|/|||||/|//b////|/|||||/|/mlk/|/|||||||/9d9df9dad9a/||//b/bb",
"inohh6666666 X+/ih.666666666 X7kkkee777cc6. d+//ad/a9/|Xcc66 X+b",
"e.   6..   .. X/e.   6..   .. X7ki.   666.    +bf9cc66cc.   X X/",
"7   6.    ..   |e   6.    ..   |/c   ....     +a .   6..     X |",
"7  7  . ...   +/e  7    ... . +/|c  77 .      +d+   6.         /",
"7 .7 . ..     +|7 .7   ... .  +|/6 6  . .   X fa+  7          X/",
"7 6   .      + |7 6     . .  + ||66. . ..  X   9+ .7 .      8+|/",
"76   .    X X  |76     .    X  ||c.   .   X X  |76. . .    8++||",
"g7        +    |g7             |Xc.      X X   |c6.. .    88++|/",
"g        ++    |g             X|c.        X    |c6. ..   8++X+||",
"+       8+X X  |+            XX|c       8+X   +|6.     X +X  X+|",
"++     8+X X   a|+         X+++|6      8+X    +|.     X XX    +|",
"++    8+X X X  a|+   X  88X+ X |6     88+     X/     X X       |",
"+X   8+X X    fd|Xa X 88+++ X X/ X   8++X      |    X X        /",
"X  8+++      aa99a X X++X+ + XX/X X  ++++X     /X             X/",
"X+++++X  ++X  af9aXXX++ d + X +/+X  X||||++  X+/X+++     ++X  +/",
"////|/|||||/9dfdfda9|/9dfdf9d9/b//|///|/||||///b////|/|///|/|//b",
"ih.666666666 a/9dd|7777/da/a|XXbih.666666666 X+/jc.66.+/mllj7X+/",
"e.   6..   .. Xd/a+a  67++++X +/e.   6..   .. X/j.  7. .|kj.. X/",
"e   6.    ..  a| +a .6        +/e   6.    ..   |7  7. ..|kc.   |",
"e  7    ... . +/h  77        8+/e  7    ... . +/7 7  .  Xk7   +/",
"7 .7   ... .  +|h 6          ++|7 .7   ... .  +|7        X7   +9",
"7 6     . .  + |66. . .     8++/7 6     . .  + |+         7    a",
"d6     .    X  |6. . .     8++X|76     .    X  ||+X X    X    |a",
"/+             |6.  .     8+X  |g7             |+|++ X XX X  X9f",
"9+            X|6  ..    8+X   |g             X|+X  +++X    XXdf",
"/            XX|6  .    ++X X +|+            XX|X      +     |9a",
"d+         X+++|6 ..  X++X X  +|++         X+++|X     X X  8  /9",
"|+   X  88X+ X |6..       X   X/++   X  88X+ X |X         8XX Xf",
"+XX X 88+++ X X/ .    X  X X   |+XX X 88+++ X X/+ X       8X  |d",
"XX X X++X+ + XX/X    +         /XX X X++X+ + XX/+X X     8X XX/9",
"X XXX++ + + X +/+X ++        X+/X XXX++ + + X +/++X X   8++XX|/9",
"////|/|||||/|//bb/|/||||||||///b////|/|||||/|//b////|/|||||/|//b"
};