/* XPM */
static char *picture[] = {
"64 64 18 1 ",
"  c #536265",
"X c #4E595A",
"+ c #405638",
". c #5A7B48",
"| c #383F40",
"/ c #28221F",
"6 c #7E9154",
"7 c #62797E",
"8 c #5B6F73",
"9 c #616257",
"a c #000000",
"b c #888D82",
"c c #869A9C",
"d c #93968B",
"e c #7C9193",
"f c #9BACAA",
"g c #A1A9A3",
"h c #89928C",
"6.         6 X+afccc77799b66 X+afghdd666666699|aa//|/||Xbb66 X+/",
"9     ..   .. X/d.    67    X X/c.   6..   .. X996bb66bb.   X X/",
"6      .  ..   |.   .6       X |7   6.    ..         6..     X |",
"6  7  . ...   +/6  77          /7  7  . ...    X    6.         /",
"7 .7 . ..     +|6 6           X/7 .7 . ..     X    7          X/",
"7 6   .      + |66.         8+|/7 6   .      X X  .7 .      8+|/",
"76   .    X X  |76. . .    8++||76   .    X XXX X   . .    8++||",
"97        +    |b6.. .    88++|/97        +   XX   . .    88++|/",
"9        ++    |b6. ..   8++X+||9        ++  X      ..   8++X+||",
"+       8+X X  |6.     X +X  X+|+       8+X X          X +X  X+|",
"++     8+X X   |6     X XX    +|++     8+X X          X XX    +|",
"++    8+X X X  |6.   X X       |++    8+X X X        X X       |",
"+X   8+X X     /6   X X        /+X   8+X X          X X        /",
"X  8+++       X/6.            X/X  8+++       X X             X/",
"X+++++X  ++X  +/. .           +aX+++++X  ++X  + X+++     ++X  +/",
"////|/|||||/|//ab6.. .         aa///|/|||||/|/aa////|/|||||/|//a",
"77cc77799++++XXa6.. .         +afd.666666666 X+/eb.66.+|+++77X+7",
"7 7   67  ++XX /6             +/c.   6..   .. X/e.  7. .|+7.. X ",
" 7  .6      X X/.  7        X X/c   6.    ..   |7  7. ..|+e.  + ",
"   77        XX/6 7    +     X /c  7    ... . +/7 7  .  7+7   X+",
"  6         X X|67.   X +     X|7 .7   ... .  +|7        77   XX",
" X         X X+/.. .   X+      /7 6     . .  + |+         7    X",
"X           8++|+ .     + X    |76     .    X  /|+X X    X    +X",
" X  . .     8+ ||..    XX+     |97             |+|++ X XX X ++ X",
"X  ...     8+X+|+||7   X  X   8|9             X/+X  +++X        ",
"   ..      8++ |++++7 X      8+|+            XX/X      +       X",
"  .. .     X+ +|+7e777 X   88X+||+9        X+++/X     X X  8    ",
"6.. .     X+ + /7..       8XX X/|+9  X  88X+ X |X         8XX   ",
" . .  X   + X X|7.         X XX||6X X 8  X+ X X/+ X       8X  + ",
"X    +   X+X X /X            X|/69 X X  X+ + XX/+X X     8X XX +",
"+X ++   XX+ XX+/+X ++      X|//a.9XXX+ XXX  X +/++X X   8++XX|++",
"//|/||||||||//aa//|/||||||//a/aa.9  + + XX     a////|/|||||/|//a",
"afcc777bb6.  Xcbbb/|/||Xbb66 X+a.     X++  6 X+/fd.666666666 X+/",
"/b.   666.        bb66bb.   X X/9.         .. X/c.   6..   .. X/",
"/b   ....            6..     X |9   6.     .   |c   6.    ..   |",
"|b  77 .            6.         /7  7      .   +/c  7    ... . +/",
"/6 6  . .   X      7          X/7 .7 . ..     +|7 .7   ... .  +|",
"|66. . ..  X      .7 .      8+|/7 6          + |7 6     . .  + |",
"|b.   .   X X     . . .    8++||76   .    X X  |76     .    X  |",
"Xb.      X X      .. .    88++|/97        +    |97             |",
"b.        X       . ..   8++X+||9        ++    |99 9          X|",
"b       8+X      .     X +X  X+|+       8+X X  |6 9          XX|",
"6      8+X            X XX    +|++     8+X X   |69 9       X+++|",
"6     88+            X X       |++    8+X X X  |79   X  88X+ X |",
" X   8++X           X X        /+X   8+X X     /6   X X X++ X X/",
"X X  ++++X                    X/X  8+++       X/7  X X XXX + XX/",
"+X  X||||++  X+  +++     ++X  +/X+++++X  ++X  +a7 XX    X   X +/",
"//|///|/||||///a////|/|||||/|//a////|/|||||/|//ad          X   a",
"fd.666666666 X+/eb.66.+|+++77X+  d.666666666 X+/6          X   a",
"c.   6..   .. X/e.  7. .|+7.. X  .   6..   .. X/d.    67  XXXX+/",
"c   6.    ..   |7  7. ..|+e.        6.    ..   |6   .6    X X +/",
"c  7    ... . +/7 7  .  7+7        7    ... . +/d  77    X   8+/",
"7 .7   ... .  +|7        77            ... .  +|d 6          ++|",
"7 6     . .  + |+         7             . .  + |66. . .     8++/",
"76     .    X  ||+X X    X             .    X  |6. . .     8++X|",
"97             |+|++ X XX X                    |6.  .     8+X  |",
"9             X|+X  +++X                      X|6  ..    8+X   |",
"+            XX|X      +                     XX|6  .    ++X X +|",
"9+         X+++|X     X X  8               X+++|6 ..  X++X X  +|",
"++        X+ X |X         8XX X      X  88X+ X |6..       X   X/",
"9XX   X   + X X/+ X       8X     XX X 88+++ X X/ .    X  X X   |",
"9X X X   X + XX/+X X     8X XX   X X X++X+ + XX/X    +         /",
"9. XXX  X X X +/++X X   8++XX   X XXX++ + + X +/+X ++        X+/",
". 9    X X     a////|/|||||/|//a////|/|||||/|//aa/|/||||||||///a"
};