/* XPM */
static char *_f0528bb949241a0ad181b5d704ba189Mua757EA4XUqbDfW[] = {
/* columns rows colors chars-per-pixel */
"20 15 56 1 ",
"  c None",
". c #2D2228",
"X c #2F2229",
"o c #2E2528",
"O c #322225",
"+ c #332228",
"@ c #32212B",
"# c #32262A",
"$ c #32222C",
"% c #5B4641",
"& c #5E4642",
"* c #5D4545",
"= c #5E4646",
"- c #5D4942",
"; c #5A4648",
": c #7B6E4E",
"> c #7F6B53",
", c #7D6E51",
"< c #7C6C52",
"1 c #7E6C54",
"2 c #7E6C56",
"3 c #7F6D57",
"4 c #73675B",
"5 c #776A59",
"6 c #786B5B",
"7 c #766C60",
"8 c #9D3326",
"9 c #9A3425",
"0 c #9E3329",
"q c #9D352C",
"w c #A13822",
"e c #826D5A",
"r c #816B5D",
"t c #E7881C",
"y c #E98428",
"u c #EA8729",
"i c #EA9427",
"p c #FFC600",
"a c #FFC504",
"s c #FECF03",
"d c #FFC807",
"f c #FECF05",
"g c #F7C808",
"h c #FFD100",
"j c #FDD003",
"k c #FFD004",
"l c #FED104",
"z c #F9D208",
"x c #FCD00B",
"c c #FED313",
"v c #BBA387",
"b c #B6A088",
"n c #BFA58A",
"m c #C0A58A",
"M c #E8F7BE",
"N c #F8F2BE",
/* pixels */
" hiq  gt8  hiq  gt8 ",
"kNdu8xMku0sNdu8xMju9",
"kapu8zcju0sapu8zcjy9",
"kffu8ffky8sffu8ffjy9",
"kkfu8ffku0fhfu8fkku8",
":n>*O1n3&+1m>*+1n1&.",
":n1*+1m1&+1me*+1n1=.",
":ne&+1n3&@:m>*+1ne&.",
":m>*O2n3&@:me=+en1*+",
":m>&+2n3&@1m:*O>n3&.",
":me&+2n3&@<ne=O1n3*+",
":m2*O2n3&@<n>*O1n1&.",
":n>*+1n1&+1n>*+1n1*o",
" >-@  6*O  1-+  6*O ",
"7ve;#5br%.4ve;#5br%o"
};
