/* XPM */
static char *_d39c96fc9674379d2cf36ba962c08caPBhw5eCW6EFWxmss[] = {
/* columns rows colors chars-per-pixel */
"20 21 70 1 ",
"  c None",
". c #6A2300",
"X c #602900",
"o c #612900",
"O c #622900",
"+ c #612B00",
"@ c #612A01",
"# c #672900",
"$ c #602C00",
"% c #652D00",
"& c #602A08",
"* c #612C0A",
"= c #642C0B",
"- c #7F500C",
"; c #636770",
": c #606873",
"> c #824D0B",
", c #814E0C",
"< c #854F11",
"1 c #854E15",
"2 c #854B1B",
"3 c #844E1F",
"4 c #835011",
"5 c #865014",
"6 c #885311",
"7 c #9D6625",
"8 c #A36125",
"9 c #BA8621",
"0 c #B38C25",
"q c #B6872D",
"w c #BB8B29",
"e c #B98B2B",
"r c #B9882C",
"t c #BA892D",
"y c #B8892F",
"u c #BA882F",
"i c #B78931",
"p c #B68A33",
"a c #B38B34",
"s c #B88833",
"d c #B88A32",
"f c #BC8936",
"g c #B5843F",
"h c #B98438",
"j c #BA863B",
"k c #B98839",
"l c #C98733",
"z c #D1A938",
"x c #D4A940",
"c c #DBD450",
"v c #E0D547",
"b c #EED145",
"n c #E8D248",
"m c #E9D248",
"M c #EAD349",
"N c #ECD048",
"B c #E8D14D",
"V c #E4D150",
"C c #ECD053",
"Z c #7E8894",
"A c #7F8995",
"S c #838C95",
"D c #838B98",
"F c #828B9A",
"G c #828C98",
"H c #888F99",
"J c #A7AEB8",
"K c #A6B0BC",
"L c #F3F2BC",
"P c #FCF0C6",
/* pixels */
"  S    D    S    F  ",
"  S    F    S    F  ",
" KG;  JF:  JG;  JF: ",
" ZZ;  HG:  SZ;  HG: ",
" GG;  SF:  GG;  SF: ",
" GG;  SG:  GG;  SF: ",
" Bp4  Mt<  Bp4  Mt< ",
" Bp4  Mt<  Bp4  Mt< ",
" Px8  Lz7  Px8  Lz7 ",
"hv93*qbt1$gv93*qbw1.",
"dBp5@tNt<@tBd5@dNt<X",
"tBp5@tNt<@rBp5@rNt<X",
"yBp5@ubt<@rBp5@dNt<@",
"yBp5@dNt<@rBp5@uNt<@",
"yBp5@tNt<@tBp1@uNt4X",
"yBp5@rNt<@tBp6@uNt<X",
"yBp5@dNu<@rBp1@tNt<@",
"yBp<@tbt<@rBp5@dNt<@",
"lnd-=dcf>%hMd,=dcf,#",
" p2&  p6@  d2&  p6@ ",
"lV04@wCh,%jV0<@wCh,#"
};
