/* XPM */
static char *c120ae66076e4e44bebbbdf9d411fcff7daYRLpKzC5Z2Y7g[] = {
/* columns rows colors chars-per-pixel */
"56 102 51 1 ",
"  c black",
". c gray11",
"X c #202020",
"o c #282828",
"O c #2C2C2C",
"+ c gray19",
"@ c #343434",
"# c gray22",
"$ c #403018",
"% c #483818",
"& c #543C1C",
"* c #5C4020",
"= c #6C4824",
"- c #744C28",
"; c gray25",
": c #484848",
"> c #4C4C4C",
", c gray33",
"< c gray36",
"1 c #646464",
"2 c gray44",
"3 c #7C7C7C",
"4 c #80502C",
"5 c #885830",
"6 c #905C34",
"7 c #9C6038",
"8 c #A0643C",
"9 c #A86840",
"0 c #B47044",
"q c #BC7848",
"w c #C87C4C",
"e c #D08050",
"r c #DC8854",
"t c #E88C58",
"y c #F0945C",
"u c #FC9C60",
"i c #FCA470",
"p c gray55",
"a c #989898",
"s c gray66",
"d c #B4B4B4",
"f c #FCB080",
"g c #FCBC9C",
"h c #C0C0C0",
"j c #D0D0D0",
"k c gainsboro",
"l c #F9F6F8",
"z c #FAF8FA",
"x c #FCFBFC",
"c c #FDFCFD",
"v c None",
/* pixels */
"vvvvvvvvvvvvvvvvssddaapp11::##::vvvvvvvvvvvvvvvvvvvvvvvv",
"vvvvvvvvvvvvvvvvssddaapp11::##::vvvvvvvvvvvvvvvvvvvvvvvv",
"vvvvvvvvvvvvvvssppjjpp2211<<::OO::vvvvvvvvvvvvvvvvvvvvvv",
"vvvvvvvvvvvvvvssppjjpp2211<<::OO::vvvvvvvvvvvvvvvvvvvvvv",
"vvvvvvvvvvvvvvppppsspp2211,,::OO##vvvvvvvvvvvvvvvvvvvvvv",
"vvvvvvvvvvvvvvppppsspp2211,,::OO##vvvvvvvvvvvvvvvvvvvvvv",
"vvvvvvvvvvvvvvppppaapp2211<<>>OO@@vvvvvvvvvvvvvvvvvvvvvv",
"vvvvvvvvvvvvvvppppaapp2211<<>>OO@@vvvvvvvvvvvvvvvvvvvvvv",
"vvvvvvvvvvvv22aajjjjhhsspp22,,,,<<>>vvvvvvvvvvvvvvvvvvvv",
"vvvvvvvvvvvv22aajjjjhhsspp22,,,,<<>>vvvvvvvvvvvvvvvvvvvv",
"vvvvvvvvvvvvppdd  77$$8866$$66  2211vvvvvvvvvvvvvvvvvvvv",
"vvvvvvvvvvvvppdd  77$$8866$$66  2211vvvvvvvvvvvvvvvvvvvv",
"vvvvvvvvvvvvssXX77iiggii00ggtt--XX22vvvvvvvvvvvvvvvvvvvv",
"vvvvvvvvvvvvssXX77iiggii00ggtt--XX22vvvvvvvvvvvvvvvvvvvv",
"vvvvvvvvvvvv33XX==rruuyyyyuuee%%XX11vvvvvvvvvvvvvvvvvvvv",
"vvvvvvvvvvvv33XX==rruuyyyyuuee%%XX11vvvvvvvvvvvvvvvvvvvv",
"vvvvvvvvvvvvvvvv%%99rrww00rr77%%vvvvvvvvvvvvvvvvvvvvvvvv",
"vvvvvvvvvvvvvvvv%%99rrww00rr77%%vvvvvvvvvvvvvvvvvvvvvvvv",
"vvvvvvvvvvvvvvvv  44eefftt00%%  vvvvvvvvvvvvvvvvvvvvvvvv",
"vvvvvvvvvvvvvvvv  44eefftt00%%  vvvvvvvvvvvvvvvvvvvvvvvv",
"vvvvvvvvvvvvvv      ==888844      vvvvvvvvvvvvvvvvvvvvvv",
"vvvvvvvvvvvvvv      ==888844      vvvvvvvvvvvvvvvvvvvvvv",
"vvvvvvvv7777    aa    0088    22      &&vvvvvvvvvvvvvvvv",
"vvvvvvvv7777    aa    0088    22      &&vvvvvvvvvvvvvvvv",
"vvvvvv779977      aa        22  &&    ==55vvvvvvvvvvvvvv",
"vvvvvv779977      aa        22  &&    ==66vvvvvvvvvvvvvv",
"vvvvvv999955        ..55--..  ----    999999vvvvvvvvvvvv",
"vvvvvv999955        ..55--..  ----    999999vvvvvvvvvvvv",
"vvvv68999977    99775577--77779977    999999--vvvvvvvvvv",
"vvvv77999977    99775577--77779977    999899--vvvvvvvvvv",
"vvvv77899955    kkkkdd99--99999999    777768--vvvvvvvvvv",
"vvvv77999955    kkkkdd99--99999999    777786--vvvvvvvvvv",
"vv77779977--    dd9977--&&99999977    55777777vvvvvvvvvv",
"vv77779977--    dd9977--&&99999977    55777777vvvvvvvvvv",
"vv77999977&&    ----9955&&99------    --777777--vvvvvvvv",
"vv77999977&&    ----9955&&99------    --777777--vvvvvvvv",
"779999&&&&&&    99--77--&&99--9977    ==55777777vvvvvvvv",
"779999&&&&&&    99--77--&&99--9977    ==55777777vvvvvvvv",
"99999999&&&&    ----55==oooooo++##oo  &&--777777--vvvvO+",
"99999999&&&&    ----55==oooooo++##oo  &&--777777--vvvv++",
"99999955==&&  ##########++++++++++++++##############;;..",
"99999955==&&  ##########++++++++++++++##############;;..",
"99999999--    ooooooooXXXXXXXXXXXXXXXXXXXXXXXXXXoooooo..",
"99999999--    ooooooooXXXXXXXXXXXXXXXXXXXXXXXXXXoooooo..",
"--777755&&  00ooooXXXX................              oo..",
"--777755&&  00ooooXXXX................              oo..",
"vv7799995588uuuutt66**##ooXXXXXX..==========77--vvvvvvvv",
"vv7799995588uuuytt66**##ooXXXXXX..==========77--vvvvvvvv",
"vv--7799==rruurr88&&------OoXXoo..55qqrr68==----vvvvvvvv",
"vv--7799==rruurr88&&------ooXXoo..55qqrr86==----vvvvvvvv",
"vvvvvv99--rruuuu88&&8999--oooooo..55qqrr77==--vvvvvvvvvv",
"vvvvvv99--rruuuu88&&9999--oooooo..55qqrr77==--vvvvvvvvvv",
"vvvvvvvvvv&&8888==&&9999--oooooo..558888-===vvvvvvvvvvvv",
"vvvvvvvvvv&&8888=-&&9999--oOoooo..558788====vvvvvvvvvvvv",
"vvvvvvvvvv&&--7799999999--8989999955==&&vvvvvvvvvvvvvvvv",
"vvvvvvvvvv&&--7799999999--0809999855==&&vvvvvvvvvvvvvvvv",
"vvvvvvvvvv&&--7799999999--9999999987---=vvvvvvvvvvvvvvvv",
"vvvvvvvvvv&&--7798999998--9999989968--==vvvvvvvvvvvvvvvv",
"vvvvvvvvvv&&&&--7755---=&&&&--5555&&&&&&vvvvvvvvvvvvvvvv",
"vvvvvvvvvv&&&&--7756--==&&&&--5655&&&&&&vvvvvvvvvvvvvvvv",
"vvvvvvvvvv==--99999977--&&-=77890878&&&&vvvvvvvvvvvvvvvv",
"vvvvvvvvvv==--99999977--&&==77998878&&&&vvvvvvvvvvvvvvvv",
"vvvvvvvvvv==5599999977==&&&&55990899--&&vvvvvvvvvvvvvvvv",
"vvvvvvvvvv==5599999877==&&&&56999988--&&vvvvvvvvvvvvvvvv",
"vvvvvvvvvv==4599999955&&&&&&55889999--&&vvvvvvvvvvvvvvvv",
"vvvvvvvvvv==5599999955&&&&&&55089999--&&vvvvvvvvvvvvvvvv",
"vvvvvvvvvv&&55999987--&&&&&&55809999--&&vvvvvvvvvvvvvvvv",
"vvvvvvvvvv&&55999877--&&&&&&55089999--&&vvvvvvvvvvvvvvvv",
"vvvvvvvvvv&&==779987--&&&&&&55809977--&&vvvvvvvvvvvvvvvv",
"vvvvvvvvvv&&==779988--&&&&&&55999977--&&vvvvvvvvvvvvvvvv",
"vvvvvvvvvvvv&&558888--&&&&&&55997755==vvvvvvvvvvvvvvvvvv",
"vvvvvvvvvvvv&&558680--&&&&&&55997755==vvvvvvvvvvvvvvvvvv",
"vvvvvvvvvvvv--555586==&&&&&&557755==&&vvvvvvvvvvvvvvvvvv",
"vvvvvvvvvvvv--555678=-&&&&&&557755==&&vvvvvvvvvvvvvvvvvv",
"vvvvvvvvvv5555555555==&&&&==557755====&&vvvvvvvvvvvvvvvv",
"vvvvvvvvvv5555555554==&&&&==557755====&&vvvvvvvvvvvvvvvv",
"vvvvvvvvvv777777677777--&&5577777755--&&vvvvvvvvvvvvvvvv",
"vvvvvvvvvv777777877778--&&5577777755--&&vvvvvvvvvvvvvvvv",
"vvvvvvvvvv--9955&&&&  &&&&--9955&&&&  &&vvvvvvvvvvvvvvvv",
"vvvvvvvvvv--9955&&&&  &&&&--9955&&&&  &&vvvvvvvvvvvvvvvv",
"vvvvvvvvvvvv........    vv  ....      vvvvvvvvvvvvvvvvvv",
"vvvvvvvvvvvv........    vv  ....      vvvvvvvvvvvvvvvvvv",
"vvvvvvvvvvvvXX@@@@XX..  vv..ooOO..    vvvvvvvvvvvvvvvvvv",
"vvvvvvvvvvvvXX@@@@XX..  vv..ooOO..    vvvvvvvvvvvvvvvvvv",
"vvvvvvvvvvvvoo####XX..  vv..OO@@..    vvvvvvvvvvvvvvvvvv",
"vvvvvvvvvvvvoo####XX..  vv..OO@@..    vvvvvvvvvvvvvvvvvv",
"vvvvvvvvvvvvXX##@@..    vv  oo@@..    vvvvvvvvvvvvvvvvvv",
"vvvvvvvvvvvvXX##@@..    vv  oo@@..    vvvvvvvvvvvvvvvvvv",
"vvvvvvvvvvvv..@@@@..    vv  XXOOXX    vvvvvvvvvvvvvvvvvv",
"vvvvvvvvvvvv..@@@@..    vv  XXOOXX    vvvvvvvvvvvvvvvvvv",
"vvvvvvvvvvvv..oo@@..    vv  ..OOXX    vvvvvvvvvvvvvvvvvv",
"vvvvvvvvvvvv..oo@@..    vv  ..OOXX    vvvvvvvvvvvvvvvvvv",
"vvvvvvvvvvvv  ..oo..  vvvvvv..oo..    vvvvvvvvvvvvvvvvvv",
"vvvvvvvvvvvv  ..oo..  vvvvvv..oo..    vvvvvvvvvvvvvvvvvv",
"vvvvvvvvvvvvvv......  vvvvvv......  vvvvvvvvvvvvvvvvvvvv",
"vvvvvvvvvvvvvv......  vvvvvv......  vvvvvvvvvvvvvvvvvvvv",
"vvvvvvvvvvvv........    vv  ..XX..    vvvvvvvvvvvvvvvvvv",
"vvvvvvvvvvvv........    vv  ..XX..    vvvvvvvvvvvvvvvvvv",
"vvvvvvvvvv..OO+@OO..    vv  oo##@@XX....vvvvvvvvvvvvvvvv",
"vvvvvvvvvv..OO@@OO..    vv  oo##@@XX....vvvvvvvvvvvvvvvv",
"vvvvvvvvvvoo##@@oo..  vvvvvvXX####OO....vvvvvvvvvvvvvvvv",
"vvvvvvvvvvoo##@@oo..  vvvvvvXX####OO....vvvvvvvvvvvvvvvv"
};
